<svg xmlns="http://www.w3.org/2000/svg" width="794" height="1123" viewBox="0 0 794 1123" role="img" aria-labelledby="title-february-1"><title id="title-february-1">Februar - Ruže i svilene mašne</title><desc>Original seasonal vector motifs. Botanical sweep. Open invoice content area.</desc><defs><linearGradient id="ink-february-1-accent" x1="0" y1="0" x2="0.8" y2="1"><stop offset="0" stop-color="#cba3ac"/><stop offset="0.52" stop-color="#b57b89"/><stop offset="1" stop-color="#ae7684"/></linearGradient><linearGradient id="ink-february-1-light" x1="0" y1="0" x2="0.8" y2="1"><stop offset="0" stop-color="#f9eff1"/><stop offset="0.52" stop-color="#f2dce0"/><stop offset="1" stop-color="#e3cbd0"/></linearGradient><linearGradient id="ink-february-1-deep" x1="0" y1="0" x2="0.8" y2="1"><stop offset="0" stop-color="#a0858d"/><stop offset="0.52" stop-color="#77515c"/><stop offset="1" stop-color="#77515c"/></linearGradient><linearGradient id="ink-february-1-leaf" x1="0" y1="0" x2="0.8" y2="1"><stop offset="0" stop-color="#acb6a5"/><stop offset="0.52" stop-color="#89967e"/><stop offset="1" stop-color="#878e7a"/></linearGradient><linearGradient id="ink-february-1-gold" x1="0" y1="0" x2="0.8" y2="1"><stop offset="0" stop-color="#d6bea3"/><stop offset="0.52" stop-color="#c4a27b"/><stop offset="1" stop-color="#bb9877"/></linearGradient><linearGradient id="ink-february-1-paper" x1="0" y1="0" x2="0.8" y2="1"><stop offset="0" stop-color="#fffcf8"/><stop offset="0.52" stop-color="#fffaf5"/><stop offset="1" stop-color="#fcf7f2"/></linearGradient><radialGradient id="wash-february-1"><stop offset="0" stop-color="#f2dce0" stop-opacity="0.72"/><stop offset="0.65" stop-color="#f2dce0" stop-opacity="0.3"/><stop offset="1" stop-color="#fffaf5" stop-opacity="0"/></radialGradient><linearGradient id="paper-february-1" x1="0" y1="0" x2="0" y2="1"><stop offset="0" stop-color="#ffffff"/><stop offset="0.78" stop-color="#ffffff"/><stop offset="1" stop-color="#fffaf5"/></linearGradient><mask id="safe-february-1"><rect width="794" height="1123" fill="white"/><rect x="29" y="87" width="736" height="780" rx="15" fill="black"/></mask></defs><rect width="794" height="1123" fill="url(#paper-february-1)"/><g stroke="#77515c" stroke-width="1.2" stroke-linecap="round" stroke-linejoin="round" fill="none" mask="url(#safe-february-1)"><g stroke="none"><ellipse cx="184" cy="1040" rx="290" ry="151" fill="url(#wash-february-1)" opacity="1"/></g><g data-motif="sprig" transform="translate(23 957) rotate(-36 53.5 53.5) scale(0.66875)" opacity="0.75"><path d="M80 151Q57 93 96 12" fill="none" opacity="0.85" stroke-width="1.2"/><g transform="translate(76 139) rotate(-72) scale(.7)" opacity="1"><path d="M0 0C-21-9-24-31-10-43 7-32 16-12 0 0Z" fill="url(#ink-february-1-leaf)" opacity="0.7" stroke-width="1.3"/><path d="M0 0L-10-37M-5-17l-11-9M-7-26l7-9" fill="none" opacity="0.65" stroke-width="0.9"/></g><g transform="translate(78 120) rotate(62) scale(.7)" opacity="1"><path d="M0 0C-21-9-24-31-10-43 7-32 16-12 0 0Z" fill="url(#ink-february-1-leaf)" opacity="0.7" stroke-width="1.3"/><path d="M0 0L-10-37M-5-17l-11-9M-7-26l7-9" fill="none" opacity="0.65" stroke-width="0.9"/></g><g transform="translate(80 101) rotate(-72) scale(.7)" opacity="1"><path d="M0 0C-21-9-24-31-10-43 7-32 16-12 0 0Z" fill="url(#ink-february-1-leaf)" opacity="0.7" stroke-width="1.3"/><path d="M0 0L-10-37M-5-17l-11-9M-7-26l7-9" fill="none" opacity="0.65" stroke-width="0.9"/></g><g transform="translate(82 82) rotate(62) scale(.7)" opacity="1"><path d="M0 0C-21-9-24-31-10-43 7-32 16-12 0 0Z" fill="url(#ink-february-1-leaf)" opacity="0.7" stroke-width="1.3"/><path d="M0 0L-10-37M-5-17l-11-9M-7-26l7-9" fill="none" opacity="0.65" stroke-width="0.9"/></g><g transform="translate(84 63) rotate(-72) scale(.7)" opacity="1"><path d="M0 0C-21-9-24-31-10-43 7-32 16-12 0 0Z" fill="url(#ink-february-1-leaf)" opacity="0.7" stroke-width="1.3"/><path d="M0 0L-10-37M-5-17l-11-9M-7-26l7-9" fill="none" opacity="0.65" stroke-width="0.9"/></g><g transform="translate(86 44) rotate(62) scale(.7)" opacity="1"><path d="M0 0C-21-9-24-31-10-43 7-32 16-12 0 0Z" fill="url(#ink-february-1-leaf)" opacity="0.7" stroke-width="1.3"/><path d="M0 0L-10-37M-5-17l-11-9M-7-26l7-9" fill="none" opacity="0.65" stroke-width="0.9"/></g></g><g data-motif="sprig" transform="translate(145 1001) rotate(15 53.5 53.5) scale(0.66875)" opacity="0.75"><path d="M80 151Q57 93 96 12" fill="none" opacity="0.85" stroke-width="1.2"/><g transform="translate(76 139) rotate(-72) scale(.7)" opacity="1"><path d="M0 0C-21-9-24-31-10-43 7-32 16-12 0 0Z" fill="url(#ink-february-1-leaf)" opacity="0.7" stroke-width="1.3"/><path d="M0 0L-10-37M-5-17l-11-9M-7-26l7-9" fill="none" opacity="0.65" stroke-width="0.9"/></g><g transform="translate(78 120) rotate(62) scale(.7)" opacity="1"><path d="M0 0C-21-9-24-31-10-43 7-32 16-12 0 0Z" fill="url(#ink-february-1-leaf)" opacity="0.7" stroke-width="1.3"/><path d="M0 0L-10-37M-5-17l-11-9M-7-26l7-9" fill="none" opacity="0.65" stroke-width="0.9"/></g><g transform="translate(80 101) rotate(-72) scale(.7)" opacity="1"><path d="M0 0C-21-9-24-31-10-43 7-32 16-12 0 0Z" fill="url(#ink-february-1-leaf)" opacity="0.7" stroke-width="1.3"/><path d="M0 0L-10-37M-5-17l-11-9M-7-26l7-9" fill="none" opacity="0.65" stroke-width="0.9"/></g><g transform="translate(82 82) rotate(62) scale(.7)" opacity="1"><path d="M0 0C-21-9-24-31-10-43 7-32 16-12 0 0Z" fill="url(#ink-february-1-leaf)" opacity="0.7" stroke-width="1.3"/><path d="M0 0L-10-37M-5-17l-11-9M-7-26l7-9" fill="none" opacity="0.65" stroke-width="0.9"/></g><g transform="translate(84 63) rotate(-72) scale(.7)" opacity="1"><path d="M0 0C-21-9-24-31-10-43 7-32 16-12 0 0Z" fill="url(#ink-february-1-leaf)" opacity="0.7" stroke-width="1.3"/><path d="M0 0L-10-37M-5-17l-11-9M-7-26l7-9" fill="none" opacity="0.65" stroke-width="0.9"/></g><g transform="translate(86 44) rotate(62) scale(.7)" opacity="1"><path d="M0 0C-21-9-24-31-10-43 7-32 16-12 0 0Z" fill="url(#ink-february-1-leaf)" opacity="0.7" stroke-width="1.3"/><path d="M0 0L-10-37M-5-17l-11-9M-7-26l7-9" fill="none" opacity="0.65" stroke-width="0.9"/></g></g><g data-motif="sprig" transform="translate(344 1045) rotate(-23 53.5 53.5) scale(0.66875)" opacity="0.75"><path d="M80 151Q57 93 96 12" fill="none" opacity="0.85" stroke-width="1.2"/><g transform="translate(76 139) rotate(-72) scale(.7)" opacity="1"><path d="M0 0C-21-9-24-31-10-43 7-32 16-12 0 0Z" fill="url(#ink-february-1-leaf)" opacity="0.7" stroke-width="1.3"/><path d="M0 0L-10-37M-5-17l-11-9M-7-26l7-9" fill="none" opacity="0.65" stroke-width="0.9"/></g><g transform="translate(78 120) rotate(62) scale(.7)" opacity="1"><path d="M0 0C-21-9-24-31-10-43 7-32 16-12 0 0Z" fill="url(#ink-february-1-leaf)" opacity="0.7" stroke-width="1.3"/><path d="M0 0L-10-37M-5-17l-11-9M-7-26l7-9" fill="none" opacity="0.65" stroke-width="0.9"/></g><g transform="translate(80 101) rotate(-72) scale(.7)" opacity="1"><path d="M0 0C-21-9-24-31-10-43 7-32 16-12 0 0Z" fill="url(#ink-february-1-leaf)" opacity="0.7" stroke-width="1.3"/><path d="M0 0L-10-37M-5-17l-11-9M-7-26l7-9" fill="none" opacity="0.65" stroke-width="0.9"/></g><g transform="translate(82 82) rotate(62) scale(.7)" opacity="1"><path d="M0 0C-21-9-24-31-10-43 7-32 16-12 0 0Z" fill="url(#ink-february-1-leaf)" opacity="0.7" stroke-width="1.3"/><path d="M0 0L-10-37M-5-17l-11-9M-7-26l7-9" fill="none" opacity="0.65" stroke-width="0.9"/></g><g transform="translate(84 63) rotate(-72) scale(.7)" opacity="1"><path d="M0 0C-21-9-24-31-10-43 7-32 16-12 0 0Z" fill="url(#ink-february-1-leaf)" opacity="0.7" stroke-width="1.3"/><path d="M0 0L-10-37M-5-17l-11-9M-7-26l7-9" fill="none" opacity="0.65" stroke-width="0.9"/></g><g transform="translate(86 44) rotate(62) scale(.7)" opacity="1"><path d="M0 0C-21-9-24-31-10-43 7-32 16-12 0 0Z" fill="url(#ink-february-1-leaf)" opacity="0.7" stroke-width="1.3"/><path d="M0 0L-10-37M-5-17l-11-9M-7-26l7-9" fill="none" opacity="0.65" stroke-width="0.9"/></g></g><g data-motif="sprig" transform="translate(531 1035) rotate(18 53.5 53.5) scale(0.66875)" opacity="0.75"><path d="M80 151Q57 93 96 12" fill="none" opacity="0.85" stroke-width="1.2"/><g transform="translate(76 139) rotate(-72) scale(.7)" opacity="1"><path d="M0 0C-21-9-24-31-10-43 7-32 16-12 0 0Z" fill="url(#ink-february-1-leaf)" opacity="0.7" stroke-width="1.3"/><path d="M0 0L-10-37M-5-17l-11-9M-7-26l7-9" fill="none" opacity="0.65" stroke-width="0.9"/></g><g transform="translate(78 120) rotate(62) scale(.7)" opacity="1"><path d="M0 0C-21-9-24-31-10-43 7-32 16-12 0 0Z" fill="url(#ink-february-1-leaf)" opacity="0.7" stroke-width="1.3"/><path d="M0 0L-10-37M-5-17l-11-9M-7-26l7-9" fill="none" opacity="0.65" stroke-width="0.9"/></g><g transform="translate(80 101) rotate(-72) scale(.7)" opacity="1"><path d="M0 0C-21-9-24-31-10-43 7-32 16-12 0 0Z" fill="url(#ink-february-1-leaf)" opacity="0.7" stroke-width="1.3"/><path d="M0 0L-10-37M-5-17l-11-9M-7-26l7-9" fill="none" opacity="0.65" stroke-width="0.9"/></g><g transform="translate(82 82) rotate(62) scale(.7)" opacity="1"><path d="M0 0C-21-9-24-31-10-43 7-32 16-12 0 0Z" fill="url(#ink-february-1-leaf)" opacity="0.7" stroke-width="1.3"/><path d="M0 0L-10-37M-5-17l-11-9M-7-26l7-9" fill="none" opacity="0.65" stroke-width="0.9"/></g><g transform="translate(84 63) rotate(-72) scale(.7)" opacity="1"><path d="M0 0C-21-9-24-31-10-43 7-32 16-12 0 0Z" fill="url(#ink-february-1-leaf)" opacity="0.7" stroke-width="1.3"/><path d="M0 0L-10-37M-5-17l-11-9M-7-26l7-9" fill="none" opacity="0.65" stroke-width="0.9"/></g><g transform="translate(86 44) rotate(62) scale(.7)" opacity="1"><path d="M0 0C-21-9-24-31-10-43 7-32 16-12 0 0Z" fill="url(#ink-february-1-leaf)" opacity="0.7" stroke-width="1.3"/><path d="M0 0L-10-37M-5-17l-11-9M-7-26l7-9" fill="none" opacity="0.65" stroke-width="0.9"/></g></g><path d="M-14 1068Q37 950 2 732M39 1110Q258 1006 527 1118" fill="none" opacity="0.28" stroke-width="1.2"/><g transform="translate(12 1100) rotate(50) scale(.53)" opacity="0.55"><path d="M0 0C-21-9-24-31-10-43 7-32 16-12 0 0Z" fill="url(#ink-february-1-leaf)" opacity="0.7" stroke-width="1.3"/><path d="M0 0L-10-37M-5-17l-11-9M-7-26l7-9" fill="none" opacity="0.65" stroke-width="0.9"/></g><g transform="translate(60 1093.1116982174283) rotate(-45) scale(.53)" opacity="0.55"><path d="M0 0C-21-9-24-31-10-43 7-32 16-12 0 0Z" fill="url(#ink-february-1-leaf)" opacity="0.7" stroke-width="1.3"/><path d="M0 0L-10-37M-5-17l-11-9M-7-26l7-9" fill="none" opacity="0.65" stroke-width="0.9"/></g><g transform="translate(108 1087.272077938642) rotate(50) scale(.53)" opacity="0.55"><path d="M0 0C-21-9-24-31-10-43 7-32 16-12 0 0Z" fill="url(#ink-february-1-leaf)" opacity="0.7" stroke-width="1.3"/><path d="M0 0L-10-37M-5-17l-11-9M-7-26l7-9" fill="none" opacity="0.65" stroke-width="0.9"/></g><g transform="translate(156 1083.3701684147968) rotate(-45) scale(.53)" opacity="0.55"><path d="M0 0C-21-9-24-31-10-43 7-32 16-12 0 0Z" fill="url(#ink-february-1-leaf)" opacity="0.7" stroke-width="1.3"/><path d="M0 0L-10-37M-5-17l-11-9M-7-26l7-9" fill="none" opacity="0.65" stroke-width="0.9"/></g><g transform="translate(204 1082) rotate(50) scale(.53)" opacity="0.55"><path d="M0 0C-21-9-24-31-10-43 7-32 16-12 0 0Z" fill="url(#ink-february-1-leaf)" opacity="0.7" stroke-width="1.3"/><path d="M0 0L-10-37M-5-17l-11-9M-7-26l7-9" fill="none" opacity="0.65" stroke-width="0.9"/></g><g transform="translate(252 1083.3701684147968) rotate(-45) scale(.53)" opacity="0.55"><path d="M0 0C-21-9-24-31-10-43 7-32 16-12 0 0Z" fill="url(#ink-february-1-leaf)" opacity="0.7" stroke-width="1.3"/><path d="M0 0L-10-37M-5-17l-11-9M-7-26l7-9" fill="none" opacity="0.65" stroke-width="0.9"/></g><g transform="translate(300 1087.272077938642) rotate(50) scale(.53)" opacity="0.55"><path d="M0 0C-21-9-24-31-10-43 7-32 16-12 0 0Z" fill="url(#ink-february-1-leaf)" opacity="0.7" stroke-width="1.3"/><path d="M0 0L-10-37M-5-17l-11-9M-7-26l7-9" fill="none" opacity="0.65" stroke-width="0.9"/></g><g transform="translate(348 1093.1116982174283) rotate(-45) scale(.53)" opacity="0.55"><path d="M0 0C-21-9-24-31-10-43 7-32 16-12 0 0Z" fill="url(#ink-february-1-leaf)" opacity="0.7" stroke-width="1.3"/><path d="M0 0L-10-37M-5-17l-11-9M-7-26l7-9" fill="none" opacity="0.65" stroke-width="0.9"/></g><g transform="translate(396 1100) rotate(50) scale(.53)" opacity="0.55"><path d="M0 0C-21-9-24-31-10-43 7-32 16-12 0 0Z" fill="url(#ink-february-1-leaf)" opacity="0.7" stroke-width="1.3"/><path d="M0 0L-10-37M-5-17l-11-9M-7-26l7-9" fill="none" opacity="0.65" stroke-width="0.9"/></g><g data-motif="rose" transform="translate(27 883) rotate(-9 109 109) scale(1.3625)" opacity="1"><path d="M80 90v63M80 126q-29-1-34-26 28 0 34 26M80 139q32-1 39-29-29 1-39 29" fill="url(#ink-february-1-leaf)" opacity="1" stroke-width="1.3"/><path d="M80 92C42 92 26 65 41 46 34 24 59 11 80 25 103 10 128 29 119 49 135 70 115 93 80 92Z" fill="url(#ink-february-1-light)" opacity="1" stroke-width="1.3"/><path d="M79 81C48 79 45 53 57 43q23-25 47 0c17 14 7 42-25 38ZM80 70q-22-7-10-20 11-12 24-1 6 12-14 21ZM44 49q9 19 32 24M111 44q-18-3-29 5M80 27q4 12-13 19" fill="none" opacity="0.9" stroke-width="1.3"/></g><g data-motif="bow" transform="translate(175 930) rotate(11 90 90) scale(1.125)" opacity="1"><path d="M72 72C18 25 10 61 22 85q9 22 50 1ZM88 72c54-47 62-11 50 13-9 22-50 1-50 1Z" fill="url(#ink-february-1-light)" opacity="1" stroke-width="1.3"/><path d="M69 85l-28 57 23-6 10 9 13-55M89 87l25 55 7-16 22 5-40-48" fill="url(#ink-february-1-accent)" opacity="0.75" stroke-width="1.3"/><rect x="68" y="68" width="24" height="25" rx="5" fill="url(#ink-february-1-gold)"/><path d="M27 68l38 10M134 68l-37 10M74 100l-17 28M102 99l21 24" fill="none" opacity="0.5" stroke-width="1"/></g><g data-motif="heart" transform="translate(359 955) rotate(-12 76 76) scale(0.95)" opacity="1"><path d="M80 138C55 117 19 95 19 61 19 21 62 20 80 51c18-31 61-30 61 10 0 34-36 56-61 77Z" fill="url(#ink-february-1-light)" opacity="1" stroke-width="1.3"/><path d="M33 59q0-19 19-22M41 99q18 20 34 28" fill="none" opacity="0.5" stroke-width="1"/></g><g data-motif="petal" transform="translate(494 1004) rotate(16 58 58) scale(0.725)" opacity="1"><path d="M33 107Q20 43 93 27q41 64-16 99-32 11-44-19Z" fill="url(#ink-february-1-light)" opacity="1" stroke-width="1.3"/><path d="M38 108Q50 61 91 32" fill="none" opacity="0.45" stroke-width="1.2"/></g><g data-motif="sprig" transform="translate(636 1039) rotate(-12 40 40) scale(0.5)" opacity="1"><path d="M80 151Q57 93 96 12" fill="none" opacity="0.85" stroke-width="1.2"/><g transform="translate(76 139) rotate(-72) scale(.7)" opacity="1"><path d="M0 0C-21-9-24-31-10-43 7-32 16-12 0 0Z" fill="url(#ink-february-1-leaf)" opacity="0.7" stroke-width="1.3"/><path d="M0 0L-10-37M-5-17l-11-9M-7-26l7-9" fill="none" opacity="0.65" stroke-width="0.9"/></g><g transform="translate(78 120) rotate(62) scale(.7)" opacity="1"><path d="M0 0C-21-9-24-31-10-43 7-32 16-12 0 0Z" fill="url(#ink-february-1-leaf)" opacity="0.7" stroke-width="1.3"/><path d="M0 0L-10-37M-5-17l-11-9M-7-26l7-9" fill="none" opacity="0.65" stroke-width="0.9"/></g><g transform="translate(80 101) rotate(-72) scale(.7)" opacity="1"><path d="M0 0C-21-9-24-31-10-43 7-32 16-12 0 0Z" fill="url(#ink-february-1-leaf)" opacity="0.7" stroke-width="1.3"/><path d="M0 0L-10-37M-5-17l-11-9M-7-26l7-9" fill="none" opacity="0.65" stroke-width="0.9"/></g><g transform="translate(82 82) rotate(62) scale(.7)" opacity="1"><path d="M0 0C-21-9-24-31-10-43 7-32 16-12 0 0Z" fill="url(#ink-february-1-leaf)" opacity="0.7" stroke-width="1.3"/><path d="M0 0L-10-37M-5-17l-11-9M-7-26l7-9" fill="none" opacity="0.65" stroke-width="0.9"/></g><g transform="translate(84 63) rotate(-72) scale(.7)" opacity="1"><path d="M0 0C-21-9-24-31-10-43 7-32 16-12 0 0Z" fill="url(#ink-february-1-leaf)" opacity="0.7" stroke-width="1.3"/><path d="M0 0L-10-37M-5-17l-11-9M-7-26l7-9" fill="none" opacity="0.65" stroke-width="0.9"/></g><g transform="translate(86 44) rotate(62) scale(.7)" opacity="1"><path d="M0 0C-21-9-24-31-10-43 7-32 16-12 0 0Z" fill="url(#ink-february-1-leaf)" opacity="0.7" stroke-width="1.3"/><path d="M0 0L-10-37M-5-17l-11-9M-7-26l7-9" fill="none" opacity="0.65" stroke-width="0.9"/></g></g><g data-motif="bow" transform="translate(9 1010) rotate(19 63.5 63.5) scale(0.79375)" opacity="1"><path d="M72 72C18 25 10 61 22 85q9 22 50 1ZM88 72c54-47 62-11 50 13-9 22-50 1-50 1Z" fill="url(#ink-february-1-light)" opacity="1" stroke-width="1.3"/><path d="M69 85l-28 57 23-6 10 9 13-55M89 87l25 55 7-16 22 5-40-48" fill="url(#ink-february-1-accent)" opacity="0.75" stroke-width="1.3"/><rect x="68" y="68" width="24" height="25" rx="5" fill="url(#ink-february-1-gold)"/><path d="M27 68l38 10M134 68l-37 10M74 100l-17 28M102 99l21 24" fill="none" opacity="0.5" stroke-width="1"/></g><g data-motif="heart" transform="translate(46 925) rotate(-35 50 50) scale(0.625)" opacity="0.85"><path d="M80 138C55 117 19 95 19 61 19 21 62 20 80 51c18-31 61-30 61 10 0 34-36 56-61 77Z" fill="url(#ink-february-1-light)" opacity="1" stroke-width="1.3"/><path d="M33 59q0-19 19-22M41 99q18 20 34 28" fill="none" opacity="0.5" stroke-width="1"/></g><g data-motif="petal" transform="translate(249 1029) rotate(-22 49 49) scale(0.6125)" opacity="0.85"><path d="M33 107Q20 43 93 27q41 64-16 99-32 11-44-19Z" fill="url(#ink-february-1-light)" opacity="1" stroke-width="1.3"/><path d="M38 108Q50 61 91 32" fill="none" opacity="0.45" stroke-width="1.2"/></g><g data-motif="sprig" transform="translate(397 1050) rotate(25 44.5 44.5) scale(0.55625)" opacity="0.85"><path d="M80 151Q57 93 96 12" fill="none" opacity="0.85" stroke-width="1.2"/><g transform="translate(76 139) rotate(-72) scale(.7)" opacity="1"><path d="M0 0C-21-9-24-31-10-43 7-32 16-12 0 0Z" fill="url(#ink-february-1-leaf)" opacity="0.7" stroke-width="1.3"/><path d="M0 0L-10-37M-5-17l-11-9M-7-26l7-9" fill="none" opacity="0.65" stroke-width="0.9"/></g><g transform="translate(78 120) rotate(62) scale(.7)" opacity="1"><path d="M0 0C-21-9-24-31-10-43 7-32 16-12 0 0Z" fill="url(#ink-february-1-leaf)" opacity="0.7" stroke-width="1.3"/><path d="M0 0L-10-37M-5-17l-11-9M-7-26l7-9" fill="none" opacity="0.65" stroke-width="0.9"/></g><g transform="translate(80 101) rotate(-72) scale(.7)" opacity="1"><path d="M0 0C-21-9-24-31-10-43 7-32 16-12 0 0Z" fill="url(#ink-february-1-leaf)" opacity="0.7" stroke-width="1.3"/><path d="M0 0L-10-37M-5-17l-11-9M-7-26l7-9" fill="none" opacity="0.65" stroke-width="0.9"/></g><g transform="translate(82 82) rotate(62) scale(.7)" opacity="1"><path d="M0 0C-21-9-24-31-10-43 7-32 16-12 0 0Z" fill="url(#ink-february-1-leaf)" opacity="0.7" stroke-width="1.3"/><path d="M0 0L-10-37M-5-17l-11-9M-7-26l7-9" fill="none" opacity="0.65" stroke-width="0.9"/></g><g transform="translate(84 63) rotate(-72) scale(.7)" opacity="1"><path d="M0 0C-21-9-24-31-10-43 7-32 16-12 0 0Z" fill="url(#ink-february-1-leaf)" opacity="0.7" stroke-width="1.3"/><path d="M0 0L-10-37M-5-17l-11-9M-7-26l7-9" fill="none" opacity="0.65" stroke-width="0.9"/></g><g transform="translate(86 44) rotate(62) scale(.7)" opacity="1"><path d="M0 0C-21-9-24-31-10-43 7-32 16-12 0 0Z" fill="url(#ink-february-1-leaf)" opacity="0.7" stroke-width="1.3"/><path d="M0 0L-10-37M-5-17l-11-9M-7-26l7-9" fill="none" opacity="0.65" stroke-width="0.9"/></g></g><path d="M24.5 1087h5M27 1084.5v5" fill="none" opacity="0.6" stroke-width="0.8"/><path d="M105.5 1068h5M108 1065.5v5" fill="none" opacity="0.6" stroke-width="0.8"/><path d="M186.5 1049h5M189 1046.5v5" fill="none" opacity="0.6" stroke-width="0.8"/><path d="M267.5 1087h5M270 1084.5v5" fill="none" opacity="0.6" stroke-width="0.8"/><path d="M348.5 1068h5M351 1065.5v5" fill="none" opacity="0.6" stroke-width="0.8"/><path d="M429.5 1049h5M432 1046.5v5" fill="none" opacity="0.6" stroke-width="0.8"/><path d="M510.5 1087h5M513 1084.5v5" fill="none" opacity="0.6" stroke-width="0.8"/><path d="M591.5 1068h5M594 1065.5v5" fill="none" opacity="0.6" stroke-width="0.8"/><path d="M672.5 1049h5M675 1046.5v5" fill="none" opacity="0.6" stroke-width="0.8"/><path d="M753.5 1087h5M756 1084.5v5" fill="none" opacity="0.6" stroke-width="0.8"/><g data-motif="petal" transform="translate(84 925) rotate(-19 17.5 17.5) scale(0.21875)" opacity="0.65"><path d="M33 107Q20 43 93 27q41 64-16 99-32 11-44-19Z" fill="url(#ink-february-1-light)" opacity="1" stroke-width="1.3"/><path d="M38 108Q50 61 91 32" fill="none" opacity="0.45" stroke-width="1.2"/></g><g data-motif="petal" transform="translate(231 963) rotate(24 22.5 22.5) scale(0.28125)" opacity="0.65"><path d="M33 107Q20 43 93 27q41 64-16 99-32 11-44-19Z" fill="url(#ink-february-1-light)" opacity="1" stroke-width="1.3"/><path d="M38 108Q50 61 91 32" fill="none" opacity="0.45" stroke-width="1.2"/></g><g data-motif="petal" transform="translate(378 1001) rotate(-19 17.5 17.5) scale(0.21875)" opacity="0.65"><path d="M33 107Q20 43 93 27q41 64-16 99-32 11-44-19Z" fill="url(#ink-february-1-light)" opacity="1" stroke-width="1.3"/><path d="M38 108Q50 61 91 32" fill="none" opacity="0.45" stroke-width="1.2"/></g><g data-motif="petal" transform="translate(525 925) rotate(24 22.5 22.5) scale(0.28125)" opacity="0.65"><path d="M33 107Q20 43 93 27q41 64-16 99-32 11-44-19Z" fill="url(#ink-february-1-light)" opacity="1" stroke-width="1.3"/><path d="M38 108Q50 61 91 32" fill="none" opacity="0.45" stroke-width="1.2"/></g><g data-motif="petal" transform="translate(672 963) rotate(-19 17.5 17.5) scale(0.21875)" opacity="0.65"><path d="M33 107Q20 43 93 27q41 64-16 99-32 11-44-19Z" fill="url(#ink-february-1-light)" opacity="1" stroke-width="1.3"/><path d="M38 108Q50 61 91 32" fill="none" opacity="0.45" stroke-width="1.2"/></g><path d="M0 7Q105 39 212 5" fill="none" opacity="0.25" stroke-width="0.8"/><g data-motif="petal" transform="translate(5 3) rotate(-20 11 11) scale(0.1375)" opacity="0.35"><path d="M33 107Q20 43 93 27q41 64-16 99-32 11-44-19Z" fill="url(#ink-february-1-light)" opacity="1" stroke-width="1.3"/><path d="M38 108Q50 61 91 32" fill="none" opacity="0.45" stroke-width="1.2"/></g><g data-motif="petal" transform="translate(47 3) rotate(20 11 11) scale(0.1375)" opacity="0.35"><path d="M33 107Q20 43 93 27q41 64-16 99-32 11-44-19Z" fill="url(#ink-february-1-light)" opacity="1" stroke-width="1.3"/><path d="M38 108Q50 61 91 32" fill="none" opacity="0.45" stroke-width="1.2"/></g><g data-motif="petal" transform="translate(89 3) rotate(-20 11 11) scale(0.1375)" opacity="0.35"><path d="M33 107Q20 43 93 27q41 64-16 99-32 11-44-19Z" fill="url(#ink-february-1-light)" opacity="1" stroke-width="1.3"/><path d="M38 108Q50 61 91 32" fill="none" opacity="0.45" stroke-width="1.2"/></g><g data-motif="petal" transform="translate(131 3) rotate(20 11 11) scale(0.1375)" opacity="0.35"><path d="M33 107Q20 43 93 27q41 64-16 99-32 11-44-19Z" fill="url(#ink-february-1-light)" opacity="1" stroke-width="1.3"/><path d="M38 108Q50 61 91 32" fill="none" opacity="0.45" stroke-width="1.2"/></g><g data-motif="petal" transform="translate(173 3) rotate(-20 11 11) scale(0.1375)" opacity="0.35"><path d="M33 107Q20 43 93 27q41 64-16 99-32 11-44-19Z" fill="url(#ink-february-1-light)" opacity="1" stroke-width="1.3"/><path d="M38 108Q50 61 91 32" fill="none" opacity="0.45" stroke-width="1.2"/></g><g data-motif="petal" transform="translate(3 170) rotate(-15 9 9) scale(0.1125)" opacity="0.25"><path d="M33 107Q20 43 93 27q41 64-16 99-32 11-44-19Z" fill="url(#ink-february-1-light)" opacity="1" stroke-width="1.3"/><path d="M38 108Q50 61 91 32" fill="none" opacity="0.45" stroke-width="1.2"/></g><g data-motif="petal" transform="translate(774 225) rotate(15 8.5 8.5) scale(0.10625)" opacity="0.22"><path d="M33 107Q20 43 93 27q41 64-16 99-32 11-44-19Z" fill="url(#ink-february-1-light)" opacity="1" stroke-width="1.3"/><path d="M38 108Q50 61 91 32" fill="none" opacity="0.45" stroke-width="1.2"/></g><g data-motif="petal" transform="translate(3 304) rotate(-15 9 9) scale(0.1125)" opacity="0.25"><path d="M33 107Q20 43 93 27q41 64-16 99-32 11-44-19Z" fill="url(#ink-february-1-light)" opacity="1" stroke-width="1.3"/><path d="M38 108Q50 61 91 32" fill="none" opacity="0.45" stroke-width="1.2"/></g><g data-motif="petal" transform="translate(774 359) rotate(15 8.5 8.5) scale(0.10625)" opacity="0.22"><path d="M33 107Q20 43 93 27q41 64-16 99-32 11-44-19Z" fill="url(#ink-february-1-light)" opacity="1" stroke-width="1.3"/><path d="M38 108Q50 61 91 32" fill="none" opacity="0.45" stroke-width="1.2"/></g><g data-motif="petal" transform="translate(3 438) rotate(-15 9 9) scale(0.1125)" opacity="0.25"><path d="M33 107Q20 43 93 27q41 64-16 99-32 11-44-19Z" fill="url(#ink-february-1-light)" opacity="1" stroke-width="1.3"/><path d="M38 108Q50 61 91 32" fill="none" opacity="0.45" stroke-width="1.2"/></g><g data-motif="petal" transform="translate(774 493) rotate(15 8.5 8.5) scale(0.10625)" opacity="0.22"><path d="M33 107Q20 43 93 27q41 64-16 99-32 11-44-19Z" fill="url(#ink-february-1-light)" opacity="1" stroke-width="1.3"/><path d="M38 108Q50 61 91 32" fill="none" opacity="0.45" stroke-width="1.2"/></g><g data-motif="petal" transform="translate(3 572) rotate(-15 9 9) scale(0.1125)" opacity="0.25"><path d="M33 107Q20 43 93 27q41 64-16 99-32 11-44-19Z" fill="url(#ink-february-1-light)" opacity="1" stroke-width="1.3"/><path d="M38 108Q50 61 91 32" fill="none" opacity="0.45" stroke-width="1.2"/></g><g data-motif="petal" transform="translate(774 627) rotate(15 8.5 8.5) scale(0.10625)" opacity="0.22"><path d="M33 107Q20 43 93 27q41 64-16 99-32 11-44-19Z" fill="url(#ink-february-1-light)" opacity="1" stroke-width="1.3"/><path d="M38 108Q50 61 91 32" fill="none" opacity="0.45" stroke-width="1.2"/></g><g data-motif="petal" transform="translate(3 706) rotate(-15 9 9) scale(0.1125)" opacity="0.25"><path d="M33 107Q20 43 93 27q41 64-16 99-32 11-44-19Z" fill="url(#ink-february-1-light)" opacity="1" stroke-width="1.3"/><path d="M38 108Q50 61 91 32" fill="none" opacity="0.45" stroke-width="1.2"/></g><g data-motif="petal" transform="translate(774 761) rotate(15 8.5 8.5) scale(0.10625)" opacity="0.22"><path d="M33 107Q20 43 93 27q41 64-16 99-32 11-44-19Z" fill="url(#ink-february-1-light)" opacity="1" stroke-width="1.3"/><path d="M38 108Q50 61 91 32" fill="none" opacity="0.45" stroke-width="1.2"/></g></g></svg>
