<svg xmlns="http://www.w3.org/2000/svg" width="794" height="1123" viewBox="0 0 794 1123" role="img" aria-labelledby="title-august-2"><title id="title-august-2">Avgust - Popodne u ležaljci</title><desc>Original seasonal vector motifs. Ornamental medallion. Open invoice content area.</desc><defs><linearGradient id="ink-august-2-accent" x1="0" y1="0" x2="0.8" y2="1"><stop offset="0" stop-color="#9bc2bf"/><stop offset="0.52" stop-color="#70a8a4"/><stop offset="1" stop-color="#6ea39f"/></linearGradient><linearGradient id="ink-august-2-light" x1="0" y1="0" x2="0.8" y2="1"><stop offset="0" stop-color="#f3f9f7"/><stop offset="0.52" stop-color="#e5f1ed"/><stop offset="1" stop-color="#d5e3df"/></linearGradient><linearGradient id="ink-august-2-deep" x1="0" y1="0" x2="0.8" y2="1"><stop offset="0" stop-color="#90a5a3"/><stop offset="0.52" stop-color="#617e7b"/><stop offset="1" stop-color="#617e7b"/></linearGradient><linearGradient id="ink-august-2-leaf" x1="0" y1="0" x2="0.8" y2="1"><stop offset="0" stop-color="#b2c4ac"/><stop offset="0.52" stop-color="#91ab88"/><stop offset="1" stop-color="#8ba686"/></linearGradient><linearGradient id="ink-august-2-gold" x1="0" y1="0" x2="0.8" y2="1"><stop offset="0" stop-color="#e4cfa3"/><stop offset="0.52" stop-color="#d9bb7c"/><stop offset="1" stop-color="#cbb47c"/></linearGradient><linearGradient id="ink-august-2-paper" x1="0" y1="0" x2="0.8" y2="1"><stop offset="0" stop-color="#fffcf5"/><stop offset="0.52" stop-color="#fffaf0"/><stop offset="1" stop-color="#fcf8ee"/></linearGradient><radialGradient id="wash-august-2"><stop offset="0" stop-color="#e5f1ed" stop-opacity="0.72"/><stop offset="0.65" stop-color="#e5f1ed" stop-opacity="0.3"/><stop offset="1" stop-color="#fffaf0" stop-opacity="0"/></radialGradient><linearGradient id="paper-august-2" x1="0" y1="0" x2="0" y2="1"><stop offset="0" stop-color="#ffffff"/><stop offset="0.78" stop-color="#ffffff"/><stop offset="1" stop-color="#fffaf0"/></linearGradient><mask id="safe-august-2"><rect width="794" height="1123" fill="white"/><rect x="29" y="87" width="736" height="780" rx="15" fill="black"/></mask></defs><rect width="794" height="1123" fill="url(#paper-august-2)"/><g stroke="#617e7b" stroke-width="1.2" stroke-linecap="round" stroke-linejoin="round" fill="none" mask="url(#safe-august-2)"><g stroke="none"><ellipse cx="370" cy="1027" rx="214" ry="134" fill="url(#wash-august-2)" opacity="1"/></g><g data-motif="coral" transform="translate(178 1002) rotate(-44 53.5 53.5) scale(0.66875)" opacity="0.75"><path d="M79 146V48M79 114L40 83V55M40 72L21 57V33M40 58l19-21V22M79 90l37-31V24M116 44l20-12M79 67L61 44M79 127l48-30 10-25M127 97v26M40 84L22 96" fill="none" opacity="0.85" stroke-width="4"/></g><g data-motif="coral" transform="translate(455 1002) rotate(42 53.5 53.5) scale(0.66875)" opacity="0.75"><path d="M79 146V48M79 114L40 83V55M40 72L21 57V33M40 58l19-21V22M79 90l37-31V24M116 44l20-12M79 67L61 44M79 127l48-30 10-25M127 97v26M40 84L22 96" fill="none" opacity="0.85" stroke-width="4"/></g><g data-motif="coral" transform="translate(40 1052) rotate(-30 53.5 53.5) scale(0.66875)" opacity="0.75"><path d="M79 146V48M79 114L40 83V55M40 72L21 57V33M40 58l19-21V22M79 90l37-31V24M116 44l20-12M79 67L61 44M79 127l48-30 10-25M127 97v26M40 84L22 96" fill="none" opacity="0.85" stroke-width="4"/></g><g data-motif="coral" transform="translate(649 1052) rotate(30 53.5 53.5) scale(0.66875)" opacity="0.75"><path d="M79 146V48M79 114L40 83V55M40 72L21 57V33M40 58l19-21V22M79 90l37-31V24M116 44l20-12M79 67L61 44M79 127l48-30 10-25M127 97v26M40 84L22 96" fill="none" opacity="0.85" stroke-width="4"/></g><ellipse cx="367" cy="1028" rx="171" ry="91" fill="none" opacity="0.35"/><ellipse cx="367" cy="1028" rx="180" ry="97" fill="none" opacity="0.2"/><g transform="translate(28 1024) " opacity="1"><path d="M0 0q39-21 77 0t77 0M8 0q19-15 31 0-12 15-23 1M146 0q-19-15-31 0 12 15 23 1" fill="none" opacity="0.65" stroke-width="0.8"/></g><g transform="translate(767 1024) scale(-1 1)" opacity="1"><path d="M0 0q39-21 77 0t77 0M8 0q19-15 31 0-12 15-23 1M146 0q-19-15-31 0 12 15 23 1" fill="none" opacity="0.65" stroke-width="0.8"/></g><path d="M22 1097H195M538 1097h234" fill="none" opacity="0.3" stroke-width="0.8"/><g data-motif="chair" transform="translate(280 930) rotate(0 95 95) scale(1.1875)" opacity="1"><path d="M31 39l29 62 70 10-7 12-75-13-34-67Z" fill="url(#ink-august-2-light)" opacity="1" stroke-width="1.3"/><path d="M25 39l48 102M132 109L39 143M32 58l52 0M42 78h61M52 98h70M33 41l61-16 38 82" fill="none" opacity="1" stroke-width="2"/><path d="M42 40l26 57M57 37l27 62M73 32l26 70M89 28l26 76" fill="none" opacity="0.5" stroke-width="1.2"/></g><g data-motif="parasol" transform="translate(171 989) rotate(-4 72.5 72.5) scale(0.90625)" opacity="1"><path d="M13 75a67 67 0 01134 0q-17-10-33 0-17-10-34 0-17-10-34 0-17-10-33 0Z" fill="url(#ink-august-2-light)" opacity="1" stroke-width="1.3"/><path d="M80 9Q48 36 46 75M80 9q32 27 34 66M80 10v135M57 145h46" fill="none" opacity="0.9" stroke-width="1.7"/><path d="M46 75q2-39 34-66v66Z" fill="url(#ink-august-2-accent)" opacity="0.45" stroke-width="1.3"/></g><g data-motif="sun" transform="translate(448 988) rotate(25 68.5 68.5) scale(0.85625)" opacity="1"><circle cx="80" cy="80" r="32" fill="url(#ink-august-2-gold)" opacity="0.85"/><circle cx="80" cy="80" r="24" fill="url(#ink-august-2-paper)" opacity="0.4"/><g transform="rotate(0 80 80)" opacity="1"><path d="M80 20V9" fill="none" opacity="0.85" stroke-width="1.8"/></g><g transform="rotate(22.5 80 80)" opacity="1"><path d="M80 20V9" fill="none" opacity="0.85" stroke-width="1"/></g><g transform="rotate(45 80 80)" opacity="1"><path d="M80 20V9" fill="none" opacity="0.85" stroke-width="1.8"/></g><g transform="rotate(67.5 80 80)" opacity="1"><path d="M80 20V9" fill="none" opacity="0.85" stroke-width="1"/></g><g transform="rotate(90 80 80)" opacity="1"><path d="M80 20V9" fill="none" opacity="0.85" stroke-width="1.8"/></g><g transform="rotate(112.5 80 80)" opacity="1"><path d="M80 20V9" fill="none" opacity="0.85" stroke-width="1"/></g><g transform="rotate(135 80 80)" opacity="1"><path d="M80 20V9" fill="none" opacity="0.85" stroke-width="1.8"/></g><g transform="rotate(157.5 80 80)" opacity="1"><path d="M80 20V9" fill="none" opacity="0.85" stroke-width="1"/></g><g transform="rotate(180 80 80)" opacity="1"><path d="M80 20V9" fill="none" opacity="0.85" stroke-width="1.8"/></g><g transform="rotate(202.5 80 80)" opacity="1"><path d="M80 20V9" fill="none" opacity="0.85" stroke-width="1"/></g><g transform="rotate(225 80 80)" opacity="1"><path d="M80 20V9" fill="none" opacity="0.85" stroke-width="1.8"/></g><g transform="rotate(247.5 80 80)" opacity="1"><path d="M80 20V9" fill="none" opacity="0.85" stroke-width="1"/></g><g transform="rotate(270 80 80)" opacity="1"><path d="M80 20V9" fill="none" opacity="0.85" stroke-width="1.8"/></g><g transform="rotate(292.5 80 80)" opacity="1"><path d="M80 20V9" fill="none" opacity="0.85" stroke-width="1"/></g><g transform="rotate(315 80 80)" opacity="1"><path d="M80 20V9" fill="none" opacity="0.85" stroke-width="1.8"/></g><g transform="rotate(337.5 80 80)" opacity="1"><path d="M80 20V9" fill="none" opacity="0.85" stroke-width="1"/></g></g><g data-motif="shell" transform="translate(33 1010) rotate(-9 62 62) scale(0.775)" opacity="1"><path d="M79 140L21 98C-8 51 43 5 79 25c37-20 88 26 59 73Z" fill="url(#ink-august-2-light)" opacity="1" stroke-width="1.3"/><path d="M79 140V27M79 140L36 37M79 140L22 63M79 140l43-103M79 140l57-77M79 140L58 26M79 140l22-114M68 137h22l9 10H59Z" fill="none" opacity="0.7" stroke-width="1.1"/></g><g data-motif="palm" transform="translate(612 1006) rotate(4 57 57) scale(0.7125)" opacity="1"><path d="M77 144q7-54 9-91h9q-2 46 0 91Z" fill="url(#ink-august-2-gold)" opacity="1" stroke-width="1.3"/><path d="M91 52Q38 3 14 60q35-20 77-8ZM91 52Q65-8 124 18q-18 0-33 34ZM91 52q65-36 60 19-29-31-60-19ZM91 52q48 12 39 52-12-31-39-52ZM91 52q-47 5-51 44 27-33 51-44Z" fill="url(#ink-august-2-leaf)" opacity="0.75" stroke-width="1.3"/><path d="M84 80h9M83 97h10M81 115h12M79 132h14" fill="none" opacity="0.5" stroke-width="1"/></g><g data-motif="parasol" transform="translate(203 1049) rotate(0 38.5 38.5) scale(0.48125)" opacity="1"><path d="M13 75a67 67 0 01134 0q-17-10-33 0-17-10-34 0-17-10-34 0-17-10-33 0Z" fill="url(#ink-august-2-light)" opacity="1" stroke-width="1.3"/><path d="M80 9Q48 36 46 75M80 9q32 27 34 66M80 10v135M57 145h46" fill="none" opacity="0.9" stroke-width="1.7"/><path d="M46 75q2-39 34-66v66Z" fill="url(#ink-august-2-accent)" opacity="0.45" stroke-width="1.3"/></g><g data-motif="sun" transform="translate(516 1050) rotate(-15 36 36) scale(0.45)" opacity="0.85"><circle cx="80" cy="80" r="32" fill="url(#ink-august-2-gold)" opacity="0.85"/><circle cx="80" cy="80" r="24" fill="url(#ink-august-2-paper)" opacity="0.4"/><g transform="rotate(0 80 80)" opacity="1"><path d="M80 20V9" fill="none" opacity="0.85" stroke-width="1.8"/></g><g transform="rotate(22.5 80 80)" opacity="1"><path d="M80 20V9" fill="none" opacity="0.85" stroke-width="1"/></g><g transform="rotate(45 80 80)" opacity="1"><path d="M80 20V9" fill="none" opacity="0.85" stroke-width="1.8"/></g><g transform="rotate(67.5 80 80)" opacity="1"><path d="M80 20V9" fill="none" opacity="0.85" stroke-width="1"/></g><g transform="rotate(90 80 80)" opacity="1"><path d="M80 20V9" fill="none" opacity="0.85" stroke-width="1.8"/></g><g transform="rotate(112.5 80 80)" opacity="1"><path d="M80 20V9" fill="none" opacity="0.85" stroke-width="1"/></g><g transform="rotate(135 80 80)" opacity="1"><path d="M80 20V9" fill="none" opacity="0.85" stroke-width="1.8"/></g><g transform="rotate(157.5 80 80)" opacity="1"><path d="M80 20V9" fill="none" opacity="0.85" stroke-width="1"/></g><g transform="rotate(180 80 80)" opacity="1"><path d="M80 20V9" fill="none" opacity="0.85" stroke-width="1.8"/></g><g transform="rotate(202.5 80 80)" opacity="1"><path d="M80 20V9" fill="none" opacity="0.85" stroke-width="1"/></g><g transform="rotate(225 80 80)" opacity="1"><path d="M80 20V9" fill="none" opacity="0.85" stroke-width="1.8"/></g><g transform="rotate(247.5 80 80)" opacity="1"><path d="M80 20V9" fill="none" opacity="0.85" stroke-width="1"/></g><g transform="rotate(270 80 80)" opacity="1"><path d="M80 20V9" fill="none" opacity="0.85" stroke-width="1.8"/></g><g transform="rotate(292.5 80 80)" opacity="1"><path d="M80 20V9" fill="none" opacity="0.85" stroke-width="1"/></g><g transform="rotate(315 80 80)" opacity="1"><path d="M80 20V9" fill="none" opacity="0.85" stroke-width="1.8"/></g><g transform="rotate(337.5 80 80)" opacity="1"><path d="M80 20V9" fill="none" opacity="0.85" stroke-width="1"/></g></g><g data-motif="shell" transform="translate(327 867) rotate(0 39.5 39.5) scale(0.49375)" opacity="0.85"><path d="M79 140L21 98C-8 51 43 5 79 25c37-20 88 26 59 73Z" fill="url(#ink-august-2-light)" opacity="1" stroke-width="1.3"/><path d="M79 140V27M79 140L36 37M79 140L22 63M79 140l43-103M79 140l57-77M79 140L58 26M79 140l22-114M68 137h22l9 10H59Z" fill="none" opacity="0.7" stroke-width="1.1"/></g><g data-motif="palm" transform="translate(354 1043) rotate(0 38 38) scale(0.475)" opacity="0.85"><path d="M77 144q7-54 9-91h9q-2 46 0 91Z" fill="url(#ink-august-2-gold)" opacity="1" stroke-width="1.3"/><path d="M91 52Q38 3 14 60q35-20 77-8ZM91 52Q65-8 124 18q-18 0-33 34ZM91 52q65-36 60 19-29-31-60-19ZM91 52q48 12 39 52-12-31-39-52ZM91 52q-47 5-51 44 27-33 51-44Z" fill="url(#ink-august-2-leaf)" opacity="0.75" stroke-width="1.3"/><path d="M84 80h9M83 97h10M81 115h12M79 132h14" fill="none" opacity="0.5" stroke-width="1"/></g><path d="M24.5 1087h5M27 1084.5v5" fill="none" opacity="0.6" stroke-width="0.8"/><path d="M105.5 1068h5M108 1065.5v5" fill="none" opacity="0.6" stroke-width="0.8"/><path d="M186.5 1049h5M189 1046.5v5" fill="none" opacity="0.6" stroke-width="0.8"/><path d="M267.5 1087h5M270 1084.5v5" fill="none" opacity="0.6" stroke-width="0.8"/><path d="M348.5 1068h5M351 1065.5v5" fill="none" opacity="0.6" stroke-width="0.8"/><path d="M429.5 1049h5M432 1046.5v5" fill="none" opacity="0.6" stroke-width="0.8"/><path d="M510.5 1087h5M513 1084.5v5" fill="none" opacity="0.6" stroke-width="0.8"/><path d="M591.5 1068h5M594 1065.5v5" fill="none" opacity="0.6" stroke-width="0.8"/><path d="M672.5 1049h5M675 1046.5v5" fill="none" opacity="0.6" stroke-width="0.8"/><path d="M753.5 1087h5M756 1084.5v5" fill="none" opacity="0.6" stroke-width="0.8"/><g data-motif="shell" transform="translate(84 963) rotate(-19 17.5 17.5) scale(0.21875)" opacity="0.65"><path d="M79 140L21 98C-8 51 43 5 79 25c37-20 88 26 59 73Z" fill="url(#ink-august-2-light)" opacity="1" stroke-width="1.3"/><path d="M79 140V27M79 140L36 37M79 140L22 63M79 140l43-103M79 140l57-77M79 140L58 26M79 140l22-114M68 137h22l9 10H59Z" fill="none" opacity="0.7" stroke-width="1.1"/></g><g data-motif="shell" transform="translate(231 1001) rotate(24 22.5 22.5) scale(0.28125)" opacity="0.65"><path d="M79 140L21 98C-8 51 43 5 79 25c37-20 88 26 59 73Z" fill="url(#ink-august-2-light)" opacity="1" stroke-width="1.3"/><path d="M79 140V27M79 140L36 37M79 140L22 63M79 140l43-103M79 140l57-77M79 140L58 26M79 140l22-114M68 137h22l9 10H59Z" fill="none" opacity="0.7" stroke-width="1.1"/></g><g data-motif="shell" transform="translate(378 925) rotate(-19 17.5 17.5) scale(0.21875)" opacity="0.65"><path d="M79 140L21 98C-8 51 43 5 79 25c37-20 88 26 59 73Z" fill="url(#ink-august-2-light)" opacity="1" stroke-width="1.3"/><path d="M79 140V27M79 140L36 37M79 140L22 63M79 140l43-103M79 140l57-77M79 140L58 26M79 140l22-114M68 137h22l9 10H59Z" fill="none" opacity="0.7" stroke-width="1.1"/></g><g data-motif="shell" transform="translate(525 963) rotate(24 22.5 22.5) scale(0.28125)" opacity="0.65"><path d="M79 140L21 98C-8 51 43 5 79 25c37-20 88 26 59 73Z" fill="url(#ink-august-2-light)" opacity="1" stroke-width="1.3"/><path d="M79 140V27M79 140L36 37M79 140L22 63M79 140l43-103M79 140l57-77M79 140L58 26M79 140l22-114M68 137h22l9 10H59Z" fill="none" opacity="0.7" stroke-width="1.1"/></g><g data-motif="shell" transform="translate(672 1001) rotate(-19 17.5 17.5) scale(0.21875)" opacity="0.65"><path d="M79 140L21 98C-8 51 43 5 79 25c37-20 88 26 59 73Z" fill="url(#ink-august-2-light)" opacity="1" stroke-width="1.3"/><path d="M79 140V27M79 140L36 37M79 140L22 63M79 140l43-103M79 140l57-77M79 140L58 26M79 140l22-114M68 137h22l9 10H59Z" fill="none" opacity="0.7" stroke-width="1.1"/></g><g transform="translate(190 14) " opacity="1"><path d="M0 0q39-21 77 0t77 0M8 0q19-15 31 0-12 15-23 1M146 0q-19-15-31 0 12 15 23 1" fill="none" opacity="0.65" stroke-width="0.8"/></g><g transform="translate(604 14) scale(-1 1)" opacity="1"><path d="M0 0q39-21 77 0t77 0M8 0q19-15 31 0-12 15-23 1M146 0q-19-15-31 0 12 15 23 1" fill="none" opacity="0.65" stroke-width="0.8"/></g><g data-motif="shell" transform="translate(381 0) rotate(0 15 15) scale(0.1875)" opacity="0.4"><path d="M79 140L21 98C-8 51 43 5 79 25c37-20 88 26 59 73Z" fill="url(#ink-august-2-light)" opacity="1" stroke-width="1.3"/><path d="M79 140V27M79 140L36 37M79 140L22 63M79 140l43-103M79 140l57-77M79 140L58 26M79 140l22-114M68 137h22l9 10H59Z" fill="none" opacity="0.7" stroke-width="1.1"/></g><g data-motif="shell" transform="translate(3 178) rotate(-15 9 9) scale(0.1125)" opacity="0.25"><path d="M79 140L21 98C-8 51 43 5 79 25c37-20 88 26 59 73Z" fill="url(#ink-august-2-light)" opacity="1" stroke-width="1.3"/><path d="M79 140V27M79 140L36 37M79 140L22 63M79 140l43-103M79 140l57-77M79 140L58 26M79 140l22-114M68 137h22l9 10H59Z" fill="none" opacity="0.7" stroke-width="1.1"/></g><g data-motif="shell" transform="translate(774 233) rotate(15 8.5 8.5) scale(0.10625)" opacity="0.22"><path d="M79 140L21 98C-8 51 43 5 79 25c37-20 88 26 59 73Z" fill="url(#ink-august-2-light)" opacity="1" stroke-width="1.3"/><path d="M79 140V27M79 140L36 37M79 140L22 63M79 140l43-103M79 140l57-77M79 140L58 26M79 140l22-114M68 137h22l9 10H59Z" fill="none" opacity="0.7" stroke-width="1.1"/></g><g data-motif="shell" transform="translate(3 312) rotate(-15 9 9) scale(0.1125)" opacity="0.25"><path d="M79 140L21 98C-8 51 43 5 79 25c37-20 88 26 59 73Z" fill="url(#ink-august-2-light)" opacity="1" stroke-width="1.3"/><path d="M79 140V27M79 140L36 37M79 140L22 63M79 140l43-103M79 140l57-77M79 140L58 26M79 140l22-114M68 137h22l9 10H59Z" fill="none" opacity="0.7" stroke-width="1.1"/></g><g data-motif="shell" transform="translate(774 367) rotate(15 8.5 8.5) scale(0.10625)" opacity="0.22"><path d="M79 140L21 98C-8 51 43 5 79 25c37-20 88 26 59 73Z" fill="url(#ink-august-2-light)" opacity="1" stroke-width="1.3"/><path d="M79 140V27M79 140L36 37M79 140L22 63M79 140l43-103M79 140l57-77M79 140L58 26M79 140l22-114M68 137h22l9 10H59Z" fill="none" opacity="0.7" stroke-width="1.1"/></g><g data-motif="shell" transform="translate(3 446) rotate(-15 9 9) scale(0.1125)" opacity="0.25"><path d="M79 140L21 98C-8 51 43 5 79 25c37-20 88 26 59 73Z" fill="url(#ink-august-2-light)" opacity="1" stroke-width="1.3"/><path d="M79 140V27M79 140L36 37M79 140L22 63M79 140l43-103M79 140l57-77M79 140L58 26M79 140l22-114M68 137h22l9 10H59Z" fill="none" opacity="0.7" stroke-width="1.1"/></g><g data-motif="shell" transform="translate(774 501) rotate(15 8.5 8.5) scale(0.10625)" opacity="0.22"><path d="M79 140L21 98C-8 51 43 5 79 25c37-20 88 26 59 73Z" fill="url(#ink-august-2-light)" opacity="1" stroke-width="1.3"/><path d="M79 140V27M79 140L36 37M79 140L22 63M79 140l43-103M79 140l57-77M79 140L58 26M79 140l22-114M68 137h22l9 10H59Z" fill="none" opacity="0.7" stroke-width="1.1"/></g><g data-motif="shell" transform="translate(3 580) rotate(-15 9 9) scale(0.1125)" opacity="0.25"><path d="M79 140L21 98C-8 51 43 5 79 25c37-20 88 26 59 73Z" fill="url(#ink-august-2-light)" opacity="1" stroke-width="1.3"/><path d="M79 140V27M79 140L36 37M79 140L22 63M79 140l43-103M79 140l57-77M79 140L58 26M79 140l22-114M68 137h22l9 10H59Z" fill="none" opacity="0.7" stroke-width="1.1"/></g><g data-motif="shell" transform="translate(774 635) rotate(15 8.5 8.5) scale(0.10625)" opacity="0.22"><path d="M79 140L21 98C-8 51 43 5 79 25c37-20 88 26 59 73Z" fill="url(#ink-august-2-light)" opacity="1" stroke-width="1.3"/><path d="M79 140V27M79 140L36 37M79 140L22 63M79 140l43-103M79 140l57-77M79 140L58 26M79 140l22-114M68 137h22l9 10H59Z" fill="none" opacity="0.7" stroke-width="1.1"/></g><g data-motif="shell" transform="translate(3 714) rotate(-15 9 9) scale(0.1125)" opacity="0.25"><path d="M79 140L21 98C-8 51 43 5 79 25c37-20 88 26 59 73Z" fill="url(#ink-august-2-light)" opacity="1" stroke-width="1.3"/><path d="M79 140V27M79 140L36 37M79 140L22 63M79 140l43-103M79 140l57-77M79 140L58 26M79 140l22-114M68 137h22l9 10H59Z" fill="none" opacity="0.7" stroke-width="1.1"/></g><g data-motif="shell" transform="translate(774 769) rotate(15 8.5 8.5) scale(0.10625)" opacity="0.22"><path d="M79 140L21 98C-8 51 43 5 79 25c37-20 88 26 59 73Z" fill="url(#ink-august-2-light)" opacity="1" stroke-width="1.3"/><path d="M79 140V27M79 140L36 37M79 140L22 63M79 140l43-103M79 140l57-77M79 140L58 26M79 140l22-114M68 137h22l9 10H59Z" fill="none" opacity="0.7" stroke-width="1.1"/></g></g></svg>
