<svg xmlns="http://www.w3.org/2000/svg" width="794" height="1123" viewBox="0 0 794 1123" role="img" aria-labelledby="title-september-2"><title id="title-september-2">Septembar - Jabuke u voćnjaku</title><desc>Original seasonal vector motifs. Ornamental medallion. Open invoice content area.</desc><defs><linearGradient id="ink-september-2-accent" x1="0" y1="0" x2="0.8" y2="1"><stop offset="0" stop-color="#bba8b3"/><stop offset="0.52" stop-color="#9e8292"/><stop offset="1" stop-color="#9a7e8a"/></linearGradient><linearGradient id="ink-september-2-light" x1="0" y1="0" x2="0.8" y2="1"><stop offset="0" stop-color="#f7f2eb"/><stop offset="0.52" stop-color="#ede3d2"/><stop offset="1" stop-color="#dfd4c2"/></linearGradient><linearGradient id="ink-september-2-deep" x1="0" y1="0" x2="0.8" y2="1"><stop offset="0" stop-color="#a19183"/><stop offset="0.52" stop-color="#79624e"/><stop offset="1" stop-color="#79624e"/></linearGradient><linearGradient id="ink-september-2-leaf" x1="0" y1="0" x2="0.8" y2="1"><stop offset="0" stop-color="#b2b39e"/><stop offset="0.52" stop-color="#919374"/><stop offset="1" stop-color="#8e8d6f"/></linearGradient><linearGradient id="ink-september-2-gold" x1="0" y1="0" x2="0.8" y2="1"><stop offset="0" stop-color="#d4bf99"/><stop offset="0.52" stop-color="#c1a46d"/><stop offset="1" stop-color="#b89c69"/></linearGradient><linearGradient id="ink-september-2-paper" x1="0" y1="0" x2="0.8" y2="1"><stop offset="0" stop-color="#fffdf7"/><stop offset="0.52" stop-color="#fffcf4"/><stop offset="1" stop-color="#fcf9f1"/></linearGradient><radialGradient id="wash-september-2"><stop offset="0" stop-color="#ede3d2" stop-opacity="0.72"/><stop offset="0.65" stop-color="#ede3d2" stop-opacity="0.3"/><stop offset="1" stop-color="#fffcf4" stop-opacity="0"/></radialGradient><linearGradient id="paper-september-2" x1="0" y1="0" x2="0" y2="1"><stop offset="0" stop-color="#ffffff"/><stop offset="0.78" stop-color="#ffffff"/><stop offset="1" stop-color="#fffcf4"/></linearGradient><mask id="safe-september-2"><rect width="794" height="1123" fill="white"/><rect x="29" y="87" width="736" height="780" rx="15" fill="black"/></mask></defs><rect width="794" height="1123" fill="url(#paper-september-2)"/><g stroke="#79624e" stroke-width="1.2" stroke-linecap="round" stroke-linejoin="round" fill="none" mask="url(#safe-september-2)"><g stroke="none"><ellipse cx="370" cy="1027" rx="214" ry="134" fill="url(#wash-september-2)" opacity="1"/></g><g data-motif="vine" transform="translate(178 1002) rotate(-44 53.5 53.5) scale(0.66875)" opacity="0.75"><path d="M22 136Q48 35 135 20M61 71q-18-35-36-13 9 28 36 13ZM95 38q5-36 32-26-1 27-32 26ZM42 100q25-25 39-5-14 21-39 5Z" fill="url(#ink-september-2-leaf)" opacity="0.65" stroke-width="1.3"/><path d="M80 50q25-17 27 1 0 13-13 11M58 88q-16-3-19 15" fill="none" opacity="0.75" stroke-width="1.2"/></g><g data-motif="vine" transform="translate(455 1002) rotate(42 53.5 53.5) scale(0.66875)" opacity="0.75"><path d="M22 136Q48 35 135 20M61 71q-18-35-36-13 9 28 36 13ZM95 38q5-36 32-26-1 27-32 26ZM42 100q25-25 39-5-14 21-39 5Z" fill="url(#ink-september-2-leaf)" opacity="0.65" stroke-width="1.3"/><path d="M80 50q25-17 27 1 0 13-13 11M58 88q-16-3-19 15" fill="none" opacity="0.75" stroke-width="1.2"/></g><g data-motif="vine" transform="translate(40 1052) rotate(-30 53.5 53.5) scale(0.66875)" opacity="0.75"><path d="M22 136Q48 35 135 20M61 71q-18-35-36-13 9 28 36 13ZM95 38q5-36 32-26-1 27-32 26ZM42 100q25-25 39-5-14 21-39 5Z" fill="url(#ink-september-2-leaf)" opacity="0.65" stroke-width="1.3"/><path d="M80 50q25-17 27 1 0 13-13 11M58 88q-16-3-19 15" fill="none" opacity="0.75" stroke-width="1.2"/></g><g data-motif="vine" transform="translate(649 1052) rotate(30 53.5 53.5) scale(0.66875)" opacity="0.75"><path d="M22 136Q48 35 135 20M61 71q-18-35-36-13 9 28 36 13ZM95 38q5-36 32-26-1 27-32 26ZM42 100q25-25 39-5-14 21-39 5Z" fill="url(#ink-september-2-leaf)" opacity="0.65" stroke-width="1.3"/><path d="M80 50q25-17 27 1 0 13-13 11M58 88q-16-3-19 15" fill="none" opacity="0.75" stroke-width="1.2"/></g><ellipse cx="367" cy="1028" rx="171" ry="91" fill="none" opacity="0.35"/><ellipse cx="367" cy="1028" rx="180" ry="97" fill="none" opacity="0.2"/><g transform="translate(28 1024) " opacity="1"><path d="M0 0q39-21 77 0t77 0M8 0q19-15 31 0-12 15-23 1M146 0q-19-15-31 0 12 15 23 1" fill="none" opacity="0.65" stroke-width="0.8"/></g><g transform="translate(767 1024) scale(-1 1)" opacity="1"><path d="M0 0q39-21 77 0t77 0M8 0q19-15 31 0-12 15-23 1M146 0q-19-15-31 0 12 15 23 1" fill="none" opacity="0.65" stroke-width="0.8"/></g><path d="M22 1097H195M538 1097h234" fill="none" opacity="0.3" stroke-width="0.8"/><g data-motif="apple" transform="translate(280 930) rotate(0 95 95) scale(1.1875)" opacity="1"><path d="M79 52C29 22 11 69 26 111q17 38 53 24 26 8 40-13 28-46-40-70Z" fill="url(#ink-september-2-gold)" opacity="0.85" stroke-width="1.3"/><path d="M80 51q-2-20 13-31M85 33q20-27 44-12-10 26-44 12Z" fill="url(#ink-september-2-leaf)" opacity="1" stroke-width="1.3"/><path d="M41 68q-16 29 2 47" fill="none" opacity="0.5" stroke-width="1.2"/></g><g data-motif="basket" transform="translate(171 989) rotate(-4 72.5 72.5) scale(0.90625)" opacity="1"><path d="M26 82h108l-14 61H40Z" fill="url(#ink-september-2-gold)" opacity="0.6" stroke-width="1.3"/><path d="M32 79q0-59 48-59t48 59M41 76q0-46 39-46t39 46" fill="none" opacity="0.9" stroke-width="2.1"/><path d="M28 94h104M31 106h98M34 118h92M37 130h86M47 83l6 59M65 83l3 59M83 83v59M102 83l-4 59M120 83l-7 59" fill="none" opacity="0.55" stroke-width="1"/></g><g data-motif="tree" transform="translate(448 988) rotate(4 68.5 68.5) scale(0.85625)" opacity="1"><path d="M77 145V71M84 145V82M79 112L47 86M81 96l30-31" fill="url(#ink-september-2-gold)" opacity="1" stroke-width="1.3"/><path d="M30 82Q7 44 42 34q0-31 34-19 31-15 40 14 40 6 24 42 9 35-30 33-38 27-59-1-26 8-21-21Z" fill="url(#ink-september-2-leaf)" opacity="0.55" stroke-width="1.3"/><g transform="translate(22 25) scale(.3)" opacity="1"><g transform="rotate(0 80 80)" opacity="1"><path d="M80 77C52 60 49 21 73 19 97 17 102 52 80 77Z" fill="url(#ink-september-2-light)" opacity="1" stroke-width="1.3"/><path d="M80 72Q67 42 73 25" fill="none" opacity="0.35" stroke-width="0.8"/></g><g transform="rotate(72 80 80)" opacity="1"><path d="M80 77C52 60 49 21 73 19 97 17 102 52 80 77Z" fill="url(#ink-september-2-light)" opacity="1" stroke-width="1.3"/><path d="M80 72Q67 42 73 25" fill="none" opacity="0.35" stroke-width="0.8"/></g><g transform="rotate(144 80 80)" opacity="1"><path d="M80 77C52 60 49 21 73 19 97 17 102 52 80 77Z" fill="url(#ink-september-2-light)" opacity="1" stroke-width="1.3"/><path d="M80 72Q67 42 73 25" fill="none" opacity="0.35" stroke-width="0.8"/></g><g transform="rotate(216 80 80)" opacity="1"><path d="M80 77C52 60 49 21 73 19 97 17 102 52 80 77Z" fill="url(#ink-september-2-light)" opacity="1" stroke-width="1.3"/><path d="M80 72Q67 42 73 25" fill="none" opacity="0.35" stroke-width="0.8"/></g><g transform="rotate(288 80 80)" opacity="1"><path d="M80 77C52 60 49 21 73 19 97 17 102 52 80 77Z" fill="url(#ink-september-2-light)" opacity="1" stroke-width="1.3"/><path d="M80 72Q67 42 73 25" fill="none" opacity="0.35" stroke-width="0.8"/></g><circle cx="80" cy="80" r="13" fill="url(#ink-september-2-gold)" opacity="1"/><circle cx="80" cy="80" r="7" fill="url(#ink-september-2-paper)" opacity="1"/><circle cx="90" cy="80" r="1" fill="url(#ink-september-2-deep)" opacity="1"/><circle cx="88.09204180988033" cy="85.87527525713892" r="1" fill="url(#ink-september-2-deep)" opacity="1"/><circle cx="83.09622813057024" cy="89.5085946050647" r="1" fill="url(#ink-september-2-deep)" opacity="1"/><circle cx="76.91891968722008" cy="89.51351376233829" r="1" fill="url(#ink-september-2-deep)" opacity="1"/><circle cx="71.9173257273069" cy="85.88815561967795" r="1" fill="url(#ink-september-2-deep)" opacity="1"/><circle cx="70.0000126827246" cy="80.01592652916487" r="1" fill="url(#ink-september-2-deep)" opacity="1"/><circle cx="71.89861117876" cy="74.13762000829973" r="1" fill="url(#ink-september-2-deep)" opacity="1"/><circle cx="76.88863190536118" cy="70.49634867118624" r="1" fill="url(#ink-september-2-deep)" opacity="1"/><circle cx="83.065924679691" cy="70.48159121184314" r="1" fill="url(#ink-september-2-deep)" opacity="1"/><circle cx="88.0732862334395" cy="74.09897895335425" r="1" fill="url(#ink-september-2-deep)" opacity="1"/></g><g transform="translate(61 7) scale(.32)" opacity="1"><g transform="rotate(0 80 80)" opacity="1"><path d="M80 77C52 60 49 21 73 19 97 17 102 52 80 77Z" fill="url(#ink-september-2-light)" opacity="1" stroke-width="1.3"/><path d="M80 72Q67 42 73 25" fill="none" opacity="0.35" stroke-width="0.8"/></g><g transform="rotate(72 80 80)" opacity="1"><path d="M80 77C52 60 49 21 73 19 97 17 102 52 80 77Z" fill="url(#ink-september-2-light)" opacity="1" stroke-width="1.3"/><path d="M80 72Q67 42 73 25" fill="none" opacity="0.35" stroke-width="0.8"/></g><g transform="rotate(144 80 80)" opacity="1"><path d="M80 77C52 60 49 21 73 19 97 17 102 52 80 77Z" fill="url(#ink-september-2-light)" opacity="1" stroke-width="1.3"/><path d="M80 72Q67 42 73 25" fill="none" opacity="0.35" stroke-width="0.8"/></g><g transform="rotate(216 80 80)" opacity="1"><path d="M80 77C52 60 49 21 73 19 97 17 102 52 80 77Z" fill="url(#ink-september-2-light)" opacity="1" stroke-width="1.3"/><path d="M80 72Q67 42 73 25" fill="none" opacity="0.35" stroke-width="0.8"/></g><g transform="rotate(288 80 80)" opacity="1"><path d="M80 77C52 60 49 21 73 19 97 17 102 52 80 77Z" fill="url(#ink-september-2-light)" opacity="1" stroke-width="1.3"/><path d="M80 72Q67 42 73 25" fill="none" opacity="0.35" stroke-width="0.8"/></g><circle cx="80" cy="80" r="13" fill="url(#ink-september-2-gold)" opacity="1"/><circle cx="80" cy="80" r="7" fill="url(#ink-september-2-paper)" opacity="1"/><circle cx="90" cy="80" r="1" fill="url(#ink-september-2-deep)" opacity="1"/><circle cx="88.09204180988033" cy="85.87527525713892" r="1" fill="url(#ink-september-2-deep)" opacity="1"/><circle cx="83.09622813057024" cy="89.5085946050647" r="1" fill="url(#ink-september-2-deep)" opacity="1"/><circle cx="76.91891968722008" cy="89.51351376233829" r="1" fill="url(#ink-september-2-deep)" opacity="1"/><circle cx="71.9173257273069" cy="85.88815561967795" r="1" fill="url(#ink-september-2-deep)" opacity="1"/><circle cx="70.0000126827246" cy="80.01592652916487" r="1" fill="url(#ink-september-2-deep)" opacity="1"/><circle cx="71.89861117876" cy="74.13762000829973" r="1" fill="url(#ink-september-2-deep)" opacity="1"/><circle cx="76.88863190536118" cy="70.49634867118624" r="1" fill="url(#ink-september-2-deep)" opacity="1"/><circle cx="83.065924679691" cy="70.48159121184314" r="1" fill="url(#ink-september-2-deep)" opacity="1"/><circle cx="88.0732862334395" cy="74.09897895335425" r="1" fill="url(#ink-september-2-deep)" opacity="1"/></g><g transform="translate(90 52) scale(.24)" opacity="1"><g transform="rotate(0 80 80)" opacity="1"><path d="M80 77C52 60 49 21 73 19 97 17 102 52 80 77Z" fill="url(#ink-september-2-light)" opacity="1" stroke-width="1.3"/><path d="M80 72Q67 42 73 25" fill="none" opacity="0.35" stroke-width="0.8"/></g><g transform="rotate(72 80 80)" opacity="1"><path d="M80 77C52 60 49 21 73 19 97 17 102 52 80 77Z" fill="url(#ink-september-2-light)" opacity="1" stroke-width="1.3"/><path d="M80 72Q67 42 73 25" fill="none" opacity="0.35" stroke-width="0.8"/></g><g transform="rotate(144 80 80)" opacity="1"><path d="M80 77C52 60 49 21 73 19 97 17 102 52 80 77Z" fill="url(#ink-september-2-light)" opacity="1" stroke-width="1.3"/><path d="M80 72Q67 42 73 25" fill="none" opacity="0.35" stroke-width="0.8"/></g><g transform="rotate(216 80 80)" opacity="1"><path d="M80 77C52 60 49 21 73 19 97 17 102 52 80 77Z" fill="url(#ink-september-2-light)" opacity="1" stroke-width="1.3"/><path d="M80 72Q67 42 73 25" fill="none" opacity="0.35" stroke-width="0.8"/></g><g transform="rotate(288 80 80)" opacity="1"><path d="M80 77C52 60 49 21 73 19 97 17 102 52 80 77Z" fill="url(#ink-september-2-light)" opacity="1" stroke-width="1.3"/><path d="M80 72Q67 42 73 25" fill="none" opacity="0.35" stroke-width="0.8"/></g><circle cx="80" cy="80" r="13" fill="url(#ink-september-2-gold)" opacity="1"/><circle cx="80" cy="80" r="7" fill="url(#ink-september-2-paper)" opacity="1"/><circle cx="90" cy="80" r="1" fill="url(#ink-september-2-deep)" opacity="1"/><circle cx="88.09204180988033" cy="85.87527525713892" r="1" fill="url(#ink-september-2-deep)" opacity="1"/><circle cx="83.09622813057024" cy="89.5085946050647" r="1" fill="url(#ink-september-2-deep)" opacity="1"/><circle cx="76.91891968722008" cy="89.51351376233829" r="1" fill="url(#ink-september-2-deep)" opacity="1"/><circle cx="71.9173257273069" cy="85.88815561967795" r="1" fill="url(#ink-september-2-deep)" opacity="1"/><circle cx="70.0000126827246" cy="80.01592652916487" r="1" fill="url(#ink-september-2-deep)" opacity="1"/><circle cx="71.89861117876" cy="74.13762000829973" r="1" fill="url(#ink-september-2-deep)" opacity="1"/><circle cx="76.88863190536118" cy="70.49634867118624" r="1" fill="url(#ink-september-2-deep)" opacity="1"/><circle cx="83.065924679691" cy="70.48159121184314" r="1" fill="url(#ink-september-2-deep)" opacity="1"/><circle cx="88.0732862334395" cy="74.09897895335425" r="1" fill="url(#ink-september-2-deep)" opacity="1"/></g></g><g data-motif="sprig" transform="translate(33 1010) rotate(-9 62 62) scale(0.775)" opacity="1"><path d="M80 151Q57 93 96 12" fill="none" opacity="0.85" stroke-width="1.2"/><g transform="translate(76 139) rotate(-72) scale(.7)" opacity="1"><path d="M0 0C-21-9-24-31-10-43 7-32 16-12 0 0Z" fill="url(#ink-september-2-leaf)" opacity="0.7" stroke-width="1.3"/><path d="M0 0L-10-37M-5-17l-11-9M-7-26l7-9" fill="none" opacity="0.65" stroke-width="0.9"/></g><g transform="translate(78 120) rotate(62) scale(.7)" opacity="1"><path d="M0 0C-21-9-24-31-10-43 7-32 16-12 0 0Z" fill="url(#ink-september-2-leaf)" opacity="0.7" stroke-width="1.3"/><path d="M0 0L-10-37M-5-17l-11-9M-7-26l7-9" fill="none" opacity="0.65" stroke-width="0.9"/></g><g transform="translate(80 101) rotate(-72) scale(.7)" opacity="1"><path d="M0 0C-21-9-24-31-10-43 7-32 16-12 0 0Z" fill="url(#ink-september-2-leaf)" opacity="0.7" stroke-width="1.3"/><path d="M0 0L-10-37M-5-17l-11-9M-7-26l7-9" fill="none" opacity="0.65" stroke-width="0.9"/></g><g transform="translate(82 82) rotate(62) scale(.7)" opacity="1"><path d="M0 0C-21-9-24-31-10-43 7-32 16-12 0 0Z" fill="url(#ink-september-2-leaf)" opacity="0.7" stroke-width="1.3"/><path d="M0 0L-10-37M-5-17l-11-9M-7-26l7-9" fill="none" opacity="0.65" stroke-width="0.9"/></g><g transform="translate(84 63) rotate(-72) scale(.7)" opacity="1"><path d="M0 0C-21-9-24-31-10-43 7-32 16-12 0 0Z" fill="url(#ink-september-2-leaf)" opacity="0.7" stroke-width="1.3"/><path d="M0 0L-10-37M-5-17l-11-9M-7-26l7-9" fill="none" opacity="0.65" stroke-width="0.9"/></g><g transform="translate(86 44) rotate(62) scale(.7)" opacity="1"><path d="M0 0C-21-9-24-31-10-43 7-32 16-12 0 0Z" fill="url(#ink-september-2-leaf)" opacity="0.7" stroke-width="1.3"/><path d="M0 0L-10-37M-5-17l-11-9M-7-26l7-9" fill="none" opacity="0.65" stroke-width="0.9"/></g></g><g data-motif="pear" transform="translate(612 1006) rotate(4 57 57) scale(0.7125)" opacity="1"><path d="M76 26q-15 0-18 28-4 18-21 41-25 48 42 49 67-1 42-49-17-23-21-41-3-28-24-28Z" fill="url(#ink-september-2-gold)" opacity="0.7" stroke-width="1.3"/><path d="M76 27q-2-15 11-21M83 20q25-20 40-4-18 22-40 4Z" fill="url(#ink-september-2-leaf)" opacity="1" stroke-width="1.3"/><path d="M53 89q-18 33 4 41" fill="none" opacity="0.5" stroke-width="1"/></g><g data-motif="basket" transform="translate(203 1049) rotate(0 38.5 38.5) scale(0.48125)" opacity="1"><path d="M26 82h108l-14 61H40Z" fill="url(#ink-september-2-gold)" opacity="0.6" stroke-width="1.3"/><path d="M32 79q0-59 48-59t48 59M41 76q0-46 39-46t39 46" fill="none" opacity="0.9" stroke-width="2.1"/><path d="M28 94h104M31 106h98M34 118h92M37 130h86M47 83l6 59M65 83l3 59M83 83v59M102 83l-4 59M120 83l-7 59" fill="none" opacity="0.55" stroke-width="1"/></g><g data-motif="tree" transform="translate(516 1050) rotate(-15 36 36) scale(0.45)" opacity="0.85"><path d="M77 145V71M84 145V82M79 112L47 86M81 96l30-31" fill="url(#ink-september-2-gold)" opacity="1" stroke-width="1.3"/><path d="M30 82Q7 44 42 34q0-31 34-19 31-15 40 14 40 6 24 42 9 35-30 33-38 27-59-1-26 8-21-21Z" fill="url(#ink-september-2-leaf)" opacity="0.55" stroke-width="1.3"/><g transform="translate(22 25) scale(.3)" opacity="1"><g transform="rotate(0 80 80)" opacity="1"><path d="M80 77C52 60 49 21 73 19 97 17 102 52 80 77Z" fill="url(#ink-september-2-light)" opacity="1" stroke-width="1.3"/><path d="M80 72Q67 42 73 25" fill="none" opacity="0.35" stroke-width="0.8"/></g><g transform="rotate(72 80 80)" opacity="1"><path d="M80 77C52 60 49 21 73 19 97 17 102 52 80 77Z" fill="url(#ink-september-2-light)" opacity="1" stroke-width="1.3"/><path d="M80 72Q67 42 73 25" fill="none" opacity="0.35" stroke-width="0.8"/></g><g transform="rotate(144 80 80)" opacity="1"><path d="M80 77C52 60 49 21 73 19 97 17 102 52 80 77Z" fill="url(#ink-september-2-light)" opacity="1" stroke-width="1.3"/><path d="M80 72Q67 42 73 25" fill="none" opacity="0.35" stroke-width="0.8"/></g><g transform="rotate(216 80 80)" opacity="1"><path d="M80 77C52 60 49 21 73 19 97 17 102 52 80 77Z" fill="url(#ink-september-2-light)" opacity="1" stroke-width="1.3"/><path d="M80 72Q67 42 73 25" fill="none" opacity="0.35" stroke-width="0.8"/></g><g transform="rotate(288 80 80)" opacity="1"><path d="M80 77C52 60 49 21 73 19 97 17 102 52 80 77Z" fill="url(#ink-september-2-light)" opacity="1" stroke-width="1.3"/><path d="M80 72Q67 42 73 25" fill="none" opacity="0.35" stroke-width="0.8"/></g><circle cx="80" cy="80" r="13" fill="url(#ink-september-2-gold)" opacity="1"/><circle cx="80" cy="80" r="7" fill="url(#ink-september-2-paper)" opacity="1"/><circle cx="90" cy="80" r="1" fill="url(#ink-september-2-deep)" opacity="1"/><circle cx="88.09204180988033" cy="85.87527525713892" r="1" fill="url(#ink-september-2-deep)" opacity="1"/><circle cx="83.09622813057024" cy="89.5085946050647" r="1" fill="url(#ink-september-2-deep)" opacity="1"/><circle cx="76.91891968722008" cy="89.51351376233829" r="1" fill="url(#ink-september-2-deep)" opacity="1"/><circle cx="71.9173257273069" cy="85.88815561967795" r="1" fill="url(#ink-september-2-deep)" opacity="1"/><circle cx="70.0000126827246" cy="80.01592652916487" r="1" fill="url(#ink-september-2-deep)" opacity="1"/><circle cx="71.89861117876" cy="74.13762000829973" r="1" fill="url(#ink-september-2-deep)" opacity="1"/><circle cx="76.88863190536118" cy="70.49634867118624" r="1" fill="url(#ink-september-2-deep)" opacity="1"/><circle cx="83.065924679691" cy="70.48159121184314" r="1" fill="url(#ink-september-2-deep)" opacity="1"/><circle cx="88.0732862334395" cy="74.09897895335425" r="1" fill="url(#ink-september-2-deep)" opacity="1"/></g><g transform="translate(61 7) scale(.32)" opacity="1"><g transform="rotate(0 80 80)" opacity="1"><path d="M80 77C52 60 49 21 73 19 97 17 102 52 80 77Z" fill="url(#ink-september-2-light)" opacity="1" stroke-width="1.3"/><path d="M80 72Q67 42 73 25" fill="none" opacity="0.35" stroke-width="0.8"/></g><g transform="rotate(72 80 80)" opacity="1"><path d="M80 77C52 60 49 21 73 19 97 17 102 52 80 77Z" fill="url(#ink-september-2-light)" opacity="1" stroke-width="1.3"/><path d="M80 72Q67 42 73 25" fill="none" opacity="0.35" stroke-width="0.8"/></g><g transform="rotate(144 80 80)" opacity="1"><path d="M80 77C52 60 49 21 73 19 97 17 102 52 80 77Z" fill="url(#ink-september-2-light)" opacity="1" stroke-width="1.3"/><path d="M80 72Q67 42 73 25" fill="none" opacity="0.35" stroke-width="0.8"/></g><g transform="rotate(216 80 80)" opacity="1"><path d="M80 77C52 60 49 21 73 19 97 17 102 52 80 77Z" fill="url(#ink-september-2-light)" opacity="1" stroke-width="1.3"/><path d="M80 72Q67 42 73 25" fill="none" opacity="0.35" stroke-width="0.8"/></g><g transform="rotate(288 80 80)" opacity="1"><path d="M80 77C52 60 49 21 73 19 97 17 102 52 80 77Z" fill="url(#ink-september-2-light)" opacity="1" stroke-width="1.3"/><path d="M80 72Q67 42 73 25" fill="none" opacity="0.35" stroke-width="0.8"/></g><circle cx="80" cy="80" r="13" fill="url(#ink-september-2-gold)" opacity="1"/><circle cx="80" cy="80" r="7" fill="url(#ink-september-2-paper)" opacity="1"/><circle cx="90" cy="80" r="1" fill="url(#ink-september-2-deep)" opacity="1"/><circle cx="88.09204180988033" cy="85.87527525713892" r="1" fill="url(#ink-september-2-deep)" opacity="1"/><circle cx="83.09622813057024" cy="89.5085946050647" r="1" fill="url(#ink-september-2-deep)" opacity="1"/><circle cx="76.91891968722008" cy="89.51351376233829" r="1" fill="url(#ink-september-2-deep)" opacity="1"/><circle cx="71.9173257273069" cy="85.88815561967795" r="1" fill="url(#ink-september-2-deep)" opacity="1"/><circle cx="70.0000126827246" cy="80.01592652916487" r="1" fill="url(#ink-september-2-deep)" opacity="1"/><circle cx="71.89861117876" cy="74.13762000829973" r="1" fill="url(#ink-september-2-deep)" opacity="1"/><circle cx="76.88863190536118" cy="70.49634867118624" r="1" fill="url(#ink-september-2-deep)" opacity="1"/><circle cx="83.065924679691" cy="70.48159121184314" r="1" fill="url(#ink-september-2-deep)" opacity="1"/><circle cx="88.0732862334395" cy="74.09897895335425" r="1" fill="url(#ink-september-2-deep)" opacity="1"/></g><g transform="translate(90 52) scale(.24)" opacity="1"><g transform="rotate(0 80 80)" opacity="1"><path d="M80 77C52 60 49 21 73 19 97 17 102 52 80 77Z" fill="url(#ink-september-2-light)" opacity="1" stroke-width="1.3"/><path d="M80 72Q67 42 73 25" fill="none" opacity="0.35" stroke-width="0.8"/></g><g transform="rotate(72 80 80)" opacity="1"><path d="M80 77C52 60 49 21 73 19 97 17 102 52 80 77Z" fill="url(#ink-september-2-light)" opacity="1" stroke-width="1.3"/><path d="M80 72Q67 42 73 25" fill="none" opacity="0.35" stroke-width="0.8"/></g><g transform="rotate(144 80 80)" opacity="1"><path d="M80 77C52 60 49 21 73 19 97 17 102 52 80 77Z" fill="url(#ink-september-2-light)" opacity="1" stroke-width="1.3"/><path d="M80 72Q67 42 73 25" fill="none" opacity="0.35" stroke-width="0.8"/></g><g transform="rotate(216 80 80)" opacity="1"><path d="M80 77C52 60 49 21 73 19 97 17 102 52 80 77Z" fill="url(#ink-september-2-light)" opacity="1" stroke-width="1.3"/><path d="M80 72Q67 42 73 25" fill="none" opacity="0.35" stroke-width="0.8"/></g><g transform="rotate(288 80 80)" opacity="1"><path d="M80 77C52 60 49 21 73 19 97 17 102 52 80 77Z" fill="url(#ink-september-2-light)" opacity="1" stroke-width="1.3"/><path d="M80 72Q67 42 73 25" fill="none" opacity="0.35" stroke-width="0.8"/></g><circle cx="80" cy="80" r="13" fill="url(#ink-september-2-gold)" opacity="1"/><circle cx="80" cy="80" r="7" fill="url(#ink-september-2-paper)" opacity="1"/><circle cx="90" cy="80" r="1" fill="url(#ink-september-2-deep)" opacity="1"/><circle cx="88.09204180988033" cy="85.87527525713892" r="1" fill="url(#ink-september-2-deep)" opacity="1"/><circle cx="83.09622813057024" cy="89.5085946050647" r="1" fill="url(#ink-september-2-deep)" opacity="1"/><circle cx="76.91891968722008" cy="89.51351376233829" r="1" fill="url(#ink-september-2-deep)" opacity="1"/><circle cx="71.9173257273069" cy="85.88815561967795" r="1" fill="url(#ink-september-2-deep)" opacity="1"/><circle cx="70.0000126827246" cy="80.01592652916487" r="1" fill="url(#ink-september-2-deep)" opacity="1"/><circle cx="71.89861117876" cy="74.13762000829973" r="1" fill="url(#ink-september-2-deep)" opacity="1"/><circle cx="76.88863190536118" cy="70.49634867118624" r="1" fill="url(#ink-september-2-deep)" opacity="1"/><circle cx="83.065924679691" cy="70.48159121184314" r="1" fill="url(#ink-september-2-deep)" opacity="1"/><circle cx="88.0732862334395" cy="74.09897895335425" r="1" fill="url(#ink-september-2-deep)" opacity="1"/></g></g><g data-motif="sprig" transform="translate(327 867) rotate(0 39.5 39.5) scale(0.49375)" opacity="0.85"><path d="M80 151Q57 93 96 12" fill="none" opacity="0.85" stroke-width="1.2"/><g transform="translate(76 139) rotate(-72) scale(.7)" opacity="1"><path d="M0 0C-21-9-24-31-10-43 7-32 16-12 0 0Z" fill="url(#ink-september-2-leaf)" opacity="0.7" stroke-width="1.3"/><path d="M0 0L-10-37M-5-17l-11-9M-7-26l7-9" fill="none" opacity="0.65" stroke-width="0.9"/></g><g transform="translate(78 120) rotate(62) scale(.7)" opacity="1"><path d="M0 0C-21-9-24-31-10-43 7-32 16-12 0 0Z" fill="url(#ink-september-2-leaf)" opacity="0.7" stroke-width="1.3"/><path d="M0 0L-10-37M-5-17l-11-9M-7-26l7-9" fill="none" opacity="0.65" stroke-width="0.9"/></g><g transform="translate(80 101) rotate(-72) scale(.7)" opacity="1"><path d="M0 0C-21-9-24-31-10-43 7-32 16-12 0 0Z" fill="url(#ink-september-2-leaf)" opacity="0.7" stroke-width="1.3"/><path d="M0 0L-10-37M-5-17l-11-9M-7-26l7-9" fill="none" opacity="0.65" stroke-width="0.9"/></g><g transform="translate(82 82) rotate(62) scale(.7)" opacity="1"><path d="M0 0C-21-9-24-31-10-43 7-32 16-12 0 0Z" fill="url(#ink-september-2-leaf)" opacity="0.7" stroke-width="1.3"/><path d="M0 0L-10-37M-5-17l-11-9M-7-26l7-9" fill="none" opacity="0.65" stroke-width="0.9"/></g><g transform="translate(84 63) rotate(-72) scale(.7)" opacity="1"><path d="M0 0C-21-9-24-31-10-43 7-32 16-12 0 0Z" fill="url(#ink-september-2-leaf)" opacity="0.7" stroke-width="1.3"/><path d="M0 0L-10-37M-5-17l-11-9M-7-26l7-9" fill="none" opacity="0.65" stroke-width="0.9"/></g><g transform="translate(86 44) rotate(62) scale(.7)" opacity="1"><path d="M0 0C-21-9-24-31-10-43 7-32 16-12 0 0Z" fill="url(#ink-september-2-leaf)" opacity="0.7" stroke-width="1.3"/><path d="M0 0L-10-37M-5-17l-11-9M-7-26l7-9" fill="none" opacity="0.65" stroke-width="0.9"/></g></g><g data-motif="pear" transform="translate(354 1043) rotate(0 38 38) scale(0.475)" opacity="0.85"><path d="M76 26q-15 0-18 28-4 18-21 41-25 48 42 49 67-1 42-49-17-23-21-41-3-28-24-28Z" fill="url(#ink-september-2-gold)" opacity="0.7" stroke-width="1.3"/><path d="M76 27q-2-15 11-21M83 20q25-20 40-4-18 22-40 4Z" fill="url(#ink-september-2-leaf)" opacity="1" stroke-width="1.3"/><path d="M53 89q-18 33 4 41" fill="none" opacity="0.5" stroke-width="1"/></g><path d="M24.5 1087h5M27 1084.5v5" fill="none" opacity="0.6" stroke-width="0.8"/><path d="M105.5 1068h5M108 1065.5v5" fill="none" opacity="0.6" stroke-width="0.8"/><path d="M186.5 1049h5M189 1046.5v5" fill="none" opacity="0.6" stroke-width="0.8"/><path d="M267.5 1087h5M270 1084.5v5" fill="none" opacity="0.6" stroke-width="0.8"/><path d="M348.5 1068h5M351 1065.5v5" fill="none" opacity="0.6" stroke-width="0.8"/><path d="M429.5 1049h5M432 1046.5v5" fill="none" opacity="0.6" stroke-width="0.8"/><path d="M510.5 1087h5M513 1084.5v5" fill="none" opacity="0.6" stroke-width="0.8"/><path d="M591.5 1068h5M594 1065.5v5" fill="none" opacity="0.6" stroke-width="0.8"/><path d="M672.5 1049h5M675 1046.5v5" fill="none" opacity="0.6" stroke-width="0.8"/><path d="M753.5 1087h5M756 1084.5v5" fill="none" opacity="0.6" stroke-width="0.8"/><g data-motif="wheat" transform="translate(84 963) rotate(-19 17.5 17.5) scale(0.21875)" opacity="0.65"><path d="M80 149V17" fill="none" opacity="1" stroke-width="1.5"/><path d="M80 47q-30-3-28-25 24 0 28 25ZM80 38q30-3 28-25-24 0-28 25Z" fill="url(#ink-september-2-gold)" opacity="0.75" stroke-width="1.3"/><path d="M80 66q-30-3-28-25 24 0 28 25ZM80 57q30-3 28-25-24 0-28 25Z" fill="url(#ink-september-2-gold)" opacity="0.75" stroke-width="1.3"/><path d="M80 85q-30-3-28-25 24 0 28 25ZM80 76q30-3 28-25-24 0-28 25Z" fill="url(#ink-september-2-gold)" opacity="0.75" stroke-width="1.3"/><path d="M80 104q-30-3-28-25 24 0 28 25ZM80 95q30-3 28-25-24 0-28 25Z" fill="url(#ink-september-2-gold)" opacity="0.75" stroke-width="1.3"/><path d="M80 123q-30-3-28-25 24 0 28 25ZM80 114q30-3 28-25-24 0-28 25Z" fill="url(#ink-september-2-gold)" opacity="0.75" stroke-width="1.3"/><path d="M51 21l-5-15M109 11l7-9M51 59l-8-10M109 49l7-9" fill="none" opacity="0.6" stroke-width="1"/></g><g data-motif="wheat" transform="translate(231 1001) rotate(24 22.5 22.5) scale(0.28125)" opacity="0.65"><path d="M80 149V17" fill="none" opacity="1" stroke-width="1.5"/><path d="M80 47q-30-3-28-25 24 0 28 25ZM80 38q30-3 28-25-24 0-28 25Z" fill="url(#ink-september-2-gold)" opacity="0.75" stroke-width="1.3"/><path d="M80 66q-30-3-28-25 24 0 28 25ZM80 57q30-3 28-25-24 0-28 25Z" fill="url(#ink-september-2-gold)" opacity="0.75" stroke-width="1.3"/><path d="M80 85q-30-3-28-25 24 0 28 25ZM80 76q30-3 28-25-24 0-28 25Z" fill="url(#ink-september-2-gold)" opacity="0.75" stroke-width="1.3"/><path d="M80 104q-30-3-28-25 24 0 28 25ZM80 95q30-3 28-25-24 0-28 25Z" fill="url(#ink-september-2-gold)" opacity="0.75" stroke-width="1.3"/><path d="M80 123q-30-3-28-25 24 0 28 25ZM80 114q30-3 28-25-24 0-28 25Z" fill="url(#ink-september-2-gold)" opacity="0.75" stroke-width="1.3"/><path d="M51 21l-5-15M109 11l7-9M51 59l-8-10M109 49l7-9" fill="none" opacity="0.6" stroke-width="1"/></g><g data-motif="wheat" transform="translate(378 925) rotate(-19 17.5 17.5) scale(0.21875)" opacity="0.65"><path d="M80 149V17" fill="none" opacity="1" stroke-width="1.5"/><path d="M80 47q-30-3-28-25 24 0 28 25ZM80 38q30-3 28-25-24 0-28 25Z" fill="url(#ink-september-2-gold)" opacity="0.75" stroke-width="1.3"/><path d="M80 66q-30-3-28-25 24 0 28 25ZM80 57q30-3 28-25-24 0-28 25Z" fill="url(#ink-september-2-gold)" opacity="0.75" stroke-width="1.3"/><path d="M80 85q-30-3-28-25 24 0 28 25ZM80 76q30-3 28-25-24 0-28 25Z" fill="url(#ink-september-2-gold)" opacity="0.75" stroke-width="1.3"/><path d="M80 104q-30-3-28-25 24 0 28 25ZM80 95q30-3 28-25-24 0-28 25Z" fill="url(#ink-september-2-gold)" opacity="0.75" stroke-width="1.3"/><path d="M80 123q-30-3-28-25 24 0 28 25ZM80 114q30-3 28-25-24 0-28 25Z" fill="url(#ink-september-2-gold)" opacity="0.75" stroke-width="1.3"/><path d="M51 21l-5-15M109 11l7-9M51 59l-8-10M109 49l7-9" fill="none" opacity="0.6" stroke-width="1"/></g><g data-motif="wheat" transform="translate(525 963) rotate(24 22.5 22.5) scale(0.28125)" opacity="0.65"><path d="M80 149V17" fill="none" opacity="1" stroke-width="1.5"/><path d="M80 47q-30-3-28-25 24 0 28 25ZM80 38q30-3 28-25-24 0-28 25Z" fill="url(#ink-september-2-gold)" opacity="0.75" stroke-width="1.3"/><path d="M80 66q-30-3-28-25 24 0 28 25ZM80 57q30-3 28-25-24 0-28 25Z" fill="url(#ink-september-2-gold)" opacity="0.75" stroke-width="1.3"/><path d="M80 85q-30-3-28-25 24 0 28 25ZM80 76q30-3 28-25-24 0-28 25Z" fill="url(#ink-september-2-gold)" opacity="0.75" stroke-width="1.3"/><path d="M80 104q-30-3-28-25 24 0 28 25ZM80 95q30-3 28-25-24 0-28 25Z" fill="url(#ink-september-2-gold)" opacity="0.75" stroke-width="1.3"/><path d="M80 123q-30-3-28-25 24 0 28 25ZM80 114q30-3 28-25-24 0-28 25Z" fill="url(#ink-september-2-gold)" opacity="0.75" stroke-width="1.3"/><path d="M51 21l-5-15M109 11l7-9M51 59l-8-10M109 49l7-9" fill="none" opacity="0.6" stroke-width="1"/></g><g data-motif="wheat" transform="translate(672 1001) rotate(-19 17.5 17.5) scale(0.21875)" opacity="0.65"><path d="M80 149V17" fill="none" opacity="1" stroke-width="1.5"/><path d="M80 47q-30-3-28-25 24 0 28 25ZM80 38q30-3 28-25-24 0-28 25Z" fill="url(#ink-september-2-gold)" opacity="0.75" stroke-width="1.3"/><path d="M80 66q-30-3-28-25 24 0 28 25ZM80 57q30-3 28-25-24 0-28 25Z" fill="url(#ink-september-2-gold)" opacity="0.75" stroke-width="1.3"/><path d="M80 85q-30-3-28-25 24 0 28 25ZM80 76q30-3 28-25-24 0-28 25Z" fill="url(#ink-september-2-gold)" opacity="0.75" stroke-width="1.3"/><path d="M80 104q-30-3-28-25 24 0 28 25ZM80 95q30-3 28-25-24 0-28 25Z" fill="url(#ink-september-2-gold)" opacity="0.75" stroke-width="1.3"/><path d="M80 123q-30-3-28-25 24 0 28 25ZM80 114q30-3 28-25-24 0-28 25Z" fill="url(#ink-september-2-gold)" opacity="0.75" stroke-width="1.3"/><path d="M51 21l-5-15M109 11l7-9M51 59l-8-10M109 49l7-9" fill="none" opacity="0.6" stroke-width="1"/></g><g transform="translate(190 14) " opacity="1"><path d="M0 0q39-21 77 0t77 0M8 0q19-15 31 0-12 15-23 1M146 0q-19-15-31 0 12 15 23 1" fill="none" opacity="0.65" stroke-width="0.8"/></g><g transform="translate(604 14) scale(-1 1)" opacity="1"><path d="M0 0q39-21 77 0t77 0M8 0q19-15 31 0-12 15-23 1M146 0q-19-15-31 0 12 15 23 1" fill="none" opacity="0.65" stroke-width="0.8"/></g><g data-motif="wheat" transform="translate(381 0) rotate(0 15 15) scale(0.1875)" opacity="0.4"><path d="M80 149V17" fill="none" opacity="1" stroke-width="1.5"/><path d="M80 47q-30-3-28-25 24 0 28 25ZM80 38q30-3 28-25-24 0-28 25Z" fill="url(#ink-september-2-gold)" opacity="0.75" stroke-width="1.3"/><path d="M80 66q-30-3-28-25 24 0 28 25ZM80 57q30-3 28-25-24 0-28 25Z" fill="url(#ink-september-2-gold)" opacity="0.75" stroke-width="1.3"/><path d="M80 85q-30-3-28-25 24 0 28 25ZM80 76q30-3 28-25-24 0-28 25Z" fill="url(#ink-september-2-gold)" opacity="0.75" stroke-width="1.3"/><path d="M80 104q-30-3-28-25 24 0 28 25ZM80 95q30-3 28-25-24 0-28 25Z" fill="url(#ink-september-2-gold)" opacity="0.75" stroke-width="1.3"/><path d="M80 123q-30-3-28-25 24 0 28 25ZM80 114q30-3 28-25-24 0-28 25Z" fill="url(#ink-september-2-gold)" opacity="0.75" stroke-width="1.3"/><path d="M51 21l-5-15M109 11l7-9M51 59l-8-10M109 49l7-9" fill="none" opacity="0.6" stroke-width="1"/></g><g data-motif="wheat" transform="translate(3 178) rotate(-15 9 9) scale(0.1125)" opacity="0.25"><path d="M80 149V17" fill="none" opacity="1" stroke-width="1.5"/><path d="M80 47q-30-3-28-25 24 0 28 25ZM80 38q30-3 28-25-24 0-28 25Z" fill="url(#ink-september-2-gold)" opacity="0.75" stroke-width="1.3"/><path d="M80 66q-30-3-28-25 24 0 28 25ZM80 57q30-3 28-25-24 0-28 25Z" fill="url(#ink-september-2-gold)" opacity="0.75" stroke-width="1.3"/><path d="M80 85q-30-3-28-25 24 0 28 25ZM80 76q30-3 28-25-24 0-28 25Z" fill="url(#ink-september-2-gold)" opacity="0.75" stroke-width="1.3"/><path d="M80 104q-30-3-28-25 24 0 28 25ZM80 95q30-3 28-25-24 0-28 25Z" fill="url(#ink-september-2-gold)" opacity="0.75" stroke-width="1.3"/><path d="M80 123q-30-3-28-25 24 0 28 25ZM80 114q30-3 28-25-24 0-28 25Z" fill="url(#ink-september-2-gold)" opacity="0.75" stroke-width="1.3"/><path d="M51 21l-5-15M109 11l7-9M51 59l-8-10M109 49l7-9" fill="none" opacity="0.6" stroke-width="1"/></g><g data-motif="wheat" transform="translate(774 233) rotate(15 8.5 8.5) scale(0.10625)" opacity="0.22"><path d="M80 149V17" fill="none" opacity="1" stroke-width="1.5"/><path d="M80 47q-30-3-28-25 24 0 28 25ZM80 38q30-3 28-25-24 0-28 25Z" fill="url(#ink-september-2-gold)" opacity="0.75" stroke-width="1.3"/><path d="M80 66q-30-3-28-25 24 0 28 25ZM80 57q30-3 28-25-24 0-28 25Z" fill="url(#ink-september-2-gold)" opacity="0.75" stroke-width="1.3"/><path d="M80 85q-30-3-28-25 24 0 28 25ZM80 76q30-3 28-25-24 0-28 25Z" fill="url(#ink-september-2-gold)" opacity="0.75" stroke-width="1.3"/><path d="M80 104q-30-3-28-25 24 0 28 25ZM80 95q30-3 28-25-24 0-28 25Z" fill="url(#ink-september-2-gold)" opacity="0.75" stroke-width="1.3"/><path d="M80 123q-30-3-28-25 24 0 28 25ZM80 114q30-3 28-25-24 0-28 25Z" fill="url(#ink-september-2-gold)" opacity="0.75" stroke-width="1.3"/><path d="M51 21l-5-15M109 11l7-9M51 59l-8-10M109 49l7-9" fill="none" opacity="0.6" stroke-width="1"/></g><g data-motif="wheat" transform="translate(3 312) rotate(-15 9 9) scale(0.1125)" opacity="0.25"><path d="M80 149V17" fill="none" opacity="1" stroke-width="1.5"/><path d="M80 47q-30-3-28-25 24 0 28 25ZM80 38q30-3 28-25-24 0-28 25Z" fill="url(#ink-september-2-gold)" opacity="0.75" stroke-width="1.3"/><path d="M80 66q-30-3-28-25 24 0 28 25ZM80 57q30-3 28-25-24 0-28 25Z" fill="url(#ink-september-2-gold)" opacity="0.75" stroke-width="1.3"/><path d="M80 85q-30-3-28-25 24 0 28 25ZM80 76q30-3 28-25-24 0-28 25Z" fill="url(#ink-september-2-gold)" opacity="0.75" stroke-width="1.3"/><path d="M80 104q-30-3-28-25 24 0 28 25ZM80 95q30-3 28-25-24 0-28 25Z" fill="url(#ink-september-2-gold)" opacity="0.75" stroke-width="1.3"/><path d="M80 123q-30-3-28-25 24 0 28 25ZM80 114q30-3 28-25-24 0-28 25Z" fill="url(#ink-september-2-gold)" opacity="0.75" stroke-width="1.3"/><path d="M51 21l-5-15M109 11l7-9M51 59l-8-10M109 49l7-9" fill="none" opacity="0.6" stroke-width="1"/></g><g data-motif="wheat" transform="translate(774 367) rotate(15 8.5 8.5) scale(0.10625)" opacity="0.22"><path d="M80 149V17" fill="none" opacity="1" stroke-width="1.5"/><path d="M80 47q-30-3-28-25 24 0 28 25ZM80 38q30-3 28-25-24 0-28 25Z" fill="url(#ink-september-2-gold)" opacity="0.75" stroke-width="1.3"/><path d="M80 66q-30-3-28-25 24 0 28 25ZM80 57q30-3 28-25-24 0-28 25Z" fill="url(#ink-september-2-gold)" opacity="0.75" stroke-width="1.3"/><path d="M80 85q-30-3-28-25 24 0 28 25ZM80 76q30-3 28-25-24 0-28 25Z" fill="url(#ink-september-2-gold)" opacity="0.75" stroke-width="1.3"/><path d="M80 104q-30-3-28-25 24 0 28 25ZM80 95q30-3 28-25-24 0-28 25Z" fill="url(#ink-september-2-gold)" opacity="0.75" stroke-width="1.3"/><path d="M80 123q-30-3-28-25 24 0 28 25ZM80 114q30-3 28-25-24 0-28 25Z" fill="url(#ink-september-2-gold)" opacity="0.75" stroke-width="1.3"/><path d="M51 21l-5-15M109 11l7-9M51 59l-8-10M109 49l7-9" fill="none" opacity="0.6" stroke-width="1"/></g><g data-motif="wheat" transform="translate(3 446) rotate(-15 9 9) scale(0.1125)" opacity="0.25"><path d="M80 149V17" fill="none" opacity="1" stroke-width="1.5"/><path d="M80 47q-30-3-28-25 24 0 28 25ZM80 38q30-3 28-25-24 0-28 25Z" fill="url(#ink-september-2-gold)" opacity="0.75" stroke-width="1.3"/><path d="M80 66q-30-3-28-25 24 0 28 25ZM80 57q30-3 28-25-24 0-28 25Z" fill="url(#ink-september-2-gold)" opacity="0.75" stroke-width="1.3"/><path d="M80 85q-30-3-28-25 24 0 28 25ZM80 76q30-3 28-25-24 0-28 25Z" fill="url(#ink-september-2-gold)" opacity="0.75" stroke-width="1.3"/><path d="M80 104q-30-3-28-25 24 0 28 25ZM80 95q30-3 28-25-24 0-28 25Z" fill="url(#ink-september-2-gold)" opacity="0.75" stroke-width="1.3"/><path d="M80 123q-30-3-28-25 24 0 28 25ZM80 114q30-3 28-25-24 0-28 25Z" fill="url(#ink-september-2-gold)" opacity="0.75" stroke-width="1.3"/><path d="M51 21l-5-15M109 11l7-9M51 59l-8-10M109 49l7-9" fill="none" opacity="0.6" stroke-width="1"/></g><g data-motif="wheat" transform="translate(774 501) rotate(15 8.5 8.5) scale(0.10625)" opacity="0.22"><path d="M80 149V17" fill="none" opacity="1" stroke-width="1.5"/><path d="M80 47q-30-3-28-25 24 0 28 25ZM80 38q30-3 28-25-24 0-28 25Z" fill="url(#ink-september-2-gold)" opacity="0.75" stroke-width="1.3"/><path d="M80 66q-30-3-28-25 24 0 28 25ZM80 57q30-3 28-25-24 0-28 25Z" fill="url(#ink-september-2-gold)" opacity="0.75" stroke-width="1.3"/><path d="M80 85q-30-3-28-25 24 0 28 25ZM80 76q30-3 28-25-24 0-28 25Z" fill="url(#ink-september-2-gold)" opacity="0.75" stroke-width="1.3"/><path d="M80 104q-30-3-28-25 24 0 28 25ZM80 95q30-3 28-25-24 0-28 25Z" fill="url(#ink-september-2-gold)" opacity="0.75" stroke-width="1.3"/><path d="M80 123q-30-3-28-25 24 0 28 25ZM80 114q30-3 28-25-24 0-28 25Z" fill="url(#ink-september-2-gold)" opacity="0.75" stroke-width="1.3"/><path d="M51 21l-5-15M109 11l7-9M51 59l-8-10M109 49l7-9" fill="none" opacity="0.6" stroke-width="1"/></g><g data-motif="wheat" transform="translate(3 580) rotate(-15 9 9) scale(0.1125)" opacity="0.25"><path d="M80 149V17" fill="none" opacity="1" stroke-width="1.5"/><path d="M80 47q-30-3-28-25 24 0 28 25ZM80 38q30-3 28-25-24 0-28 25Z" fill="url(#ink-september-2-gold)" opacity="0.75" stroke-width="1.3"/><path d="M80 66q-30-3-28-25 24 0 28 25ZM80 57q30-3 28-25-24 0-28 25Z" fill="url(#ink-september-2-gold)" opacity="0.75" stroke-width="1.3"/><path d="M80 85q-30-3-28-25 24 0 28 25ZM80 76q30-3 28-25-24 0-28 25Z" fill="url(#ink-september-2-gold)" opacity="0.75" stroke-width="1.3"/><path d="M80 104q-30-3-28-25 24 0 28 25ZM80 95q30-3 28-25-24 0-28 25Z" fill="url(#ink-september-2-gold)" opacity="0.75" stroke-width="1.3"/><path d="M80 123q-30-3-28-25 24 0 28 25ZM80 114q30-3 28-25-24 0-28 25Z" fill="url(#ink-september-2-gold)" opacity="0.75" stroke-width="1.3"/><path d="M51 21l-5-15M109 11l7-9M51 59l-8-10M109 49l7-9" fill="none" opacity="0.6" stroke-width="1"/></g><g data-motif="wheat" transform="translate(774 635) rotate(15 8.5 8.5) scale(0.10625)" opacity="0.22"><path d="M80 149V17" fill="none" opacity="1" stroke-width="1.5"/><path d="M80 47q-30-3-28-25 24 0 28 25ZM80 38q30-3 28-25-24 0-28 25Z" fill="url(#ink-september-2-gold)" opacity="0.75" stroke-width="1.3"/><path d="M80 66q-30-3-28-25 24 0 28 25ZM80 57q30-3 28-25-24 0-28 25Z" fill="url(#ink-september-2-gold)" opacity="0.75" stroke-width="1.3"/><path d="M80 85q-30-3-28-25 24 0 28 25ZM80 76q30-3 28-25-24 0-28 25Z" fill="url(#ink-september-2-gold)" opacity="0.75" stroke-width="1.3"/><path d="M80 104q-30-3-28-25 24 0 28 25ZM80 95q30-3 28-25-24 0-28 25Z" fill="url(#ink-september-2-gold)" opacity="0.75" stroke-width="1.3"/><path d="M80 123q-30-3-28-25 24 0 28 25ZM80 114q30-3 28-25-24 0-28 25Z" fill="url(#ink-september-2-gold)" opacity="0.75" stroke-width="1.3"/><path d="M51 21l-5-15M109 11l7-9M51 59l-8-10M109 49l7-9" fill="none" opacity="0.6" stroke-width="1"/></g><g data-motif="wheat" transform="translate(3 714) rotate(-15 9 9) scale(0.1125)" opacity="0.25"><path d="M80 149V17" fill="none" opacity="1" stroke-width="1.5"/><path d="M80 47q-30-3-28-25 24 0 28 25ZM80 38q30-3 28-25-24 0-28 25Z" fill="url(#ink-september-2-gold)" opacity="0.75" stroke-width="1.3"/><path d="M80 66q-30-3-28-25 24 0 28 25ZM80 57q30-3 28-25-24 0-28 25Z" fill="url(#ink-september-2-gold)" opacity="0.75" stroke-width="1.3"/><path d="M80 85q-30-3-28-25 24 0 28 25ZM80 76q30-3 28-25-24 0-28 25Z" fill="url(#ink-september-2-gold)" opacity="0.75" stroke-width="1.3"/><path d="M80 104q-30-3-28-25 24 0 28 25ZM80 95q30-3 28-25-24 0-28 25Z" fill="url(#ink-september-2-gold)" opacity="0.75" stroke-width="1.3"/><path d="M80 123q-30-3-28-25 24 0 28 25ZM80 114q30-3 28-25-24 0-28 25Z" fill="url(#ink-september-2-gold)" opacity="0.75" stroke-width="1.3"/><path d="M51 21l-5-15M109 11l7-9M51 59l-8-10M109 49l7-9" fill="none" opacity="0.6" stroke-width="1"/></g><g data-motif="wheat" transform="translate(774 769) rotate(15 8.5 8.5) scale(0.10625)" opacity="0.22"><path d="M80 149V17" fill="none" opacity="1" stroke-width="1.5"/><path d="M80 47q-30-3-28-25 24 0 28 25ZM80 38q30-3 28-25-24 0-28 25Z" fill="url(#ink-september-2-gold)" opacity="0.75" stroke-width="1.3"/><path d="M80 66q-30-3-28-25 24 0 28 25ZM80 57q30-3 28-25-24 0-28 25Z" fill="url(#ink-september-2-gold)" opacity="0.75" stroke-width="1.3"/><path d="M80 85q-30-3-28-25 24 0 28 25ZM80 76q30-3 28-25-24 0-28 25Z" fill="url(#ink-september-2-gold)" opacity="0.75" stroke-width="1.3"/><path d="M80 104q-30-3-28-25 24 0 28 25ZM80 95q30-3 28-25-24 0-28 25Z" fill="url(#ink-september-2-gold)" opacity="0.75" stroke-width="1.3"/><path d="M80 123q-30-3-28-25 24 0 28 25ZM80 114q30-3 28-25-24 0-28 25Z" fill="url(#ink-september-2-gold)" opacity="0.75" stroke-width="1.3"/><path d="M51 21l-5-15M109 11l7-9M51 59l-8-10M109 49l7-9" fill="none" opacity="0.6" stroke-width="1"/></g></g></svg>
