<svg xmlns="http://www.w3.org/2000/svg" width="794" height="1123" viewBox="0 0 794 1123" role="img" aria-labelledby="title-january-4"><title id="title-january-4">Januar - Zaleđeno jezero</title><desc>Original seasonal vector motifs. Asymmetric vignette. Open invoice content area.</desc><defs><linearGradient id="ink-january-4-accent" x1="0" y1="0" x2="0.8" y2="1"><stop offset="0" stop-color="#9cb8cb"/><stop offset="0.52" stop-color="#729ab4"/><stop offset="1" stop-color="#6c92ab"/></linearGradient><linearGradient id="ink-january-4-light" x1="0" y1="0" x2="0.8" y2="1"><stop offset="0" stop-color="#eff6fb"/><stop offset="0.52" stop-color="#dcecf5"/><stop offset="1" stop-color="#c9dae4"/></linearGradient><linearGradient id="ink-january-4-deep" x1="0" y1="0" x2="0.8" y2="1"><stop offset="0" stop-color="#778a96"/><stop offset="0.52" stop-color="#3d5869"/><stop offset="1" stop-color="#3d5869"/></linearGradient><linearGradient id="ink-january-4-leaf" x1="0" y1="0" x2="0.8" y2="1"><stop offset="0" stop-color="#92a39b"/><stop offset="0.52" stop-color="#637c70"/><stop offset="1" stop-color="#5e786f"/></linearGradient><linearGradient id="ink-january-4-gold" x1="0" y1="0" x2="0.8" y2="1"><stop offset="0" stop-color="#cab7a1"/><stop offset="0.52" stop-color="#b39878"/><stop offset="1" stop-color="#a59076"/></linearGradient><linearGradient id="ink-january-4-paper" x1="0" y1="0" x2="0.8" y2="1"><stop offset="0" stop-color="#fbfdfe"/><stop offset="0.52" stop-color="#f9fcfe"/><stop offset="1" stop-color="#f5f9fb"/></linearGradient><radialGradient id="wash-january-4"><stop offset="0" stop-color="#dcecf5" stop-opacity="0.72"/><stop offset="0.65" stop-color="#dcecf5" stop-opacity="0.3"/><stop offset="1" stop-color="#f9fcfe" stop-opacity="0"/></radialGradient><linearGradient id="paper-january-4" x1="0" y1="0" x2="0" y2="1"><stop offset="0" stop-color="#ffffff"/><stop offset="0.78" stop-color="#ffffff"/><stop offset="1" stop-color="#f9fcfe"/></linearGradient><mask id="safe-january-4"><rect width="794" height="1123" fill="white"/><rect x="29" y="87" width="736" height="780" rx="15" fill="black"/></mask></defs><rect width="794" height="1123" fill="url(#paper-january-4)"/><g stroke="#3d5869" stroke-width="1.2" stroke-linecap="round" stroke-linejoin="round" fill="none" mask="url(#safe-january-4)"><g stroke="none"><ellipse cx="102" cy="1040" rx="207" ry="136" fill="url(#wash-january-4)" opacity="1"/><ellipse cx="770" cy="987" rx="91" ry="219" fill="url(#wash-january-4)" opacity="1"/></g><g data-motif="pinebranch" transform="translate(20 1003) rotate(-37 53.5 53.5) scale(0.66875)" opacity="0.75"><g stroke="#637c70"><path d="M20 143L136 22" fill="none" opacity="1" stroke-width="2"/><path d="M29 134l-27-4M29 134l-15-20M29 134l4-27M29 134l20-15" fill="none" opacity="0.85" stroke-width="1.2"/><path d="M37 126l-27-4M37 126l-15-20M37 126l4-27M37 126l20-15" fill="none" opacity="0.85" stroke-width="1.2"/><path d="M45 118l-27-4M45 118l-15-20M45 118l4-27M45 118l20-15" fill="none" opacity="0.85" stroke-width="1.2"/><path d="M53 110l-27-4M53 110l-15-20M53 110l4-27M53 110l20-15" fill="none" opacity="0.85" stroke-width="1.2"/><path d="M61 102l-27-4M61 102l-15-20M61 102l4-27M61 102l20-15" fill="none" opacity="0.85" stroke-width="1.2"/><path d="M69 94l-27-4M69 94l-15-20M69 94l4-27M69 94l20-15" fill="none" opacity="0.85" stroke-width="1.2"/><path d="M77 86l-27-4M77 86l-15-20M77 86l4-27M77 86l20-15" fill="none" opacity="0.85" stroke-width="1.2"/><path d="M85 78l-27-4M85 78l-15-20M85 78l4-27M85 78l20-15" fill="none" opacity="0.85" stroke-width="1.2"/><path d="M93 70l-27-4M93 70l-15-20M93 70l4-27M93 70l20-15" fill="none" opacity="0.85" stroke-width="1.2"/><path d="M101 62l-27-4M101 62l-15-20M101 62l4-27M101 62l20-15" fill="none" opacity="0.85" stroke-width="1.2"/><path d="M109 54l-27-4M109 54l-15-20M109 54l4-27M109 54l20-15" fill="none" opacity="0.85" stroke-width="1.2"/><path d="M117 46l-27-4M117 46l-15-20M117 46l4-27M117 46l20-15" fill="none" opacity="0.85" stroke-width="1.2"/></g></g><g data-motif="pinebranch" transform="translate(156 1050) rotate(21 53.5 53.5) scale(0.66875)" opacity="0.75"><g stroke="#637c70"><path d="M20 143L136 22" fill="none" opacity="1" stroke-width="2"/><path d="M29 134l-27-4M29 134l-15-20M29 134l4-27M29 134l20-15" fill="none" opacity="0.85" stroke-width="1.2"/><path d="M37 126l-27-4M37 126l-15-20M37 126l4-27M37 126l20-15" fill="none" opacity="0.85" stroke-width="1.2"/><path d="M45 118l-27-4M45 118l-15-20M45 118l4-27M45 118l20-15" fill="none" opacity="0.85" stroke-width="1.2"/><path d="M53 110l-27-4M53 110l-15-20M53 110l4-27M53 110l20-15" fill="none" opacity="0.85" stroke-width="1.2"/><path d="M61 102l-27-4M61 102l-15-20M61 102l4-27M61 102l20-15" fill="none" opacity="0.85" stroke-width="1.2"/><path d="M69 94l-27-4M69 94l-15-20M69 94l4-27M69 94l20-15" fill="none" opacity="0.85" stroke-width="1.2"/><path d="M77 86l-27-4M77 86l-15-20M77 86l4-27M77 86l20-15" fill="none" opacity="0.85" stroke-width="1.2"/><path d="M85 78l-27-4M85 78l-15-20M85 78l4-27M85 78l20-15" fill="none" opacity="0.85" stroke-width="1.2"/><path d="M93 70l-27-4M93 70l-15-20M93 70l4-27M93 70l20-15" fill="none" opacity="0.85" stroke-width="1.2"/><path d="M101 62l-27-4M101 62l-15-20M101 62l4-27M101 62l20-15" fill="none" opacity="0.85" stroke-width="1.2"/><path d="M109 54l-27-4M109 54l-15-20M109 54l4-27M109 54l20-15" fill="none" opacity="0.85" stroke-width="1.2"/><path d="M117 46l-27-4M117 46l-15-20M117 46l4-27M117 46l20-15" fill="none" opacity="0.85" stroke-width="1.2"/></g></g><g data-motif="pinebranch" transform="translate(678 940) rotate(33 53.5 53.5) scale(0.66875)" opacity="0.75"><g stroke="#637c70"><path d="M20 143L136 22" fill="none" opacity="1" stroke-width="2"/><path d="M29 134l-27-4M29 134l-15-20M29 134l4-27M29 134l20-15" fill="none" opacity="0.85" stroke-width="1.2"/><path d="M37 126l-27-4M37 126l-15-20M37 126l4-27M37 126l20-15" fill="none" opacity="0.85" stroke-width="1.2"/><path d="M45 118l-27-4M45 118l-15-20M45 118l4-27M45 118l20-15" fill="none" opacity="0.85" stroke-width="1.2"/><path d="M53 110l-27-4M53 110l-15-20M53 110l4-27M53 110l20-15" fill="none" opacity="0.85" stroke-width="1.2"/><path d="M61 102l-27-4M61 102l-15-20M61 102l4-27M61 102l20-15" fill="none" opacity="0.85" stroke-width="1.2"/><path d="M69 94l-27-4M69 94l-15-20M69 94l4-27M69 94l20-15" fill="none" opacity="0.85" stroke-width="1.2"/><path d="M77 86l-27-4M77 86l-15-20M77 86l4-27M77 86l20-15" fill="none" opacity="0.85" stroke-width="1.2"/><path d="M85 78l-27-4M85 78l-15-20M85 78l4-27M85 78l20-15" fill="none" opacity="0.85" stroke-width="1.2"/><path d="M93 70l-27-4M93 70l-15-20M93 70l4-27M93 70l20-15" fill="none" opacity="0.85" stroke-width="1.2"/><path d="M101 62l-27-4M101 62l-15-20M101 62l4-27M101 62l20-15" fill="none" opacity="0.85" stroke-width="1.2"/><path d="M109 54l-27-4M109 54l-15-20M109 54l4-27M109 54l20-15" fill="none" opacity="0.85" stroke-width="1.2"/><path d="M117 46l-27-4M117 46l-15-20M117 46l4-27M117 46l20-15" fill="none" opacity="0.85" stroke-width="1.2"/></g></g><g data-motif="pinebranch" transform="translate(640 1029) rotate(-24 53.5 53.5) scale(0.66875)" opacity="0.75"><g stroke="#637c70"><path d="M20 143L136 22" fill="none" opacity="1" stroke-width="2"/><path d="M29 134l-27-4M29 134l-15-20M29 134l4-27M29 134l20-15" fill="none" opacity="0.85" stroke-width="1.2"/><path d="M37 126l-27-4M37 126l-15-20M37 126l4-27M37 126l20-15" fill="none" opacity="0.85" stroke-width="1.2"/><path d="M45 118l-27-4M45 118l-15-20M45 118l4-27M45 118l20-15" fill="none" opacity="0.85" stroke-width="1.2"/><path d="M53 110l-27-4M53 110l-15-20M53 110l4-27M53 110l20-15" fill="none" opacity="0.85" stroke-width="1.2"/><path d="M61 102l-27-4M61 102l-15-20M61 102l4-27M61 102l20-15" fill="none" opacity="0.85" stroke-width="1.2"/><path d="M69 94l-27-4M69 94l-15-20M69 94l4-27M69 94l20-15" fill="none" opacity="0.85" stroke-width="1.2"/><path d="M77 86l-27-4M77 86l-15-20M77 86l4-27M77 86l20-15" fill="none" opacity="0.85" stroke-width="1.2"/><path d="M85 78l-27-4M85 78l-15-20M85 78l4-27M85 78l20-15" fill="none" opacity="0.85" stroke-width="1.2"/><path d="M93 70l-27-4M93 70l-15-20M93 70l4-27M93 70l20-15" fill="none" opacity="0.85" stroke-width="1.2"/><path d="M101 62l-27-4M101 62l-15-20M101 62l4-27M101 62l20-15" fill="none" opacity="0.85" stroke-width="1.2"/><path d="M109 54l-27-4M109 54l-15-20M109 54l4-27M109 54l20-15" fill="none" opacity="0.85" stroke-width="1.2"/><path d="M117 46l-27-4M117 46l-15-20M117 46l4-27M117 46l20-15" fill="none" opacity="0.85" stroke-width="1.2"/></g></g><path d="M774 639v431q0 25-25 25H344M784 689v384q0 32-32 32H397" fill="none" opacity="0.3" stroke-width="0.9"/><g transform="translate(41 1097) " opacity="1"><path d="M0 0q39-21 77 0t77 0M8 0q19-15 31 0-12 15-23 1M146 0q-19-15-31 0 12 15 23 1" fill="none" opacity="0.65" stroke-width="0.8"/></g><path d="M768 683h6M771 680v6" fill="none" opacity="0.6" stroke-width="0.8"/><path d="M768 745h6M771 742v6" fill="none" opacity="0.6" stroke-width="0.8"/><path d="M768 807h6M771 804v6" fill="none" opacity="0.6" stroke-width="0.8"/><path d="M768 869h6M771 866v6" fill="none" opacity="0.6" stroke-width="0.8"/><path d="M768 931h6M771 928v6" fill="none" opacity="0.6" stroke-width="0.8"/><path d="M768 993h6M771 990v6" fill="none" opacity="0.6" stroke-width="0.8"/><g data-motif="ice" transform="translate(35 930) rotate(-7 105 105) scale(1.3125)" opacity="1"><ellipse cx="80" cy="105" rx="70" ry="29" fill="url(#ink-january-4-light)" opacity="1"/><path d="M14 102q38-10 67-4t63 1M32 117q28-9 53-3t40-3M46 94l22 12-8 11M104 90l-14 13 19 14" fill="none" opacity="0.65" stroke-width="1"/><path d="M27 73q8-25 18-17l6 26M118 71l10-20 12 31" fill="url(#ink-january-4-paper)" opacity="1" stroke-width="1.3"/><path d="M15 83q58-10 131 0" fill="none" opacity="0.55" stroke-width="1"/></g><g data-motif="bareTree" transform="translate(225 984) rotate(4 74 74) scale(0.925)" opacity="1"><path d="M74 147V48M85 147V70M79 105L37 77V42M37 59L14 42M79 84l37-37V17M116 36l24-13M80 127l45-31 19 3M41 80l-22 12M81 67L66 39V17M110 54l-9-20" fill="none" opacity="0.9" stroke-width="2.2"/></g><g data-motif="moon" transform="translate(649 906) rotate(7 82 82) scale(1.025)" opacity="1"><path d="M110 26a57 57 0 10 24 90 53 53 0 01-24-90Z" fill="url(#ink-january-4-gold)" opacity="1" stroke-width="1.3"/><path d="M37 109q24 32 62 18" fill="none" opacity="0.55" stroke-width="1"/><circle cx="117" cy="57" r="4" fill="url(#ink-january-4-light)" opacity="1"/><circle cx="138" cy="86" r="2" fill="url(#ink-january-4-accent)" opacity="1"/></g><g data-motif="crystal" transform="translate(694 839) rotate(-18 66 66) scale(0.825)" opacity="1"><path d="M80 14L114 45 128 80 106 129 80 146 54 129 32 80 46 45Z" fill="url(#ink-january-4-light)" opacity="0.9" stroke-width="1.3"/><path d="M80 14v132M32 80h96M46 45l60 84M114 45l-60 84M46 45h68L106 129H54Z" fill="none" opacity="0.8" stroke-width="1"/><path d="M80 33l30 47-30 47-30-47z" fill="url(#ink-january-4-paper)" opacity="0.7" stroke-width="1.3"/></g><g data-motif="snowflake" transform="translate(716 746) rotate(20 47 47) scale(0.5875)" opacity="1"><g transform="rotate(0 80 80)" opacity="1"><path d="M80 80V17M80 32l-10-9M80 32l10-9M80 49L62 35M80 49l18-14M80 66L58 54M80 66l22-12" fill="none" opacity="1" stroke-width="1.4"/></g><g transform="rotate(60 80 80)" opacity="1"><path d="M80 80V17M80 32l-10-9M80 32l10-9M80 49L62 35M80 49l18-14M80 66L58 54M80 66l22-12" fill="none" opacity="1" stroke-width="1.4"/></g><g transform="rotate(120 80 80)" opacity="1"><path d="M80 80V17M80 32l-10-9M80 32l10-9M80 49L62 35M80 49l18-14M80 66L58 54M80 66l22-12" fill="none" opacity="1" stroke-width="1.4"/></g><g transform="rotate(180 80 80)" opacity="1"><path d="M80 80V17M80 32l-10-9M80 32l10-9M80 49L62 35M80 49l18-14M80 66L58 54M80 66l22-12" fill="none" opacity="1" stroke-width="1.4"/></g><g transform="rotate(240 80 80)" opacity="1"><path d="M80 80V17M80 32l-10-9M80 32l10-9M80 49L62 35M80 49l18-14M80 66L58 54M80 66l22-12" fill="none" opacity="1" stroke-width="1.4"/></g><g transform="rotate(300 80 80)" opacity="1"><path d="M80 80V17M80 32l-10-9M80 32l10-9M80 49L62 35M80 49l18-14M80 66L58 54M80 66l22-12" fill="none" opacity="1" stroke-width="1.4"/></g><circle cx="80" cy="80" r="7" fill="url(#ink-january-4-light)" opacity="1"/></g><g data-motif="bareTree" transform="translate(611 1017) rotate(-4 78 78) scale(0.975)" opacity="1"><path d="M74 147V48M85 147V70M79 105L37 77V42M37 59L14 42M79 84l37-37V17M116 36l24-13M80 127l45-31 19 3M41 80l-22 12M81 67L66 39V17M110 54l-9-20" fill="none" opacity="0.9" stroke-width="2.2"/></g><g data-motif="moon" transform="translate(368 1033) rotate(-8 57.5 57.5) scale(0.71875)" opacity="0.85"><path d="M110 26a57 57 0 10 24 90 53 53 0 01-24-90Z" fill="url(#ink-january-4-gold)" opacity="1" stroke-width="1.3"/><path d="M37 109q24 32 62 18" fill="none" opacity="0.55" stroke-width="1"/><circle cx="117" cy="57" r="4" fill="url(#ink-january-4-light)" opacity="1"/><circle cx="138" cy="86" r="2" fill="url(#ink-january-4-accent)" opacity="1"/></g><g data-motif="crystal" transform="translate(488 1055) rotate(10 39.5 39.5) scale(0.49375)" opacity="0.85"><path d="M80 14L114 45 128 80 106 129 80 146 54 129 32 80 46 45Z" fill="url(#ink-january-4-light)" opacity="0.9" stroke-width="1.3"/><path d="M80 14v132M32 80h96M46 45l60 84M114 45l-60 84M46 45h68L106 129H54Z" fill="none" opacity="0.8" stroke-width="1"/><path d="M80 33l30 47-30 47-30-47z" fill="url(#ink-january-4-paper)" opacity="0.7" stroke-width="1.3"/></g><g data-motif="snowflake" transform="translate(704 656) rotate(-23 49 49) scale(0.6125)" opacity="0.85"><g transform="rotate(0 80 80)" opacity="1"><path d="M80 80V17M80 32l-10-9M80 32l10-9M80 49L62 35M80 49l18-14M80 66L58 54M80 66l22-12" fill="none" opacity="1" stroke-width="1.4"/></g><g transform="rotate(60 80 80)" opacity="1"><path d="M80 80V17M80 32l-10-9M80 32l10-9M80 49L62 35M80 49l18-14M80 66L58 54M80 66l22-12" fill="none" opacity="1" stroke-width="1.4"/></g><g transform="rotate(120 80 80)" opacity="1"><path d="M80 80V17M80 32l-10-9M80 32l10-9M80 49L62 35M80 49l18-14M80 66L58 54M80 66l22-12" fill="none" opacity="1" stroke-width="1.4"/></g><g transform="rotate(180 80 80)" opacity="1"><path d="M80 80V17M80 32l-10-9M80 32l10-9M80 49L62 35M80 49l18-14M80 66L58 54M80 66l22-12" fill="none" opacity="1" stroke-width="1.4"/></g><g transform="rotate(240 80 80)" opacity="1"><path d="M80 80V17M80 32l-10-9M80 32l10-9M80 49L62 35M80 49l18-14M80 66L58 54M80 66l22-12" fill="none" opacity="1" stroke-width="1.4"/></g><g transform="rotate(300 80 80)" opacity="1"><path d="M80 80V17M80 32l-10-9M80 32l10-9M80 49L62 35M80 49l18-14M80 66L58 54M80 66l22-12" fill="none" opacity="1" stroke-width="1.4"/></g><circle cx="80" cy="80" r="7" fill="url(#ink-january-4-light)" opacity="1"/></g><path d="M24.5 1087h5M27 1084.5v5" fill="none" opacity="0.6" stroke-width="0.8"/><path d="M105.5 1068h5M108 1065.5v5" fill="none" opacity="0.6" stroke-width="0.8"/><path d="M186.5 1049h5M189 1046.5v5" fill="none" opacity="0.6" stroke-width="0.8"/><path d="M267.5 1087h5M270 1084.5v5" fill="none" opacity="0.6" stroke-width="0.8"/><path d="M348.5 1068h5M351 1065.5v5" fill="none" opacity="0.6" stroke-width="0.8"/><path d="M429.5 1049h5M432 1046.5v5" fill="none" opacity="0.6" stroke-width="0.8"/><path d="M510.5 1087h5M513 1084.5v5" fill="none" opacity="0.6" stroke-width="0.8"/><path d="M591.5 1068h5M594 1065.5v5" fill="none" opacity="0.6" stroke-width="0.8"/><path d="M672.5 1049h5M675 1046.5v5" fill="none" opacity="0.6" stroke-width="0.8"/><path d="M753.5 1087h5M756 1084.5v5" fill="none" opacity="0.6" stroke-width="0.8"/><g data-motif="snowflake" transform="translate(84 925) rotate(-19 17.5 17.5) scale(0.21875)" opacity="0.65"><g transform="rotate(0 80 80)" opacity="1"><path d="M80 80V17M80 32l-10-9M80 32l10-9M80 49L62 35M80 49l18-14M80 66L58 54M80 66l22-12" fill="none" opacity="1" stroke-width="1.4"/></g><g transform="rotate(60 80 80)" opacity="1"><path d="M80 80V17M80 32l-10-9M80 32l10-9M80 49L62 35M80 49l18-14M80 66L58 54M80 66l22-12" fill="none" opacity="1" stroke-width="1.4"/></g><g transform="rotate(120 80 80)" opacity="1"><path d="M80 80V17M80 32l-10-9M80 32l10-9M80 49L62 35M80 49l18-14M80 66L58 54M80 66l22-12" fill="none" opacity="1" stroke-width="1.4"/></g><g transform="rotate(180 80 80)" opacity="1"><path d="M80 80V17M80 32l-10-9M80 32l10-9M80 49L62 35M80 49l18-14M80 66L58 54M80 66l22-12" fill="none" opacity="1" stroke-width="1.4"/></g><g transform="rotate(240 80 80)" opacity="1"><path d="M80 80V17M80 32l-10-9M80 32l10-9M80 49L62 35M80 49l18-14M80 66L58 54M80 66l22-12" fill="none" opacity="1" stroke-width="1.4"/></g><g transform="rotate(300 80 80)" opacity="1"><path d="M80 80V17M80 32l-10-9M80 32l10-9M80 49L62 35M80 49l18-14M80 66L58 54M80 66l22-12" fill="none" opacity="1" stroke-width="1.4"/></g><circle cx="80" cy="80" r="7" fill="url(#ink-january-4-light)" opacity="1"/></g><g data-motif="snowflake" transform="translate(231 963) rotate(24 22.5 22.5) scale(0.28125)" opacity="0.65"><g transform="rotate(0 80 80)" opacity="1"><path d="M80 80V17M80 32l-10-9M80 32l10-9M80 49L62 35M80 49l18-14M80 66L58 54M80 66l22-12" fill="none" opacity="1" stroke-width="1.4"/></g><g transform="rotate(60 80 80)" opacity="1"><path d="M80 80V17M80 32l-10-9M80 32l10-9M80 49L62 35M80 49l18-14M80 66L58 54M80 66l22-12" fill="none" opacity="1" stroke-width="1.4"/></g><g transform="rotate(120 80 80)" opacity="1"><path d="M80 80V17M80 32l-10-9M80 32l10-9M80 49L62 35M80 49l18-14M80 66L58 54M80 66l22-12" fill="none" opacity="1" stroke-width="1.4"/></g><g transform="rotate(180 80 80)" opacity="1"><path d="M80 80V17M80 32l-10-9M80 32l10-9M80 49L62 35M80 49l18-14M80 66L58 54M80 66l22-12" fill="none" opacity="1" stroke-width="1.4"/></g><g transform="rotate(240 80 80)" opacity="1"><path d="M80 80V17M80 32l-10-9M80 32l10-9M80 49L62 35M80 49l18-14M80 66L58 54M80 66l22-12" fill="none" opacity="1" stroke-width="1.4"/></g><g transform="rotate(300 80 80)" opacity="1"><path d="M80 80V17M80 32l-10-9M80 32l10-9M80 49L62 35M80 49l18-14M80 66L58 54M80 66l22-12" fill="none" opacity="1" stroke-width="1.4"/></g><circle cx="80" cy="80" r="7" fill="url(#ink-january-4-light)" opacity="1"/></g><g data-motif="snowflake" transform="translate(378 1001) rotate(-19 17.5 17.5) scale(0.21875)" opacity="0.65"><g transform="rotate(0 80 80)" opacity="1"><path d="M80 80V17M80 32l-10-9M80 32l10-9M80 49L62 35M80 49l18-14M80 66L58 54M80 66l22-12" fill="none" opacity="1" stroke-width="1.4"/></g><g transform="rotate(60 80 80)" opacity="1"><path d="M80 80V17M80 32l-10-9M80 32l10-9M80 49L62 35M80 49l18-14M80 66L58 54M80 66l22-12" fill="none" opacity="1" stroke-width="1.4"/></g><g transform="rotate(120 80 80)" opacity="1"><path d="M80 80V17M80 32l-10-9M80 32l10-9M80 49L62 35M80 49l18-14M80 66L58 54M80 66l22-12" fill="none" opacity="1" stroke-width="1.4"/></g><g transform="rotate(180 80 80)" opacity="1"><path d="M80 80V17M80 32l-10-9M80 32l10-9M80 49L62 35M80 49l18-14M80 66L58 54M80 66l22-12" fill="none" opacity="1" stroke-width="1.4"/></g><g transform="rotate(240 80 80)" opacity="1"><path d="M80 80V17M80 32l-10-9M80 32l10-9M80 49L62 35M80 49l18-14M80 66L58 54M80 66l22-12" fill="none" opacity="1" stroke-width="1.4"/></g><g transform="rotate(300 80 80)" opacity="1"><path d="M80 80V17M80 32l-10-9M80 32l10-9M80 49L62 35M80 49l18-14M80 66L58 54M80 66l22-12" fill="none" opacity="1" stroke-width="1.4"/></g><circle cx="80" cy="80" r="7" fill="url(#ink-january-4-light)" opacity="1"/></g><g data-motif="snowflake" transform="translate(525 925) rotate(24 22.5 22.5) scale(0.28125)" opacity="0.65"><g transform="rotate(0 80 80)" opacity="1"><path d="M80 80V17M80 32l-10-9M80 32l10-9M80 49L62 35M80 49l18-14M80 66L58 54M80 66l22-12" fill="none" opacity="1" stroke-width="1.4"/></g><g transform="rotate(60 80 80)" opacity="1"><path d="M80 80V17M80 32l-10-9M80 32l10-9M80 49L62 35M80 49l18-14M80 66L58 54M80 66l22-12" fill="none" opacity="1" stroke-width="1.4"/></g><g transform="rotate(120 80 80)" opacity="1"><path d="M80 80V17M80 32l-10-9M80 32l10-9M80 49L62 35M80 49l18-14M80 66L58 54M80 66l22-12" fill="none" opacity="1" stroke-width="1.4"/></g><g transform="rotate(180 80 80)" opacity="1"><path d="M80 80V17M80 32l-10-9M80 32l10-9M80 49L62 35M80 49l18-14M80 66L58 54M80 66l22-12" fill="none" opacity="1" stroke-width="1.4"/></g><g transform="rotate(240 80 80)" opacity="1"><path d="M80 80V17M80 32l-10-9M80 32l10-9M80 49L62 35M80 49l18-14M80 66L58 54M80 66l22-12" fill="none" opacity="1" stroke-width="1.4"/></g><g transform="rotate(300 80 80)" opacity="1"><path d="M80 80V17M80 32l-10-9M80 32l10-9M80 49L62 35M80 49l18-14M80 66L58 54M80 66l22-12" fill="none" opacity="1" stroke-width="1.4"/></g><circle cx="80" cy="80" r="7" fill="url(#ink-january-4-light)" opacity="1"/></g><g data-motif="snowflake" transform="translate(672 963) rotate(-19 17.5 17.5) scale(0.21875)" opacity="0.65"><g transform="rotate(0 80 80)" opacity="1"><path d="M80 80V17M80 32l-10-9M80 32l10-9M80 49L62 35M80 49l18-14M80 66L58 54M80 66l22-12" fill="none" opacity="1" stroke-width="1.4"/></g><g transform="rotate(60 80 80)" opacity="1"><path d="M80 80V17M80 32l-10-9M80 32l10-9M80 49L62 35M80 49l18-14M80 66L58 54M80 66l22-12" fill="none" opacity="1" stroke-width="1.4"/></g><g transform="rotate(120 80 80)" opacity="1"><path d="M80 80V17M80 32l-10-9M80 32l10-9M80 49L62 35M80 49l18-14M80 66L58 54M80 66l22-12" fill="none" opacity="1" stroke-width="1.4"/></g><g transform="rotate(180 80 80)" opacity="1"><path d="M80 80V17M80 32l-10-9M80 32l10-9M80 49L62 35M80 49l18-14M80 66L58 54M80 66l22-12" fill="none" opacity="1" stroke-width="1.4"/></g><g transform="rotate(240 80 80)" opacity="1"><path d="M80 80V17M80 32l-10-9M80 32l10-9M80 49L62 35M80 49l18-14M80 66L58 54M80 66l22-12" fill="none" opacity="1" stroke-width="1.4"/></g><g transform="rotate(300 80 80)" opacity="1"><path d="M80 80V17M80 32l-10-9M80 32l10-9M80 49L62 35M80 49l18-14M80 66L58 54M80 66l22-12" fill="none" opacity="1" stroke-width="1.4"/></g><circle cx="80" cy="80" r="7" fill="url(#ink-january-4-light)" opacity="1"/></g><path d="M784 7H680M784 7v170" fill="none" opacity="0.3" stroke-width="0.8"/><g data-motif="snowflake" transform="translate(744 10) rotate(20 15.5 15.5) scale(0.19375)" opacity="0.4"><g transform="rotate(0 80 80)" opacity="1"><path d="M80 80V17M80 32l-10-9M80 32l10-9M80 49L62 35M80 49l18-14M80 66L58 54M80 66l22-12" fill="none" opacity="1" stroke-width="1.4"/></g><g transform="rotate(60 80 80)" opacity="1"><path d="M80 80V17M80 32l-10-9M80 32l10-9M80 49L62 35M80 49l18-14M80 66L58 54M80 66l22-12" fill="none" opacity="1" stroke-width="1.4"/></g><g transform="rotate(120 80 80)" opacity="1"><path d="M80 80V17M80 32l-10-9M80 32l10-9M80 49L62 35M80 49l18-14M80 66L58 54M80 66l22-12" fill="none" opacity="1" stroke-width="1.4"/></g><g transform="rotate(180 80 80)" opacity="1"><path d="M80 80V17M80 32l-10-9M80 32l10-9M80 49L62 35M80 49l18-14M80 66L58 54M80 66l22-12" fill="none" opacity="1" stroke-width="1.4"/></g><g transform="rotate(240 80 80)" opacity="1"><path d="M80 80V17M80 32l-10-9M80 32l10-9M80 49L62 35M80 49l18-14M80 66L58 54M80 66l22-12" fill="none" opacity="1" stroke-width="1.4"/></g><g transform="rotate(300 80 80)" opacity="1"><path d="M80 80V17M80 32l-10-9M80 32l10-9M80 49L62 35M80 49l18-14M80 66L58 54M80 66l22-12" fill="none" opacity="1" stroke-width="1.4"/></g><circle cx="80" cy="80" r="7" fill="url(#ink-january-4-light)" opacity="1"/></g><g data-motif="snowflake" transform="translate(3 194) rotate(-15 9 9) scale(0.1125)" opacity="0.25"><g transform="rotate(0 80 80)" opacity="1"><path d="M80 80V17M80 32l-10-9M80 32l10-9M80 49L62 35M80 49l18-14M80 66L58 54M80 66l22-12" fill="none" opacity="1" stroke-width="1.4"/></g><g transform="rotate(60 80 80)" opacity="1"><path d="M80 80V17M80 32l-10-9M80 32l10-9M80 49L62 35M80 49l18-14M80 66L58 54M80 66l22-12" fill="none" opacity="1" stroke-width="1.4"/></g><g transform="rotate(120 80 80)" opacity="1"><path d="M80 80V17M80 32l-10-9M80 32l10-9M80 49L62 35M80 49l18-14M80 66L58 54M80 66l22-12" fill="none" opacity="1" stroke-width="1.4"/></g><g transform="rotate(180 80 80)" opacity="1"><path d="M80 80V17M80 32l-10-9M80 32l10-9M80 49L62 35M80 49l18-14M80 66L58 54M80 66l22-12" fill="none" opacity="1" stroke-width="1.4"/></g><g transform="rotate(240 80 80)" opacity="1"><path d="M80 80V17M80 32l-10-9M80 32l10-9M80 49L62 35M80 49l18-14M80 66L58 54M80 66l22-12" fill="none" opacity="1" stroke-width="1.4"/></g><g transform="rotate(300 80 80)" opacity="1"><path d="M80 80V17M80 32l-10-9M80 32l10-9M80 49L62 35M80 49l18-14M80 66L58 54M80 66l22-12" fill="none" opacity="1" stroke-width="1.4"/></g><circle cx="80" cy="80" r="7" fill="url(#ink-january-4-light)" opacity="1"/></g><g data-motif="snowflake" transform="translate(774 249) rotate(15 8.5 8.5) scale(0.10625)" opacity="0.22"><g transform="rotate(0 80 80)" opacity="1"><path d="M80 80V17M80 32l-10-9M80 32l10-9M80 49L62 35M80 49l18-14M80 66L58 54M80 66l22-12" fill="none" opacity="1" stroke-width="1.4"/></g><g transform="rotate(60 80 80)" opacity="1"><path d="M80 80V17M80 32l-10-9M80 32l10-9M80 49L62 35M80 49l18-14M80 66L58 54M80 66l22-12" fill="none" opacity="1" stroke-width="1.4"/></g><g transform="rotate(120 80 80)" opacity="1"><path d="M80 80V17M80 32l-10-9M80 32l10-9M80 49L62 35M80 49l18-14M80 66L58 54M80 66l22-12" fill="none" opacity="1" stroke-width="1.4"/></g><g transform="rotate(180 80 80)" opacity="1"><path d="M80 80V17M80 32l-10-9M80 32l10-9M80 49L62 35M80 49l18-14M80 66L58 54M80 66l22-12" fill="none" opacity="1" stroke-width="1.4"/></g><g transform="rotate(240 80 80)" opacity="1"><path d="M80 80V17M80 32l-10-9M80 32l10-9M80 49L62 35M80 49l18-14M80 66L58 54M80 66l22-12" fill="none" opacity="1" stroke-width="1.4"/></g><g transform="rotate(300 80 80)" opacity="1"><path d="M80 80V17M80 32l-10-9M80 32l10-9M80 49L62 35M80 49l18-14M80 66L58 54M80 66l22-12" fill="none" opacity="1" stroke-width="1.4"/></g><circle cx="80" cy="80" r="7" fill="url(#ink-january-4-light)" opacity="1"/></g><g data-motif="snowflake" transform="translate(3 328) rotate(-15 9 9) scale(0.1125)" opacity="0.25"><g transform="rotate(0 80 80)" opacity="1"><path d="M80 80V17M80 32l-10-9M80 32l10-9M80 49L62 35M80 49l18-14M80 66L58 54M80 66l22-12" fill="none" opacity="1" stroke-width="1.4"/></g><g transform="rotate(60 80 80)" opacity="1"><path d="M80 80V17M80 32l-10-9M80 32l10-9M80 49L62 35M80 49l18-14M80 66L58 54M80 66l22-12" fill="none" opacity="1" stroke-width="1.4"/></g><g transform="rotate(120 80 80)" opacity="1"><path d="M80 80V17M80 32l-10-9M80 32l10-9M80 49L62 35M80 49l18-14M80 66L58 54M80 66l22-12" fill="none" opacity="1" stroke-width="1.4"/></g><g transform="rotate(180 80 80)" opacity="1"><path d="M80 80V17M80 32l-10-9M80 32l10-9M80 49L62 35M80 49l18-14M80 66L58 54M80 66l22-12" fill="none" opacity="1" stroke-width="1.4"/></g><g transform="rotate(240 80 80)" opacity="1"><path d="M80 80V17M80 32l-10-9M80 32l10-9M80 49L62 35M80 49l18-14M80 66L58 54M80 66l22-12" fill="none" opacity="1" stroke-width="1.4"/></g><g transform="rotate(300 80 80)" opacity="1"><path d="M80 80V17M80 32l-10-9M80 32l10-9M80 49L62 35M80 49l18-14M80 66L58 54M80 66l22-12" fill="none" opacity="1" stroke-width="1.4"/></g><circle cx="80" cy="80" r="7" fill="url(#ink-january-4-light)" opacity="1"/></g><g data-motif="snowflake" transform="translate(774 383) rotate(15 8.5 8.5) scale(0.10625)" opacity="0.22"><g transform="rotate(0 80 80)" opacity="1"><path d="M80 80V17M80 32l-10-9M80 32l10-9M80 49L62 35M80 49l18-14M80 66L58 54M80 66l22-12" fill="none" opacity="1" stroke-width="1.4"/></g><g transform="rotate(60 80 80)" opacity="1"><path d="M80 80V17M80 32l-10-9M80 32l10-9M80 49L62 35M80 49l18-14M80 66L58 54M80 66l22-12" fill="none" opacity="1" stroke-width="1.4"/></g><g transform="rotate(120 80 80)" opacity="1"><path d="M80 80V17M80 32l-10-9M80 32l10-9M80 49L62 35M80 49l18-14M80 66L58 54M80 66l22-12" fill="none" opacity="1" stroke-width="1.4"/></g><g transform="rotate(180 80 80)" opacity="1"><path d="M80 80V17M80 32l-10-9M80 32l10-9M80 49L62 35M80 49l18-14M80 66L58 54M80 66l22-12" fill="none" opacity="1" stroke-width="1.4"/></g><g transform="rotate(240 80 80)" opacity="1"><path d="M80 80V17M80 32l-10-9M80 32l10-9M80 49L62 35M80 49l18-14M80 66L58 54M80 66l22-12" fill="none" opacity="1" stroke-width="1.4"/></g><g transform="rotate(300 80 80)" opacity="1"><path d="M80 80V17M80 32l-10-9M80 32l10-9M80 49L62 35M80 49l18-14M80 66L58 54M80 66l22-12" fill="none" opacity="1" stroke-width="1.4"/></g><circle cx="80" cy="80" r="7" fill="url(#ink-january-4-light)" opacity="1"/></g><g data-motif="snowflake" transform="translate(3 462) rotate(-15 9 9) scale(0.1125)" opacity="0.25"><g transform="rotate(0 80 80)" opacity="1"><path d="M80 80V17M80 32l-10-9M80 32l10-9M80 49L62 35M80 49l18-14M80 66L58 54M80 66l22-12" fill="none" opacity="1" stroke-width="1.4"/></g><g transform="rotate(60 80 80)" opacity="1"><path d="M80 80V17M80 32l-10-9M80 32l10-9M80 49L62 35M80 49l18-14M80 66L58 54M80 66l22-12" fill="none" opacity="1" stroke-width="1.4"/></g><g transform="rotate(120 80 80)" opacity="1"><path d="M80 80V17M80 32l-10-9M80 32l10-9M80 49L62 35M80 49l18-14M80 66L58 54M80 66l22-12" fill="none" opacity="1" stroke-width="1.4"/></g><g transform="rotate(180 80 80)" opacity="1"><path d="M80 80V17M80 32l-10-9M80 32l10-9M80 49L62 35M80 49l18-14M80 66L58 54M80 66l22-12" fill="none" opacity="1" stroke-width="1.4"/></g><g transform="rotate(240 80 80)" opacity="1"><path d="M80 80V17M80 32l-10-9M80 32l10-9M80 49L62 35M80 49l18-14M80 66L58 54M80 66l22-12" fill="none" opacity="1" stroke-width="1.4"/></g><g transform="rotate(300 80 80)" opacity="1"><path d="M80 80V17M80 32l-10-9M80 32l10-9M80 49L62 35M80 49l18-14M80 66L58 54M80 66l22-12" fill="none" opacity="1" stroke-width="1.4"/></g><circle cx="80" cy="80" r="7" fill="url(#ink-january-4-light)" opacity="1"/></g><g data-motif="snowflake" transform="translate(774 517) rotate(15 8.5 8.5) scale(0.10625)" opacity="0.22"><g transform="rotate(0 80 80)" opacity="1"><path d="M80 80V17M80 32l-10-9M80 32l10-9M80 49L62 35M80 49l18-14M80 66L58 54M80 66l22-12" fill="none" opacity="1" stroke-width="1.4"/></g><g transform="rotate(60 80 80)" opacity="1"><path d="M80 80V17M80 32l-10-9M80 32l10-9M80 49L62 35M80 49l18-14M80 66L58 54M80 66l22-12" fill="none" opacity="1" stroke-width="1.4"/></g><g transform="rotate(120 80 80)" opacity="1"><path d="M80 80V17M80 32l-10-9M80 32l10-9M80 49L62 35M80 49l18-14M80 66L58 54M80 66l22-12" fill="none" opacity="1" stroke-width="1.4"/></g><g transform="rotate(180 80 80)" opacity="1"><path d="M80 80V17M80 32l-10-9M80 32l10-9M80 49L62 35M80 49l18-14M80 66L58 54M80 66l22-12" fill="none" opacity="1" stroke-width="1.4"/></g><g transform="rotate(240 80 80)" opacity="1"><path d="M80 80V17M80 32l-10-9M80 32l10-9M80 49L62 35M80 49l18-14M80 66L58 54M80 66l22-12" fill="none" opacity="1" stroke-width="1.4"/></g><g transform="rotate(300 80 80)" opacity="1"><path d="M80 80V17M80 32l-10-9M80 32l10-9M80 49L62 35M80 49l18-14M80 66L58 54M80 66l22-12" fill="none" opacity="1" stroke-width="1.4"/></g><circle cx="80" cy="80" r="7" fill="url(#ink-january-4-light)" opacity="1"/></g><g data-motif="snowflake" transform="translate(3 596) rotate(-15 9 9) scale(0.1125)" opacity="0.25"><g transform="rotate(0 80 80)" opacity="1"><path d="M80 80V17M80 32l-10-9M80 32l10-9M80 49L62 35M80 49l18-14M80 66L58 54M80 66l22-12" fill="none" opacity="1" stroke-width="1.4"/></g><g transform="rotate(60 80 80)" opacity="1"><path d="M80 80V17M80 32l-10-9M80 32l10-9M80 49L62 35M80 49l18-14M80 66L58 54M80 66l22-12" fill="none" opacity="1" stroke-width="1.4"/></g><g transform="rotate(120 80 80)" opacity="1"><path d="M80 80V17M80 32l-10-9M80 32l10-9M80 49L62 35M80 49l18-14M80 66L58 54M80 66l22-12" fill="none" opacity="1" stroke-width="1.4"/></g><g transform="rotate(180 80 80)" opacity="1"><path d="M80 80V17M80 32l-10-9M80 32l10-9M80 49L62 35M80 49l18-14M80 66L58 54M80 66l22-12" fill="none" opacity="1" stroke-width="1.4"/></g><g transform="rotate(240 80 80)" opacity="1"><path d="M80 80V17M80 32l-10-9M80 32l10-9M80 49L62 35M80 49l18-14M80 66L58 54M80 66l22-12" fill="none" opacity="1" stroke-width="1.4"/></g><g transform="rotate(300 80 80)" opacity="1"><path d="M80 80V17M80 32l-10-9M80 32l10-9M80 49L62 35M80 49l18-14M80 66L58 54M80 66l22-12" fill="none" opacity="1" stroke-width="1.4"/></g><circle cx="80" cy="80" r="7" fill="url(#ink-january-4-light)" opacity="1"/></g><g data-motif="snowflake" transform="translate(774 651) rotate(15 8.5 8.5) scale(0.10625)" opacity="0.22"><g transform="rotate(0 80 80)" opacity="1"><path d="M80 80V17M80 32l-10-9M80 32l10-9M80 49L62 35M80 49l18-14M80 66L58 54M80 66l22-12" fill="none" opacity="1" stroke-width="1.4"/></g><g transform="rotate(60 80 80)" opacity="1"><path d="M80 80V17M80 32l-10-9M80 32l10-9M80 49L62 35M80 49l18-14M80 66L58 54M80 66l22-12" fill="none" opacity="1" stroke-width="1.4"/></g><g transform="rotate(120 80 80)" opacity="1"><path d="M80 80V17M80 32l-10-9M80 32l10-9M80 49L62 35M80 49l18-14M80 66L58 54M80 66l22-12" fill="none" opacity="1" stroke-width="1.4"/></g><g transform="rotate(180 80 80)" opacity="1"><path d="M80 80V17M80 32l-10-9M80 32l10-9M80 49L62 35M80 49l18-14M80 66L58 54M80 66l22-12" fill="none" opacity="1" stroke-width="1.4"/></g><g transform="rotate(240 80 80)" opacity="1"><path d="M80 80V17M80 32l-10-9M80 32l10-9M80 49L62 35M80 49l18-14M80 66L58 54M80 66l22-12" fill="none" opacity="1" stroke-width="1.4"/></g><g transform="rotate(300 80 80)" opacity="1"><path d="M80 80V17M80 32l-10-9M80 32l10-9M80 49L62 35M80 49l18-14M80 66L58 54M80 66l22-12" fill="none" opacity="1" stroke-width="1.4"/></g><circle cx="80" cy="80" r="7" fill="url(#ink-january-4-light)" opacity="1"/></g><g data-motif="snowflake" transform="translate(3 730) rotate(-15 9 9) scale(0.1125)" opacity="0.25"><g transform="rotate(0 80 80)" opacity="1"><path d="M80 80V17M80 32l-10-9M80 32l10-9M80 49L62 35M80 49l18-14M80 66L58 54M80 66l22-12" fill="none" opacity="1" stroke-width="1.4"/></g><g transform="rotate(60 80 80)" opacity="1"><path d="M80 80V17M80 32l-10-9M80 32l10-9M80 49L62 35M80 49l18-14M80 66L58 54M80 66l22-12" fill="none" opacity="1" stroke-width="1.4"/></g><g transform="rotate(120 80 80)" opacity="1"><path d="M80 80V17M80 32l-10-9M80 32l10-9M80 49L62 35M80 49l18-14M80 66L58 54M80 66l22-12" fill="none" opacity="1" stroke-width="1.4"/></g><g transform="rotate(180 80 80)" opacity="1"><path d="M80 80V17M80 32l-10-9M80 32l10-9M80 49L62 35M80 49l18-14M80 66L58 54M80 66l22-12" fill="none" opacity="1" stroke-width="1.4"/></g><g transform="rotate(240 80 80)" opacity="1"><path d="M80 80V17M80 32l-10-9M80 32l10-9M80 49L62 35M80 49l18-14M80 66L58 54M80 66l22-12" fill="none" opacity="1" stroke-width="1.4"/></g><g transform="rotate(300 80 80)" opacity="1"><path d="M80 80V17M80 32l-10-9M80 32l10-9M80 49L62 35M80 49l18-14M80 66L58 54M80 66l22-12" fill="none" opacity="1" stroke-width="1.4"/></g><circle cx="80" cy="80" r="7" fill="url(#ink-january-4-light)" opacity="1"/></g><g data-motif="snowflake" transform="translate(774 785) rotate(15 8.5 8.5) scale(0.10625)" opacity="0.22"><g transform="rotate(0 80 80)" opacity="1"><path d="M80 80V17M80 32l-10-9M80 32l10-9M80 49L62 35M80 49l18-14M80 66L58 54M80 66l22-12" fill="none" opacity="1" stroke-width="1.4"/></g><g transform="rotate(60 80 80)" opacity="1"><path d="M80 80V17M80 32l-10-9M80 32l10-9M80 49L62 35M80 49l18-14M80 66L58 54M80 66l22-12" fill="none" opacity="1" stroke-width="1.4"/></g><g transform="rotate(120 80 80)" opacity="1"><path d="M80 80V17M80 32l-10-9M80 32l10-9M80 49L62 35M80 49l18-14M80 66L58 54M80 66l22-12" fill="none" opacity="1" stroke-width="1.4"/></g><g transform="rotate(180 80 80)" opacity="1"><path d="M80 80V17M80 32l-10-9M80 32l10-9M80 49L62 35M80 49l18-14M80 66L58 54M80 66l22-12" fill="none" opacity="1" stroke-width="1.4"/></g><g transform="rotate(240 80 80)" opacity="1"><path d="M80 80V17M80 32l-10-9M80 32l10-9M80 49L62 35M80 49l18-14M80 66L58 54M80 66l22-12" fill="none" opacity="1" stroke-width="1.4"/></g><g transform="rotate(300 80 80)" opacity="1"><path d="M80 80V17M80 32l-10-9M80 32l10-9M80 49L62 35M80 49l18-14M80 66L58 54M80 66l22-12" fill="none" opacity="1" stroke-width="1.4"/></g><circle cx="80" cy="80" r="7" fill="url(#ink-january-4-light)" opacity="1"/></g></g></svg>
