<svg xmlns="http://www.w3.org/2000/svg" width="794" height="1123" viewBox="0 0 794 1123" role="img" aria-labelledby="title-september-5"><title id="title-september-5">Septembar - Vinski ornamenti</title><desc>Original seasonal vector motifs. Corner atelier. Open invoice content area.</desc><defs><linearGradient id="ink-september-5-accent" x1="0" y1="0" x2="0.8" y2="1"><stop offset="0" stop-color="#bba8b3"/><stop offset="0.52" stop-color="#9e8292"/><stop offset="1" stop-color="#9a7e8a"/></linearGradient><linearGradient id="ink-september-5-light" x1="0" y1="0" x2="0.8" y2="1"><stop offset="0" stop-color="#f7f2eb"/><stop offset="0.52" stop-color="#ede3d2"/><stop offset="1" stop-color="#dfd4c2"/></linearGradient><linearGradient id="ink-september-5-deep" x1="0" y1="0" x2="0.8" y2="1"><stop offset="0" stop-color="#a19183"/><stop offset="0.52" stop-color="#79624e"/><stop offset="1" stop-color="#79624e"/></linearGradient><linearGradient id="ink-september-5-leaf" x1="0" y1="0" x2="0.8" y2="1"><stop offset="0" stop-color="#b2b39e"/><stop offset="0.52" stop-color="#919374"/><stop offset="1" stop-color="#8e8d6f"/></linearGradient><linearGradient id="ink-september-5-gold" x1="0" y1="0" x2="0.8" y2="1"><stop offset="0" stop-color="#d4bf99"/><stop offset="0.52" stop-color="#c1a46d"/><stop offset="1" stop-color="#b89c69"/></linearGradient><linearGradient id="ink-september-5-paper" x1="0" y1="0" x2="0.8" y2="1"><stop offset="0" stop-color="#fffdf7"/><stop offset="0.52" stop-color="#fffcf4"/><stop offset="1" stop-color="#fcf9f1"/></linearGradient><radialGradient id="wash-september-5"><stop offset="0" stop-color="#ede3d2" stop-opacity="0.72"/><stop offset="0.65" stop-color="#ede3d2" stop-opacity="0.3"/><stop offset="1" stop-color="#fffcf4" stop-opacity="0"/></radialGradient><linearGradient id="paper-september-5" x1="0" y1="0" x2="0" y2="1"><stop offset="0" stop-color="#ffffff"/><stop offset="0.78" stop-color="#ffffff"/><stop offset="1" stop-color="#fffcf4"/></linearGradient><mask id="safe-september-5"><rect width="794" height="1123" fill="white"/><rect x="29" y="87" width="736" height="780" rx="15" fill="black"/></mask></defs><rect width="794" height="1123" fill="url(#paper-september-5)"/><g stroke="#79624e" stroke-width="1.2" stroke-linecap="round" stroke-linejoin="round" fill="none" mask="url(#safe-september-5)"><g stroke="none"><ellipse cx="92" cy="1045" rx="202" ry="139" fill="url(#wash-september-5)" opacity="1"/><ellipse cx="681" cy="1045" rx="198" ry="141" fill="url(#wash-september-5)" opacity="1"/></g><g data-motif="vine" transform="translate(1 1004) rotate(-30 53.5 53.5) scale(0.66875)" opacity="0.75"><path d="M22 136Q48 35 135 20M61 71q-18-35-36-13 9 28 36 13ZM95 38q5-36 32-26-1 27-32 26ZM42 100q25-25 39-5-14 21-39 5Z" fill="url(#ink-september-5-leaf)" opacity="0.65" stroke-width="1.3"/><path d="M80 50q25-17 27 1 0 13-13 11M58 88q-16-3-19 15" fill="none" opacity="0.75" stroke-width="1.2"/></g><g data-motif="vine" transform="translate(130 1034) rotate(35 53.5 53.5) scale(0.66875)" opacity="0.75"><path d="M22 136Q48 35 135 20M61 71q-18-35-36-13 9 28 36 13ZM95 38q5-36 32-26-1 27-32 26ZM42 100q25-25 39-5-14 21-39 5Z" fill="url(#ink-september-5-leaf)" opacity="0.65" stroke-width="1.3"/><path d="M80 50q25-17 27 1 0 13-13 11M58 88q-16-3-19 15" fill="none" opacity="0.75" stroke-width="1.2"/></g><g data-motif="vine" transform="translate(573 1020) rotate(-35 53.5 53.5) scale(0.66875)" opacity="0.75"><path d="M22 136Q48 35 135 20M61 71q-18-35-36-13 9 28 36 13ZM95 38q5-36 32-26-1 27-32 26ZM42 100q25-25 39-5-14 21-39 5Z" fill="url(#ink-september-5-leaf)" opacity="0.65" stroke-width="1.3"/><path d="M80 50q25-17 27 1 0 13-13 11M58 88q-16-3-19 15" fill="none" opacity="0.75" stroke-width="1.2"/></g><g data-motif="vine" transform="translate(690 976) rotate(30 53.5 53.5) scale(0.66875)" opacity="0.75"><path d="M22 136Q48 35 135 20M61 71q-18-35-36-13 9 28 36 13ZM95 38q5-36 32-26-1 27-32 26ZM42 100q25-25 39-5-14 21-39 5Z" fill="url(#ink-september-5-leaf)" opacity="0.65" stroke-width="1.3"/><path d="M80 50q25-17 27 1 0 13-13 11M58 88q-16-3-19 15" fill="none" opacity="0.75" stroke-width="1.2"/></g><path d="M14 1020v89h196M780 1014v95H585M14 849v-86M780 846v-83" fill="none" opacity="0.4" stroke-width="0.9"/><path d="M22 1056v45h157M772 1056v45H615" fill="none" opacity="0.25" stroke-width="0.7"/><g transform="translate(319 1104) " opacity="1"><path d="M0 0q39-21 77 0t77 0M8 0q19-15 31 0-12 15-23 1M146 0q-19-15-31 0 12 15 23 1" fill="none" opacity="0.65" stroke-width="0.8"/></g><g data-motif="barrel" transform="translate(6 929) rotate(-4 98.5 98.5) scale(1.23125)" opacity="1"><path d="M43 22q37-9 74 0 25 60 0 120-37 9-74 0-25-60 0-120Z" fill="url(#ink-september-5-gold)" opacity="0.65" stroke-width="1.3"/><ellipse cx="80" cy="22" rx="37" ry="9" fill="url(#ink-september-5-light)" opacity="1"/><path d="M31 52h98M31 64h98M31 101h98M31 113h98M58 32q-13 55 0 110M80 32v115M102 32q13 55 0 110" fill="none" opacity="0.75" stroke-width="1.4"/><circle cx="80" cy="84" r="7" fill="url(#ink-september-5-deep)" opacity="1"/></g><g data-motif="grapes" transform="translate(565 923) rotate(4 98.5 98.5) scale(1.23125)" opacity="1"><circle cx="59" cy="48" r="15" fill="url(#ink-september-5-accent)" opacity="0.75"/><path d="M53 42q4-4 8-3" fill="url(#ink-september-5-paper)" opacity="0.6" stroke-width="1"/><circle cx="83" cy="47" r="15" fill="url(#ink-september-5-accent)" opacity="0.75"/><path d="M77 41q4-4 8-3" fill="url(#ink-september-5-paper)" opacity="0.6" stroke-width="1"/><circle cx="106" cy="55" r="15" fill="url(#ink-september-5-accent)" opacity="0.75"/><path d="M100 49q4-4 8-3" fill="url(#ink-september-5-paper)" opacity="0.6" stroke-width="1"/><circle cx="48" cy="71" r="15" fill="url(#ink-september-5-accent)" opacity="0.75"/><path d="M42 65q4-4 8-3" fill="url(#ink-september-5-paper)" opacity="0.6" stroke-width="1"/><circle cx="72" cy="70" r="15" fill="url(#ink-september-5-accent)" opacity="0.75"/><path d="M66 64q4-4 8-3" fill="url(#ink-september-5-paper)" opacity="0.6" stroke-width="1"/><circle cx="97" cy="78" r="15" fill="url(#ink-september-5-accent)" opacity="0.75"/><path d="M91 72q4-4 8-3" fill="url(#ink-september-5-paper)" opacity="0.6" stroke-width="1"/><circle cx="60" cy="95" r="15" fill="url(#ink-september-5-accent)" opacity="0.75"/><path d="M54 89q4-4 8-3" fill="url(#ink-september-5-paper)" opacity="0.6" stroke-width="1"/><circle cx="83" cy="102" r="15" fill="url(#ink-september-5-accent)" opacity="0.75"/><path d="M77 96q4-4 8-3" fill="url(#ink-september-5-paper)" opacity="0.6" stroke-width="1"/><circle cx="72" cy="124" r="15" fill="url(#ink-september-5-accent)" opacity="0.75"/><path d="M66 118q4-4 8-3" fill="url(#ink-september-5-paper)" opacity="0.6" stroke-width="1"/><path d="M75 33q-5-17 14-24M76 34q-39-27-49-3 26 15 49 3Z" fill="url(#ink-september-5-leaf)" opacity="1" stroke-width="1.3"/><path d="M91 26q23-15 32 0 3 17-13 10" fill="none" opacity="0.9" stroke-width="1.2"/></g><g data-motif="vine" transform="translate(132 1009) rotate(21 75 75) scale(0.9375)" opacity="1"><path d="M22 136Q48 35 135 20M61 71q-18-35-36-13 9 28 36 13ZM95 38q5-36 32-26-1 27-32 26ZM42 100q25-25 39-5-14 21-39 5Z" fill="url(#ink-september-5-leaf)" opacity="0.65" stroke-width="1.3"/><path d="M80 50q25-17 27 1 0 13-13 11M58 88q-16-3-19 15" fill="none" opacity="0.75" stroke-width="1.2"/></g><g data-motif="wheat" transform="translate(447 1016) rotate(-4 70.5 70.5) scale(0.88125)" opacity="1"><path d="M80 149V17" fill="none" opacity="1" stroke-width="1.5"/><path d="M80 47q-30-3-28-25 24 0 28 25ZM80 38q30-3 28-25-24 0-28 25Z" fill="url(#ink-september-5-gold)" opacity="0.75" stroke-width="1.3"/><path d="M80 66q-30-3-28-25 24 0 28 25ZM80 57q30-3 28-25-24 0-28 25Z" fill="url(#ink-september-5-gold)" opacity="0.75" stroke-width="1.3"/><path d="M80 85q-30-3-28-25 24 0 28 25ZM80 76q30-3 28-25-24 0-28 25Z" fill="url(#ink-september-5-gold)" opacity="0.75" stroke-width="1.3"/><path d="M80 104q-30-3-28-25 24 0 28 25ZM80 95q30-3 28-25-24 0-28 25Z" fill="url(#ink-september-5-gold)" opacity="0.75" stroke-width="1.3"/><path d="M80 123q-30-3-28-25 24 0 28 25ZM80 114q30-3 28-25-24 0-28 25Z" fill="url(#ink-september-5-gold)" opacity="0.75" stroke-width="1.3"/><path d="M51 21l-5-15M109 11l7-9M51 59l-8-10M109 49l7-9" fill="none" opacity="0.6" stroke-width="1"/></g><g data-motif="oak" transform="translate(291 1057) rotate(-18 35.5 35.5) scale(0.44375)" opacity="1"><path d="M74 139l4-29C32 121 26 99 46 91 14 84 28 60 46 64 20 45 44 27 63 43 52 11 94 9 96 38 121 22 142 47 116 60 146 66 138 92 114 90 134 113 97 122 82 110Z" fill="url(#ink-september-5-gold)" opacity="0.75" stroke-width="1.3"/><path d="M79 112l4-81M81 73l-29-19M80 95l29-24M80 107l-24-9" fill="none" opacity="0.65" stroke-width="1"/></g><g data-motif="grapes" transform="translate(383 1055) rotate(10 40 40) scale(0.5)" opacity="1"><circle cx="59" cy="48" r="15" fill="url(#ink-september-5-accent)" opacity="0.75"/><path d="M53 42q4-4 8-3" fill="url(#ink-september-5-paper)" opacity="0.6" stroke-width="1"/><circle cx="83" cy="47" r="15" fill="url(#ink-september-5-accent)" opacity="0.75"/><path d="M77 41q4-4 8-3" fill="url(#ink-september-5-paper)" opacity="0.6" stroke-width="1"/><circle cx="106" cy="55" r="15" fill="url(#ink-september-5-accent)" opacity="0.75"/><path d="M100 49q4-4 8-3" fill="url(#ink-september-5-paper)" opacity="0.6" stroke-width="1"/><circle cx="48" cy="71" r="15" fill="url(#ink-september-5-accent)" opacity="0.75"/><path d="M42 65q4-4 8-3" fill="url(#ink-september-5-paper)" opacity="0.6" stroke-width="1"/><circle cx="72" cy="70" r="15" fill="url(#ink-september-5-accent)" opacity="0.75"/><path d="M66 64q4-4 8-3" fill="url(#ink-september-5-paper)" opacity="0.6" stroke-width="1"/><circle cx="97" cy="78" r="15" fill="url(#ink-september-5-accent)" opacity="0.75"/><path d="M91 72q4-4 8-3" fill="url(#ink-september-5-paper)" opacity="0.6" stroke-width="1"/><circle cx="60" cy="95" r="15" fill="url(#ink-september-5-accent)" opacity="0.75"/><path d="M54 89q4-4 8-3" fill="url(#ink-september-5-paper)" opacity="0.6" stroke-width="1"/><circle cx="83" cy="102" r="15" fill="url(#ink-september-5-accent)" opacity="0.75"/><path d="M77 96q4-4 8-3" fill="url(#ink-september-5-paper)" opacity="0.6" stroke-width="1"/><circle cx="72" cy="124" r="15" fill="url(#ink-september-5-accent)" opacity="0.75"/><path d="M66 118q4-4 8-3" fill="url(#ink-september-5-paper)" opacity="0.6" stroke-width="1"/><path d="M75 33q-5-17 14-24M76 34q-39-27-49-3 26 15 49 3Z" fill="url(#ink-september-5-leaf)" opacity="1" stroke-width="1.3"/><path d="M91 26q23-15 32 0 3 17-13 10" fill="none" opacity="0.9" stroke-width="1.2"/></g><g data-motif="vine" transform="translate(3 858) rotate(-28 56 56) scale(0.7)" opacity="0.85"><path d="M22 136Q48 35 135 20M61 71q-18-35-36-13 9 28 36 13ZM95 38q5-36 32-26-1 27-32 26ZM42 100q25-25 39-5-14 21-39 5Z" fill="url(#ink-september-5-leaf)" opacity="0.65" stroke-width="1.3"/><path d="M80 50q25-17 27 1 0 13-13 11M58 88q-16-3-19 15" fill="none" opacity="0.75" stroke-width="1.2"/></g><g data-motif="wheat" transform="translate(684 844) rotate(4 63 63) scale(0.7875)" opacity="0.85"><path d="M80 149V17" fill="none" opacity="1" stroke-width="1.5"/><path d="M80 47q-30-3-28-25 24 0 28 25ZM80 38q30-3 28-25-24 0-28 25Z" fill="url(#ink-september-5-gold)" opacity="0.75" stroke-width="1.3"/><path d="M80 66q-30-3-28-25 24 0 28 25ZM80 57q30-3 28-25-24 0-28 25Z" fill="url(#ink-september-5-gold)" opacity="0.75" stroke-width="1.3"/><path d="M80 85q-30-3-28-25 24 0 28 25ZM80 76q30-3 28-25-24 0-28 25Z" fill="url(#ink-september-5-gold)" opacity="0.75" stroke-width="1.3"/><path d="M80 104q-30-3-28-25 24 0 28 25ZM80 95q30-3 28-25-24 0-28 25Z" fill="url(#ink-september-5-gold)" opacity="0.75" stroke-width="1.3"/><path d="M80 123q-30-3-28-25 24 0 28 25ZM80 114q30-3 28-25-24 0-28 25Z" fill="url(#ink-september-5-gold)" opacity="0.75" stroke-width="1.3"/><path d="M51 21l-5-15M109 11l7-9M51 59l-8-10M109 49l7-9" fill="none" opacity="0.6" stroke-width="1"/></g><g data-motif="oak" transform="translate(151 926) rotate(22 47 47) scale(0.5875)" opacity="0.85"><path d="M74 139l4-29C32 121 26 99 46 91 14 84 28 60 46 64 20 45 44 27 63 43 52 11 94 9 96 38 121 22 142 47 116 60 146 66 138 92 114 90 134 113 97 122 82 110Z" fill="url(#ink-september-5-gold)" opacity="0.75" stroke-width="1.3"/><path d="M79 112l4-81M81 73l-29-19M80 95l29-24M80 107l-24-9" fill="none" opacity="0.65" stroke-width="1"/></g><path d="M24.5 1087h5M27 1084.5v5" fill="none" opacity="0.6" stroke-width="0.8"/><path d="M105.5 1068h5M108 1065.5v5" fill="none" opacity="0.6" stroke-width="0.8"/><path d="M186.5 1049h5M189 1046.5v5" fill="none" opacity="0.6" stroke-width="0.8"/><path d="M267.5 1087h5M270 1084.5v5" fill="none" opacity="0.6" stroke-width="0.8"/><path d="M348.5 1068h5M351 1065.5v5" fill="none" opacity="0.6" stroke-width="0.8"/><path d="M429.5 1049h5M432 1046.5v5" fill="none" opacity="0.6" stroke-width="0.8"/><path d="M510.5 1087h5M513 1084.5v5" fill="none" opacity="0.6" stroke-width="0.8"/><path d="M591.5 1068h5M594 1065.5v5" fill="none" opacity="0.6" stroke-width="0.8"/><path d="M672.5 1049h5M675 1046.5v5" fill="none" opacity="0.6" stroke-width="0.8"/><path d="M753.5 1087h5M756 1084.5v5" fill="none" opacity="0.6" stroke-width="0.8"/><g data-motif="wheat" transform="translate(84 963) rotate(-19 17.5 17.5) scale(0.21875)" opacity="0.65"><path d="M80 149V17" fill="none" opacity="1" stroke-width="1.5"/><path d="M80 47q-30-3-28-25 24 0 28 25ZM80 38q30-3 28-25-24 0-28 25Z" fill="url(#ink-september-5-gold)" opacity="0.75" stroke-width="1.3"/><path d="M80 66q-30-3-28-25 24 0 28 25ZM80 57q30-3 28-25-24 0-28 25Z" fill="url(#ink-september-5-gold)" opacity="0.75" stroke-width="1.3"/><path d="M80 85q-30-3-28-25 24 0 28 25ZM80 76q30-3 28-25-24 0-28 25Z" fill="url(#ink-september-5-gold)" opacity="0.75" stroke-width="1.3"/><path d="M80 104q-30-3-28-25 24 0 28 25ZM80 95q30-3 28-25-24 0-28 25Z" fill="url(#ink-september-5-gold)" opacity="0.75" stroke-width="1.3"/><path d="M80 123q-30-3-28-25 24 0 28 25ZM80 114q30-3 28-25-24 0-28 25Z" fill="url(#ink-september-5-gold)" opacity="0.75" stroke-width="1.3"/><path d="M51 21l-5-15M109 11l7-9M51 59l-8-10M109 49l7-9" fill="none" opacity="0.6" stroke-width="1"/></g><g data-motif="wheat" transform="translate(231 1001) rotate(24 22.5 22.5) scale(0.28125)" opacity="0.65"><path d="M80 149V17" fill="none" opacity="1" stroke-width="1.5"/><path d="M80 47q-30-3-28-25 24 0 28 25ZM80 38q30-3 28-25-24 0-28 25Z" fill="url(#ink-september-5-gold)" opacity="0.75" stroke-width="1.3"/><path d="M80 66q-30-3-28-25 24 0 28 25ZM80 57q30-3 28-25-24 0-28 25Z" fill="url(#ink-september-5-gold)" opacity="0.75" stroke-width="1.3"/><path d="M80 85q-30-3-28-25 24 0 28 25ZM80 76q30-3 28-25-24 0-28 25Z" fill="url(#ink-september-5-gold)" opacity="0.75" stroke-width="1.3"/><path d="M80 104q-30-3-28-25 24 0 28 25ZM80 95q30-3 28-25-24 0-28 25Z" fill="url(#ink-september-5-gold)" opacity="0.75" stroke-width="1.3"/><path d="M80 123q-30-3-28-25 24 0 28 25ZM80 114q30-3 28-25-24 0-28 25Z" fill="url(#ink-september-5-gold)" opacity="0.75" stroke-width="1.3"/><path d="M51 21l-5-15M109 11l7-9M51 59l-8-10M109 49l7-9" fill="none" opacity="0.6" stroke-width="1"/></g><g data-motif="wheat" transform="translate(378 925) rotate(-19 17.5 17.5) scale(0.21875)" opacity="0.65"><path d="M80 149V17" fill="none" opacity="1" stroke-width="1.5"/><path d="M80 47q-30-3-28-25 24 0 28 25ZM80 38q30-3 28-25-24 0-28 25Z" fill="url(#ink-september-5-gold)" opacity="0.75" stroke-width="1.3"/><path d="M80 66q-30-3-28-25 24 0 28 25ZM80 57q30-3 28-25-24 0-28 25Z" fill="url(#ink-september-5-gold)" opacity="0.75" stroke-width="1.3"/><path d="M80 85q-30-3-28-25 24 0 28 25ZM80 76q30-3 28-25-24 0-28 25Z" fill="url(#ink-september-5-gold)" opacity="0.75" stroke-width="1.3"/><path d="M80 104q-30-3-28-25 24 0 28 25ZM80 95q30-3 28-25-24 0-28 25Z" fill="url(#ink-september-5-gold)" opacity="0.75" stroke-width="1.3"/><path d="M80 123q-30-3-28-25 24 0 28 25ZM80 114q30-3 28-25-24 0-28 25Z" fill="url(#ink-september-5-gold)" opacity="0.75" stroke-width="1.3"/><path d="M51 21l-5-15M109 11l7-9M51 59l-8-10M109 49l7-9" fill="none" opacity="0.6" stroke-width="1"/></g><g data-motif="wheat" transform="translate(525 963) rotate(24 22.5 22.5) scale(0.28125)" opacity="0.65"><path d="M80 149V17" fill="none" opacity="1" stroke-width="1.5"/><path d="M80 47q-30-3-28-25 24 0 28 25ZM80 38q30-3 28-25-24 0-28 25Z" fill="url(#ink-september-5-gold)" opacity="0.75" stroke-width="1.3"/><path d="M80 66q-30-3-28-25 24 0 28 25ZM80 57q30-3 28-25-24 0-28 25Z" fill="url(#ink-september-5-gold)" opacity="0.75" stroke-width="1.3"/><path d="M80 85q-30-3-28-25 24 0 28 25ZM80 76q30-3 28-25-24 0-28 25Z" fill="url(#ink-september-5-gold)" opacity="0.75" stroke-width="1.3"/><path d="M80 104q-30-3-28-25 24 0 28 25ZM80 95q30-3 28-25-24 0-28 25Z" fill="url(#ink-september-5-gold)" opacity="0.75" stroke-width="1.3"/><path d="M80 123q-30-3-28-25 24 0 28 25ZM80 114q30-3 28-25-24 0-28 25Z" fill="url(#ink-september-5-gold)" opacity="0.75" stroke-width="1.3"/><path d="M51 21l-5-15M109 11l7-9M51 59l-8-10M109 49l7-9" fill="none" opacity="0.6" stroke-width="1"/></g><g data-motif="wheat" transform="translate(672 1001) rotate(-19 17.5 17.5) scale(0.21875)" opacity="0.65"><path d="M80 149V17" fill="none" opacity="1" stroke-width="1.5"/><path d="M80 47q-30-3-28-25 24 0 28 25ZM80 38q30-3 28-25-24 0-28 25Z" fill="url(#ink-september-5-gold)" opacity="0.75" stroke-width="1.3"/><path d="M80 66q-30-3-28-25 24 0 28 25ZM80 57q30-3 28-25-24 0-28 25Z" fill="url(#ink-september-5-gold)" opacity="0.75" stroke-width="1.3"/><path d="M80 85q-30-3-28-25 24 0 28 25ZM80 76q30-3 28-25-24 0-28 25Z" fill="url(#ink-september-5-gold)" opacity="0.75" stroke-width="1.3"/><path d="M80 104q-30-3-28-25 24 0 28 25ZM80 95q30-3 28-25-24 0-28 25Z" fill="url(#ink-september-5-gold)" opacity="0.75" stroke-width="1.3"/><path d="M80 123q-30-3-28-25 24 0 28 25ZM80 114q30-3 28-25-24 0-28 25Z" fill="url(#ink-september-5-gold)" opacity="0.75" stroke-width="1.3"/><path d="M51 21l-5-15M109 11l7-9M51 59l-8-10M109 49l7-9" fill="none" opacity="0.6" stroke-width="1"/></g><g transform="translate(22 13) " opacity="1"><path d="M0 0q39-21 77 0t77 0M8 0q19-15 31 0-12 15-23 1M146 0q-19-15-31 0 12 15 23 1" fill="none" opacity="0.65" stroke-width="0.8"/></g><g transform="translate(772 13) scale(-1 1)" opacity="1"><path d="M0 0q39-21 77 0t77 0M8 0q19-15 31 0-12 15-23 1M146 0q-19-15-31 0 12 15 23 1" fill="none" opacity="0.65" stroke-width="0.8"/></g><g data-motif="wheat" transform="translate(13 5) rotate(-15 12.5 12.5) scale(0.15625)" opacity="0.35"><path d="M80 149V17" fill="none" opacity="1" stroke-width="1.5"/><path d="M80 47q-30-3-28-25 24 0 28 25ZM80 38q30-3 28-25-24 0-28 25Z" fill="url(#ink-september-5-gold)" opacity="0.75" stroke-width="1.3"/><path d="M80 66q-30-3-28-25 24 0 28 25ZM80 57q30-3 28-25-24 0-28 25Z" fill="url(#ink-september-5-gold)" opacity="0.75" stroke-width="1.3"/><path d="M80 85q-30-3-28-25 24 0 28 25ZM80 76q30-3 28-25-24 0-28 25Z" fill="url(#ink-september-5-gold)" opacity="0.75" stroke-width="1.3"/><path d="M80 104q-30-3-28-25 24 0 28 25ZM80 95q30-3 28-25-24 0-28 25Z" fill="url(#ink-september-5-gold)" opacity="0.75" stroke-width="1.3"/><path d="M80 123q-30-3-28-25 24 0 28 25ZM80 114q30-3 28-25-24 0-28 25Z" fill="url(#ink-september-5-gold)" opacity="0.75" stroke-width="1.3"/><path d="M51 21l-5-15M109 11l7-9M51 59l-8-10M109 49l7-9" fill="none" opacity="0.6" stroke-width="1"/></g><g data-motif="wheat" transform="translate(756 5) rotate(15 12.5 12.5) scale(0.15625)" opacity="0.35"><path d="M80 149V17" fill="none" opacity="1" stroke-width="1.5"/><path d="M80 47q-30-3-28-25 24 0 28 25ZM80 38q30-3 28-25-24 0-28 25Z" fill="url(#ink-september-5-gold)" opacity="0.75" stroke-width="1.3"/><path d="M80 66q-30-3-28-25 24 0 28 25ZM80 57q30-3 28-25-24 0-28 25Z" fill="url(#ink-september-5-gold)" opacity="0.75" stroke-width="1.3"/><path d="M80 85q-30-3-28-25 24 0 28 25ZM80 76q30-3 28-25-24 0-28 25Z" fill="url(#ink-september-5-gold)" opacity="0.75" stroke-width="1.3"/><path d="M80 104q-30-3-28-25 24 0 28 25ZM80 95q30-3 28-25-24 0-28 25Z" fill="url(#ink-september-5-gold)" opacity="0.75" stroke-width="1.3"/><path d="M80 123q-30-3-28-25 24 0 28 25ZM80 114q30-3 28-25-24 0-28 25Z" fill="url(#ink-september-5-gold)" opacity="0.75" stroke-width="1.3"/><path d="M51 21l-5-15M109 11l7-9M51 59l-8-10M109 49l7-9" fill="none" opacity="0.6" stroke-width="1"/></g><g data-motif="wheat" transform="translate(3 202) rotate(-15 9 9) scale(0.1125)" opacity="0.25"><path d="M80 149V17" fill="none" opacity="1" stroke-width="1.5"/><path d="M80 47q-30-3-28-25 24 0 28 25ZM80 38q30-3 28-25-24 0-28 25Z" fill="url(#ink-september-5-gold)" opacity="0.75" stroke-width="1.3"/><path d="M80 66q-30-3-28-25 24 0 28 25ZM80 57q30-3 28-25-24 0-28 25Z" fill="url(#ink-september-5-gold)" opacity="0.75" stroke-width="1.3"/><path d="M80 85q-30-3-28-25 24 0 28 25ZM80 76q30-3 28-25-24 0-28 25Z" fill="url(#ink-september-5-gold)" opacity="0.75" stroke-width="1.3"/><path d="M80 104q-30-3-28-25 24 0 28 25ZM80 95q30-3 28-25-24 0-28 25Z" fill="url(#ink-september-5-gold)" opacity="0.75" stroke-width="1.3"/><path d="M80 123q-30-3-28-25 24 0 28 25ZM80 114q30-3 28-25-24 0-28 25Z" fill="url(#ink-september-5-gold)" opacity="0.75" stroke-width="1.3"/><path d="M51 21l-5-15M109 11l7-9M51 59l-8-10M109 49l7-9" fill="none" opacity="0.6" stroke-width="1"/></g><g data-motif="wheat" transform="translate(774 257) rotate(15 8.5 8.5) scale(0.10625)" opacity="0.22"><path d="M80 149V17" fill="none" opacity="1" stroke-width="1.5"/><path d="M80 47q-30-3-28-25 24 0 28 25ZM80 38q30-3 28-25-24 0-28 25Z" fill="url(#ink-september-5-gold)" opacity="0.75" stroke-width="1.3"/><path d="M80 66q-30-3-28-25 24 0 28 25ZM80 57q30-3 28-25-24 0-28 25Z" fill="url(#ink-september-5-gold)" opacity="0.75" stroke-width="1.3"/><path d="M80 85q-30-3-28-25 24 0 28 25ZM80 76q30-3 28-25-24 0-28 25Z" fill="url(#ink-september-5-gold)" opacity="0.75" stroke-width="1.3"/><path d="M80 104q-30-3-28-25 24 0 28 25ZM80 95q30-3 28-25-24 0-28 25Z" fill="url(#ink-september-5-gold)" opacity="0.75" stroke-width="1.3"/><path d="M80 123q-30-3-28-25 24 0 28 25ZM80 114q30-3 28-25-24 0-28 25Z" fill="url(#ink-september-5-gold)" opacity="0.75" stroke-width="1.3"/><path d="M51 21l-5-15M109 11l7-9M51 59l-8-10M109 49l7-9" fill="none" opacity="0.6" stroke-width="1"/></g><g data-motif="wheat" transform="translate(3 336) rotate(-15 9 9) scale(0.1125)" opacity="0.25"><path d="M80 149V17" fill="none" opacity="1" stroke-width="1.5"/><path d="M80 47q-30-3-28-25 24 0 28 25ZM80 38q30-3 28-25-24 0-28 25Z" fill="url(#ink-september-5-gold)" opacity="0.75" stroke-width="1.3"/><path d="M80 66q-30-3-28-25 24 0 28 25ZM80 57q30-3 28-25-24 0-28 25Z" fill="url(#ink-september-5-gold)" opacity="0.75" stroke-width="1.3"/><path d="M80 85q-30-3-28-25 24 0 28 25ZM80 76q30-3 28-25-24 0-28 25Z" fill="url(#ink-september-5-gold)" opacity="0.75" stroke-width="1.3"/><path d="M80 104q-30-3-28-25 24 0 28 25ZM80 95q30-3 28-25-24 0-28 25Z" fill="url(#ink-september-5-gold)" opacity="0.75" stroke-width="1.3"/><path d="M80 123q-30-3-28-25 24 0 28 25ZM80 114q30-3 28-25-24 0-28 25Z" fill="url(#ink-september-5-gold)" opacity="0.75" stroke-width="1.3"/><path d="M51 21l-5-15M109 11l7-9M51 59l-8-10M109 49l7-9" fill="none" opacity="0.6" stroke-width="1"/></g><g data-motif="wheat" transform="translate(774 391) rotate(15 8.5 8.5) scale(0.10625)" opacity="0.22"><path d="M80 149V17" fill="none" opacity="1" stroke-width="1.5"/><path d="M80 47q-30-3-28-25 24 0 28 25ZM80 38q30-3 28-25-24 0-28 25Z" fill="url(#ink-september-5-gold)" opacity="0.75" stroke-width="1.3"/><path d="M80 66q-30-3-28-25 24 0 28 25ZM80 57q30-3 28-25-24 0-28 25Z" fill="url(#ink-september-5-gold)" opacity="0.75" stroke-width="1.3"/><path d="M80 85q-30-3-28-25 24 0 28 25ZM80 76q30-3 28-25-24 0-28 25Z" fill="url(#ink-september-5-gold)" opacity="0.75" stroke-width="1.3"/><path d="M80 104q-30-3-28-25 24 0 28 25ZM80 95q30-3 28-25-24 0-28 25Z" fill="url(#ink-september-5-gold)" opacity="0.75" stroke-width="1.3"/><path d="M80 123q-30-3-28-25 24 0 28 25ZM80 114q30-3 28-25-24 0-28 25Z" fill="url(#ink-september-5-gold)" opacity="0.75" stroke-width="1.3"/><path d="M51 21l-5-15M109 11l7-9M51 59l-8-10M109 49l7-9" fill="none" opacity="0.6" stroke-width="1"/></g><g data-motif="wheat" transform="translate(3 470) rotate(-15 9 9) scale(0.1125)" opacity="0.25"><path d="M80 149V17" fill="none" opacity="1" stroke-width="1.5"/><path d="M80 47q-30-3-28-25 24 0 28 25ZM80 38q30-3 28-25-24 0-28 25Z" fill="url(#ink-september-5-gold)" opacity="0.75" stroke-width="1.3"/><path d="M80 66q-30-3-28-25 24 0 28 25ZM80 57q30-3 28-25-24 0-28 25Z" fill="url(#ink-september-5-gold)" opacity="0.75" stroke-width="1.3"/><path d="M80 85q-30-3-28-25 24 0 28 25ZM80 76q30-3 28-25-24 0-28 25Z" fill="url(#ink-september-5-gold)" opacity="0.75" stroke-width="1.3"/><path d="M80 104q-30-3-28-25 24 0 28 25ZM80 95q30-3 28-25-24 0-28 25Z" fill="url(#ink-september-5-gold)" opacity="0.75" stroke-width="1.3"/><path d="M80 123q-30-3-28-25 24 0 28 25ZM80 114q30-3 28-25-24 0-28 25Z" fill="url(#ink-september-5-gold)" opacity="0.75" stroke-width="1.3"/><path d="M51 21l-5-15M109 11l7-9M51 59l-8-10M109 49l7-9" fill="none" opacity="0.6" stroke-width="1"/></g><g data-motif="wheat" transform="translate(774 525) rotate(15 8.5 8.5) scale(0.10625)" opacity="0.22"><path d="M80 149V17" fill="none" opacity="1" stroke-width="1.5"/><path d="M80 47q-30-3-28-25 24 0 28 25ZM80 38q30-3 28-25-24 0-28 25Z" fill="url(#ink-september-5-gold)" opacity="0.75" stroke-width="1.3"/><path d="M80 66q-30-3-28-25 24 0 28 25ZM80 57q30-3 28-25-24 0-28 25Z" fill="url(#ink-september-5-gold)" opacity="0.75" stroke-width="1.3"/><path d="M80 85q-30-3-28-25 24 0 28 25ZM80 76q30-3 28-25-24 0-28 25Z" fill="url(#ink-september-5-gold)" opacity="0.75" stroke-width="1.3"/><path d="M80 104q-30-3-28-25 24 0 28 25ZM80 95q30-3 28-25-24 0-28 25Z" fill="url(#ink-september-5-gold)" opacity="0.75" stroke-width="1.3"/><path d="M80 123q-30-3-28-25 24 0 28 25ZM80 114q30-3 28-25-24 0-28 25Z" fill="url(#ink-september-5-gold)" opacity="0.75" stroke-width="1.3"/><path d="M51 21l-5-15M109 11l7-9M51 59l-8-10M109 49l7-9" fill="none" opacity="0.6" stroke-width="1"/></g><g data-motif="wheat" transform="translate(3 604) rotate(-15 9 9) scale(0.1125)" opacity="0.25"><path d="M80 149V17" fill="none" opacity="1" stroke-width="1.5"/><path d="M80 47q-30-3-28-25 24 0 28 25ZM80 38q30-3 28-25-24 0-28 25Z" fill="url(#ink-september-5-gold)" opacity="0.75" stroke-width="1.3"/><path d="M80 66q-30-3-28-25 24 0 28 25ZM80 57q30-3 28-25-24 0-28 25Z" fill="url(#ink-september-5-gold)" opacity="0.75" stroke-width="1.3"/><path d="M80 85q-30-3-28-25 24 0 28 25ZM80 76q30-3 28-25-24 0-28 25Z" fill="url(#ink-september-5-gold)" opacity="0.75" stroke-width="1.3"/><path d="M80 104q-30-3-28-25 24 0 28 25ZM80 95q30-3 28-25-24 0-28 25Z" fill="url(#ink-september-5-gold)" opacity="0.75" stroke-width="1.3"/><path d="M80 123q-30-3-28-25 24 0 28 25ZM80 114q30-3 28-25-24 0-28 25Z" fill="url(#ink-september-5-gold)" opacity="0.75" stroke-width="1.3"/><path d="M51 21l-5-15M109 11l7-9M51 59l-8-10M109 49l7-9" fill="none" opacity="0.6" stroke-width="1"/></g><g data-motif="wheat" transform="translate(774 659) rotate(15 8.5 8.5) scale(0.10625)" opacity="0.22"><path d="M80 149V17" fill="none" opacity="1" stroke-width="1.5"/><path d="M80 47q-30-3-28-25 24 0 28 25ZM80 38q30-3 28-25-24 0-28 25Z" fill="url(#ink-september-5-gold)" opacity="0.75" stroke-width="1.3"/><path d="M80 66q-30-3-28-25 24 0 28 25ZM80 57q30-3 28-25-24 0-28 25Z" fill="url(#ink-september-5-gold)" opacity="0.75" stroke-width="1.3"/><path d="M80 85q-30-3-28-25 24 0 28 25ZM80 76q30-3 28-25-24 0-28 25Z" fill="url(#ink-september-5-gold)" opacity="0.75" stroke-width="1.3"/><path d="M80 104q-30-3-28-25 24 0 28 25ZM80 95q30-3 28-25-24 0-28 25Z" fill="url(#ink-september-5-gold)" opacity="0.75" stroke-width="1.3"/><path d="M80 123q-30-3-28-25 24 0 28 25ZM80 114q30-3 28-25-24 0-28 25Z" fill="url(#ink-september-5-gold)" opacity="0.75" stroke-width="1.3"/><path d="M51 21l-5-15M109 11l7-9M51 59l-8-10M109 49l7-9" fill="none" opacity="0.6" stroke-width="1"/></g><g data-motif="wheat" transform="translate(3 738) rotate(-15 9 9) scale(0.1125)" opacity="0.25"><path d="M80 149V17" fill="none" opacity="1" stroke-width="1.5"/><path d="M80 47q-30-3-28-25 24 0 28 25ZM80 38q30-3 28-25-24 0-28 25Z" fill="url(#ink-september-5-gold)" opacity="0.75" stroke-width="1.3"/><path d="M80 66q-30-3-28-25 24 0 28 25ZM80 57q30-3 28-25-24 0-28 25Z" fill="url(#ink-september-5-gold)" opacity="0.75" stroke-width="1.3"/><path d="M80 85q-30-3-28-25 24 0 28 25ZM80 76q30-3 28-25-24 0-28 25Z" fill="url(#ink-september-5-gold)" opacity="0.75" stroke-width="1.3"/><path d="M80 104q-30-3-28-25 24 0 28 25ZM80 95q30-3 28-25-24 0-28 25Z" fill="url(#ink-september-5-gold)" opacity="0.75" stroke-width="1.3"/><path d="M80 123q-30-3-28-25 24 0 28 25ZM80 114q30-3 28-25-24 0-28 25Z" fill="url(#ink-september-5-gold)" opacity="0.75" stroke-width="1.3"/><path d="M51 21l-5-15M109 11l7-9M51 59l-8-10M109 49l7-9" fill="none" opacity="0.6" stroke-width="1"/></g><g data-motif="wheat" transform="translate(774 793) rotate(15 8.5 8.5) scale(0.10625)" opacity="0.22"><path d="M80 149V17" fill="none" opacity="1" stroke-width="1.5"/><path d="M80 47q-30-3-28-25 24 0 28 25ZM80 38q30-3 28-25-24 0-28 25Z" fill="url(#ink-september-5-gold)" opacity="0.75" stroke-width="1.3"/><path d="M80 66q-30-3-28-25 24 0 28 25ZM80 57q30-3 28-25-24 0-28 25Z" fill="url(#ink-september-5-gold)" opacity="0.75" stroke-width="1.3"/><path d="M80 85q-30-3-28-25 24 0 28 25ZM80 76q30-3 28-25-24 0-28 25Z" fill="url(#ink-september-5-gold)" opacity="0.75" stroke-width="1.3"/><path d="M80 104q-30-3-28-25 24 0 28 25ZM80 95q30-3 28-25-24 0-28 25Z" fill="url(#ink-september-5-gold)" opacity="0.75" stroke-width="1.3"/><path d="M80 123q-30-3-28-25 24 0 28 25ZM80 114q30-3 28-25-24 0-28 25Z" fill="url(#ink-september-5-gold)" opacity="0.75" stroke-width="1.3"/><path d="M51 21l-5-15M109 11l7-9M51 59l-8-10M109 49l7-9" fill="none" opacity="0.6" stroke-width="1"/></g></g></svg>
